<svg xmlns="http://www.w3.org/2000/svg" width="50" height="50" viewBox="0 0 50 50"><circle cx="25" cy="25" r="25" fill="#4b4b4b"/><path d="M6.5 31.38V17.11a2.08 2.08 0 012.17-1.62h23.15a1.19 1.19 0 01.86.33q3 2.71 6 5.4a2.44 2.44 0 00.61.39c1.32.58 2.65 1.14 4 1.7a.84.84 0 01.57.87v6.8c0 .62-.22.84-.83.85s-1.48 0-2.22 0c-.23 0-.31.09-.37.29a3.26 3.26 0 01-6.25 0 .35.35 0 00-.41-.3H16.59a.37.37 0 00-.42.32 3.26 3.26 0 01-6.24 0 .35.35 0 00-.41-.29H7.41a.88.88 0 01-.91-.47zM18.28 16.8H8.74c-.73 0-.93.2-.93.93v10.16h10.47zm24.25 8.49a3.07 3.07 0 010-.43c.06-.34-.09-.51-.41-.63-.6-.22-1.18-.51-1.78-.74a1.87 1.87 0 00-.7-.15H31c-.62 0-.88-.21-.88-.75v-3.71c0-.52.26-.75.78-.76h2.32c-.44-.4-.82-.75-1.22-1.09a.76.76 0 00-.45-.17h-2.76v11.02h13.72v-1.29h-1.92v-1.3zm-22.9-8.47v11.06h7.81V16.82zM37.5 22l.09-.11a1.51 1.51 0 01-.28-.15c-.44-.4-.88-.8-1.33-1.19s-.79-.91-1.3-1.09a8.66 8.66 0 00-1.69 0h-1.57V22zm-17.86 7.23v1.26h7.79v-1.26zm-6.57 3.9a2 2 0 001.95-2 2 2 0 10-3.93 0 2 2 0 001.98 2zm24.23 0a2 2 0 002-1.94 2 2 0 00-2-2 2 2 0 00-2 2 2 2 0 002 1.94zm-8.53-2.67c.06 0 .08.05.11.05h5c.07 0 .18-.05.2-.11.18-.39.34-.78.51-1.2h-5.53c-.1 0-.27.11-.27.18-.03.38-.02.74-.02 1.08zm-10.49-1.22h-2.54c.17.39.31.75.48 1.11a.29.29 0 00.2.16h1.86zM9.8 30.5l.57-1.26H7.83v1.26zM40 29.23l.57 1.27h2v-1.27z" fill="#fff"/><path d="M13.05 18.11h3.09c.61 0 .85.23.85.83v3.57c0 .57-.24.82-.82.82H9.94c-.58 0-.81-.24-.81-.82v-3.6c0-.56.22-.8.79-.8zm2.6 3.9v-2.57h-5.19V22zm17.02 4.59h-1.7a.31.31 0 01-.22-.22v-1h1.94zm-9.12-8.49h1.82c.54 0 .78.23.78.78v3.67c0 .54-.24.77-.79.77h-3.64c-.57 0-.8-.23-.8-.8V18.9c0-.57.23-.78.81-.79zM22.25 22h2.57v-2.56h-2.57zM14 31.19a1 1 0 11-1-1 1 1 0 011 1zm-1-.32a.31.31 0 00-.31.31.31.31 0 00.62 0 .31.31 0 00-.25-.31zm25.27.32a1 1 0 11-1-1 1 1 0 011 1zm-1-.33a.31.31 0 00-.31.31.3.3 0 00.31.31.31.31 0 00.31-.31.31.31 0 00-.27-.31z" fill="#fff"/></svg>