<svg xmlns="http://www.w3.org/2000/svg" width="50" height="50" viewBox="0 0 50 50"><circle cx="25" cy="25" r="25" fill="#4b4b4b"/><path d="M19.18 42.79a3.12 3.12 0 01-1.84-1.06 3.05 3.05 0 01-.63-2.11l.6-17.54v-1.84a.54.54 0 00-.19-.36 4.24 4.24 0 01-1.83-3.79c.09-2.69.17-5.38.26-8.07 0-.64.16-.76.8-.76h6.41c.58 0 .74.15.76.73.09 2.76.2 5.53.26 8.29A4.11 4.11 0 0122 19.84a.5.5 0 00-.24.48c.08 2.86.15 5.73.24 8.6q.15 4.57.32 9.15c0 .51 0 1 .06 1.52a2.89 2.89 0 01-2.43 3.17h-.06zm-.82-20.35l-.15 4.3c-.11 3.07-.22 6.15-.32 9.22 0 1.38-.11 2.75-.1 4.13a1.71 1.71 0 001.72 1.65 1.76 1.76 0 001.77-1.58 9.29 9.29 0 000-1.18l-.52-15.18c0-.45 0-.9-.07-1.36zm2.83-14.12v5a1.68 1.68 0 01-.05.45.42.42 0 01-.54.31 1 1 0 01-.44-.41c-.06-.09 0-.25 0-.38V8.33h-1.23v4.9a.91.91 0 010 .41 1 1 0 01-.44.4.42.42 0 01-.53-.32 1.35 1.35 0 01-.05-.45V8.33h-1.29v.18c-.08 2.64-.19 5.27-.23 7.91a3.09 3.09 0 002.11 3 3.19 3.19 0 004.27-3.19c-.07-2.51-.16-5-.24-7.52v-.35zM18.4 20.57v.76h2.27v-.76zm12.35 22.22a3.22 3.22 0 01-1.75-.91 3 3 0 01-.75-2.23c.13-3.26.23-6.52.39-9.78.36-7.23.16-14.47.22-21.71a1.54 1.54 0 010-.48c0-.13.15-.32.25-.34a2 2 0 011.64.09A8.78 8.78 0 0134.71 15a19.08 19.08 0 01-1.32 6.8.91.91 0 00-.07.43c0 2 .09 4.07.16 6.11q.15 4 .32 8.07c0 1 0 1.92.12 2.88a3 3 0 01-2.48 3.54zm-.81-18.24c-.06 1.32-.11 2.6-.16 3.88-.11 2.73-.22 5.45-.32 8.18 0 1.17-.11 2.33-.09 3.5a1.71 1.71 0 002 1.6 1.8 1.8 0 001.53-2.05l-.5-12.17c0-1-.08-1.95-.12-2.94zm0-3.27h2.17a.37.37 0 00.42-.29 18.87 18.87 0 001.11-6 7.88 7.88 0 00-3.26-6.53c-.1-.09-.27-.09-.44-.15zm2.28 1.12a.26.26 0 00-.1 0h-1.38c-.84 0-.84 0-.81.85v.13c0 .03.1.15.15.15h2.14z" fill="#fff"/></svg>