<svg xmlns="http://www.w3.org/2000/svg" width="127" height="127" viewBox="0 0 127 127">
  <defs>
    <style>
      .cls-1 {
        fill: #449ebd;
        fill-rule: evenodd;
      }
    </style>
  </defs>
  <path id="形狀_652" data-name="形狀 652" class="cls-1" d="M6881,2685.07v-7.45c0.07-.4.18-0.79,0.21-1.19a59.366,59.366,0,0,1,3.8-17.26,62.579,62.579,0,0,1,58.11-40.63,61.064,61.064,0,0,1,28.35,6.49,1.327,1.327,0,0,0,1.88-.33c1.97-2.12,4.02-4.17,6.04-6.24a3.778,3.778,0,0,1,4.14-1.24,3.893,3.893,0,0,1,2.66,3.41c0.8,4.86,1.64,9.7,2.43,14.56a0.965,0.965,0,0,0,.99.98c4.83,0.62,9.66,1.3,14.49,1.93a3.983,3.983,0,0,1,3.64,2.54,3.856,3.856,0,0,1-1.16,4.28c-1.99,2.05-3.9,4.18-5.99,6.12-1.08,1.01-1.07,1.77-.45,3.03a61.782,61.782,0,0,1,5.02,39.54,60.334,60.334,0,0,1-16.75,31.66c-13.84,13.92-30.68,19.99-50.15,18.56a59.53,59.53,0,0,1-33.56-13.38,61.67,61.67,0,0,1-22.73-38.27C6881.56,2689.83,6881.32,2687.44,6881,2685.07Zm98.94-26.28c5.96,10.02,7.81,20.56,5.36,31.7a41.376,41.376,0,0,1-18.03,26.35,42.635,42.635,0,0,1-59.08-59.13,41.268,41.268,0,0,1,22.61-17.07c12.29-3.83,24.05-2.3,35.31,4.3-0.05-.54-0.06-0.9-0.12-1.26-0.39-2.4-.73-4.82-1.22-7.21a4.439,4.439,0,0,1,1.35-4.39c0.25-.24.46-0.53,0.7-0.81a54.9,54.9,0,0,0-67.24,16.92c-16.48,21.73-14.28,52.68,5.14,72.17a55.116,55.116,0,0,0,88.97-62.15c-1.45,1.99-3.42,2.06-5.58,1.7C6985.48,2659.48,6982.82,2659.18,6979.94,2658.79Zm-18.34,10.16a72.84,72.84,0,0,1,2.83,7.63c3.17,12.64-6.42,25.42-19.46,26.09a21.386,21.386,0,1,1-2.27-42.71,20.765,20.765,0,0,1,12.36,3.3c0.47,0.3.89,0.7,1.49,0.06,2.97-3.16,5.98-6.29,8.96-9.41-11.91-10.28-32.72-11.28-46.62,2.56a35.1,35.1,0,1,0,51.95,2.79c-2.96,3.11-5.9,6.19-8.84,9.28C6961.8,2668.74,6961.6,2668.95,6961.6,2668.95Zm-11.42.21a13.608,13.608,0,0,0-17.49,3.79,13.811,13.811,0,1,0,22.87,1.46,17.668,17.668,0,0,1-1.41,1.86c-2.57,2.58-5.15,5.14-7.77,7.67a3.646,3.646,0,0,1-4.55.63,3.5,3.5,0,0,1-1.76-4,6.039,6.039,0,0,1,1.45-2.37C6944.36,2675.15,6947.28,2672.17,6950.18,2669.16Zm29.8-39.86c-2.23,2.08-4.48,4.22-6.77,6.3a1.906,1.906,0,0,0-.63,1.97c0.36,1.91.65,3.84,0.98,5.75,0.4,2.39.82,4.78,1.23,7.14,4.49,0.61,8.82,1.23,13.17,1.76a2.053,2.053,0,0,0,1.49-.52c2.09-2.06,4.12-4.19,6.16-6.3a6.67,6.67,0,0,0,.52-0.75c-3.46-.45-6.77-0.91-10.08-1.33-2.84-.35-3.91-1.34-4.39-4.15C6981.09,2635.79,6980.51,2632.41,6979.98,2629.3Z" transform="translate(-6881 -2617)"/>
</svg>
