<svg xmlns="http://www.w3.org/2000/svg" width="102" height="102" viewBox="0 0 102 102"><path id="形狀_696" data-name="形狀 696" d="M51.11 98.406A31.227 31.227 0 0119.844 67.29C21.169 36.468 48.693 5.361 49.865 4.052a1.727 1.727 0 012.492 0c.078.087 1.944 2.179 4.751 5.812a1.655 1.655 0 01-.306 2.329 1.675 1.675 0 01-2.341-.3 139.296 139.296 0 00-3.347-4.171C45.682 14.228 24.3 41.438 23.181 67.361a27.929 27.929 0 0055.858-.072 67.865 67.865 0 00-4.458-20.384 1.668 1.668 0 013.132-1.148 71.138 71.138 0 014.662 21.462A31.239 31.239 0 0151.11 98.406zm0-13.224a1.674 1.674 0 01-.726-.166C37.491 78.807 32.79 71.082 31.117 65.7a14.161 14.161 0 01-.752-3.622 9.222 9.222 0 01-.048-1.113c0-7.378 5.6-13.4 12.479-13.4a11.942 11.942 0 018.314 3.405 11.949 11.949 0 018.315-3.414c6.879 0 12.475 6.023 12.479 13.428a9.082 9.082 0 01-.052 1.128 14.206 14.206 0 01-.752 3.6c-1.678 5.389-6.384 13.1-19.262 19.305a1.677 1.677 0 01-.728.165zM42.8 50.877c-5.039 0-9.14 4.537-9.14 10.114a7.082 7.082 0 00.035.8 11.022 11.022 0 00.6 2.86c1.466 4.716 5.563 11.4 16.823 17.014C62.981 75.741 66.734 68.523 67.919 64.7a11.089 11.089 0 00.608-2.87 7.683 7.683 0 00.041-.784c0-5.635-4.1-10.172-9.144-10.172a8.8 8.8 0 00-6.986 3.593 1.732 1.732 0 01-2.655 0 8.805 8.805 0 00-6.983-3.59zM66.55 44.5a12.914 12.914 0 01-12.929-12.87C54.142 19.5 64.849 7.4 65.3 6.89a1.727 1.727 0 012.493 0c.456.51 11.165 12.61 11.684 24.67A12.925 12.925 0 0166.55 44.5zm0-33.893c-2.771 3.5-9.225 12.533-9.594 21.1a9.592 9.592 0 0019.184-.077c-.367-8.523-6.817-17.53-9.589-21.03zm-2.536 27.074a1.664 1.664 0 01-.837-.225 7.893 7.893 0 01-3.68-4.843 1.667 1.667 0 013.232-.82 4.571 4.571 0 002.124 2.791 1.659 1.659 0 01-.839 3.097z" fill="#da003e" fill-rule="evenodd"/></svg>