<svg xmlns="http://www.w3.org/2000/svg" width="102" height="102" viewBox="0 0 102 102"><path id="形狀_699" data-name="形狀 699" d="M101.65 96.269a2.292 2.292 0 01-1.938 3.5H2.289a2.293 2.293 0 01-1.937-3.5l39.231-63.041V8.159h-3.806a2.29 2.29 0 010-4.581h30.447a2.29 2.29 0 010 4.581h-3.806v25.069zM44.151 8.159v25.725A2.306 2.306 0 0143.8 35.1L27.31 61.6h35.06l-7.226-11.776a2.286 2.286 0 113.89-2.4l24.358 39.7a2.3 2.3 0 01-.749 3.152 2.278 2.278 0 01-3.14-.748L65.18 66.181H26.645a2.266 2.266 0 01-1.7-.776L6.405 95.193H95.6L58.2 35.1a2.3 2.3 0 01-.346-1.214V8.159h-13.7z" fill="#32764b" fill-rule="evenodd"/></svg>