<svg xmlns="http://www.w3.org/2000/svg" width="102" height="102" viewBox="0 0 102 102"><path id="形狀_695" data-name="形狀 695" d="M83.307 11.917l7.485-7.486 2.16 2.16-7.485 7.487a1.544 1.544 0 002.184 2.183l8.576-8.578a1.546 1.546 0 000-2.182l-4.344-4.345a1.543 1.543 0 00-2.182 0l-8.577 8.578a1.544 1.544 0 002.183 2.183zm17.1 86.455h-2.45L85.929 75.538a34.84 34.84 0 00.9-45.951c0-.061.007-.12.007-.18a8.546 8.546 0 00-2.18-5.7l1.729-1.729a1.547 1.547 0 000-2.184L77.595 11a1.544 1.544 0 00-2.184 0L47.394 39.023a1.543 1.543 0 000 2.182L56.183 50a1.544 1.544 0 002.183 0l14.171-14.178a8.573 8.573 0 003.632 1.919 1.522 1.522 0 00.258.442 21.339 21.339 0 01-23.288 34.005h8a1.544 1.544 0 100-3.087H23.6a1.544 1.544 0 000 3.087h8.162A34.931 34.931 0 0057.3 86.774l-8.186 11.6H22.368a1.544 1.544 0 000 3.087h78.039a1.544 1.544 0 000-3.089zM69.644 29.407a8.517 8.517 0 00.978 3.966l-13.348 13.35-6.606-6.608L76.5 14.275l6.606 6.608-.9.9a8.583 8.583 0 00-12.562 7.624zm3.086 0a5.509 5.509 0 115.511 5.509 5.517 5.517 0 01-5.51-5.509zM52.891 98.372l8.564-12.131a1.545 1.545 0 00-1.261-2.434 31.828 31.828 0 01-24.55-11.619h10.874a1.478 1.478 0 00.38.361 24.435 24.435 0 0033.151-34.74 8.614 8.614 0 005.816-4.452A31.76 31.76 0 0182.944 74.2c-.015.016-.027.034-.043.051s-.02.018-.029.029a21.317 21.317 0 01-8.772 5.39 1.544 1.544 0 00-.889 2.136l8.059 16.566H52.891zm31.811 0l-7.976-16.393a25.678 25.678 0 006.915-4.163l10.826 20.556H84.7zM46.089 47.27l4.285 4.286a1.543 1.543 0 102.182-2.182l-4.284-4.287a1.544 1.544 0 00-2.183 2.183zM31.666 57.1l7.627 8.7a1.544 1.544 0 002.669-1.347l-2.079-9.5a28.732 28.732 0 004.741-2.59A1.543 1.543 0 0042.9 49.8a25.5 25.5 0 01-5.341 2.756 1.545 1.545 0 00-.967 1.776l1.078 4.924-4.22-4.807a1.546 1.546 0 00-1.37-.511 25.977 25.977 0 01-3.48.236 25.565 25.565 0 1125.245-29.612 1.544 1.544 0 003.049-.484A28.651 28.651 0 1028.6 57.262a29 29 0 003.066-.162zm-13.575-33a4.355 4.355 0 10-4.354-4.355 4.36 4.36 0 004.354 4.355zm0-5.661a1.306 1.306 0 11-1.306 1.306 1.307 1.307 0 011.306-1.305zM28.553 24.1a4.355 4.355 0 10-4.353-4.354 4.361 4.361 0 004.353 4.354zm0-5.661a1.306 1.306 0 11-1.306 1.306 1.307 1.307 0 011.306-1.305zM39.015 24.1a4.355 4.355 0 10-4.355-4.355 4.361 4.361 0 004.355 4.355zm0-5.661a1.306 1.306 0 11-1.305 1.306 1.306 1.306 0 011.305-1.305zM18.091 34.8a4.356 4.356 0 104.356 4.355 4.36 4.36 0 00-4.356-4.355zm0 5.662a1.306 1.306 0 111.309-1.309 1.308 1.308 0 01-1.309 1.306zM28.553 34.8a4.356 4.356 0 104.356 4.355 4.36 4.36 0 00-4.356-4.355zm0 5.662a1.306 1.306 0 111.305-1.306 1.308 1.308 0 01-1.305 1.303zM39.015 34.8a4.356 4.356 0 104.356 4.355 4.361 4.361 0 00-4.356-4.355zm0 5.662a1.306 1.306 0 111.305-1.306 1.308 1.308 0 01-1.305 1.303zM17.122 29.233a4.355 4.355 0 10-4.356 4.356 4.36 4.36 0 004.356-4.356zm-4.356 1.306a1.306 1.306 0 111.307-1.306 1.308 1.308 0 01-1.307 1.306zm14.819-1.306a4.355 4.355 0 10-4.356 4.356 4.362 4.362 0 004.356-4.356zm-4.356 1.306a1.306 1.306 0 111.3-1.306 1.308 1.308 0 01-1.3 1.306zm21.087-5.662a4.356 4.356 0 104.355 4.356 4.362 4.362 0 00-4.355-4.355zm0 5.662a1.306 1.306 0 111.306-1.306 1.307 1.307 0 01-1.306 1.306zm-6.27-1.306a4.355 4.355 0 10-4.355 4.356 4.361 4.361 0 004.355-4.356zm-4.355 1.306A1.306 1.306 0 1135 29.233a1.308 1.308 0 01-1.309 1.306z" fill="#0093ac" fill-rule="evenodd"/></svg>