<svg xmlns="http://www.w3.org/2000/svg" width="102" height="102" viewBox="0 0 102 102"><path id="形狀_698" data-name="形狀 698" d="M50.637 90.247h-40.3c-3.449 0-4.323-.864-4.29-4.367.044-4.18-.047-8.371.253-12.533.394-5.377 4.776-10.492 10.015-11.976a1.906 1.906 0 001.673-2.284c-.1-2.8-.081-5.608.065-8.4a14.5 14.5 0 0110.476-13.211 1.482 1.482 0 001.315-1.709 85.765 85.765 0 01.252-10.256 14.441 14.441 0 0113.886-12.456c8.049-.122 16.1-.058 24.149-.039 2.2.005 3.286 1.236 3.291 3.626q.018 9.611-.008 19.221a1.262 1.262 0 001 1.527c6.841 2.083 10.754 7.416 10.865 14.721.037 2.535.028 5.073-.007 7.608a1.21 1.21 0 00.98 1.425c6.994 2.2 10.914 7.6 10.935 14.955q.017 5.206 0 10.412c-.007 2.638-1.09 3.731-3.723 3.733q-20.412.009-40.827.003zm-38.433-6h76.979c0-3.19.013-6.294-.011-9.4a6.625 6.625 0 00-.265-1.705c-1.156-4.134-4.519-6.622-9.048-6.66-3.736-.033-7.474.019-11.212-.023a2.949 2.949 0 11.005-5.889c2.446-.048 4.892-.014 7.339-.015h1.35c0-2.817.006-5.439 0-8.062-.008-6.114-3.687-9.787-9.808-9.8q-4.873-.007-9.742 0c-2.788 0-4.217-1.023-4.185-2.99s1.421-2.922 4.251-2.923h6.54a9.859 9.859 0 001-.107V18.989c-7.208 0-14.324-.164-21.425.063A8.2 8.2 0 0036.1 25.7a26.684 26.684 0 00-.351 5.17c-.052 1.94-.012 3.883-.012 5.914 1 0 1.791-.015 2.586 0 2.07.045 3.37 1.228 3.332 3.013-.038 1.73-1.309 2.859-3.319 2.889-1.734.026-3.471-.02-5.205.012a8.956 8.956 0 00-9.231 9.297c-.02 1.646 0 3.294 0 4.94v3.619h1.653q12.014 0 24.024.005a7.9 7.9 0 011.723.127 2.9 2.9 0 012.259 2.92 2.934 2.934 0 01-2.432 2.788 9.556 9.556 0 01-1.6.077c-9.341 0-18.684-.011-28.027.009-4.714.01-8.714 2.837-9.211 7.062-.411 3.496-.089 7.079-.089 10.702z" fill="#ac7900" fill-rule="evenodd"/></svg>