<svg xmlns="http://www.w3.org/2000/svg" width="102" height="102" viewBox="0 0 102 102"><path id="形狀_697" data-name="形狀 697" d="M34.473 18.223a7.56 7.56 0 014.143 2.082 7.19 7.19 0 011.95 5.184q-.012 10.908 0 21.815v1.048h1.08q21.067 0 42.135-.011a4.318 4.318 0 013.982 1.912 4.077 4.077 0 01-2.478 6.164c-.31.076-.625.121-.88.169-.353 1.4-.624 2.784-1.055 4.118a20.187 20.187 0 01-6.414 9.121 30.872 30.872 0 01-14.436 6.86c-.914.177-1.846.256-2.892.4-.381 4.977-.766 9.971-1.16 15.083h1.017c4.593 0 9.185-.017 13.778.008a4.092 4.092 0 01.549 8.159 8.034 8.034 0 01-.879.032h-52.39c-2.228 0-3.748-1-4.346-2.84a4.06 4.06 0 013.687-5.342c.934-.04 1.869-.016 2.8-.018h2.779V77.191a34.143 34.143 0 01-3.861-1.469 12.816 12.816 0 01-5.491-6.18 30.833 30.833 0 01-2.818-12.812c-.1-4.195-.061-8.393-.067-12.588-.009-6.176 0-12.351-.006-18.527a6.769 6.769 0 012.859-6.028 17.724 17.724 0 013.192-1.363h15.222zM15.964 56.6c.085 1.145.134 2.211.253 3.269a23.706 23.706 0 002.745 9.3 9.39 9.39 0 008.787 5.211c9.959-.087 19.92-.028 29.879-.03.587 0 1.177 0 1.761-.045A27.642 27.642 0 0074.6 68.18a18.774 18.774 0 005.825-7.424 11.646 11.646 0 001.023-4.16H15.964zm21.864-2.83V25.554c0-2.938-1.677-4.6-4.638-4.6q-6.248-.005-12.494 0c-3.119 0-4.756 1.622-4.757 4.728v28.086h21.889zm-9.546 38.324c.263.018.471.045.678.045q13.011 0 26.023.014a.663.663 0 00.8-.77c.175-2.665.4-5.327.6-7.991.158-2.069.3-4.139.456-6.246H28.282v14.948zM46.743 94.9H20.79a5.8 5.8 0 00-.88.023 1.34 1.34 0 00-.166 2.633 3.624 3.624 0 00.873.074q26.113.005 52.226 0a3.124 3.124 0 00.946-.108A1.23 1.23 0 0074.7 96.1a1.252 1.252 0 00-1.124-1.173 4.971 4.971 0 00-.876-.027H46.743zM40.6 53.787c.254.012.412.025.57.026q21.353.008 42.7.009a2.851 2.851 0 00.865-.115 1.226 1.226 0 00.9-1.418 1.241 1.241 0 00-1.135-1.165 4.746 4.746 0 00-.8-.029H40.6v2.694zM22.783 35.309c0-.267-.012-.534 0-.8a4.51 4.51 0 00-.659-2.784 5.24 5.24 0 01.485-5.927 5.436 5.436 0 019.668 2.676 5.484 5.484 0 01-.893 3.8A2.675 2.675 0 0031 33.515c-.051 1.226 0 2.457-.023 3.685a4.1 4.1 0 01-4.111 4.286 4.141 4.141 0 01-4.082-4.335c-.009-.614-.001-1.228-.001-1.842zm2.732-.554c0 .828-.026 1.657.005 2.484a1.406 1.406 0 001.421 1.505 1.38 1.38 0 001.294-1.535c.019-1.255.038-2.511 0-3.765a3.633 3.633 0 01.849-2.722 2.616 2.616 0 00-.4-3.607 2.708 2.708 0 00-3.642.078 2.61 2.61 0 00-.326 3.55 3.153 3.153 0 01.8 2.489c-.034.506-.003 1.015-.001 1.523zm37.607 9.251a14.26 14.26 0 01-14.234-14.253C49.462 16.315 61.25 2.911 61.75 2.347a1.894 1.894 0 012.745 0c.505.564 12.291 13.968 12.862 27.328a14.276 14.276 0 01-14.234 14.331zm0-37.544c-3.05 3.878-10.157 13.882-10.564 23.37a10.562 10.562 0 0021.123-.079c-.402-9.442-7.504-19.419-10.557-23.291zM60.285 37.5a1.808 1.808 0 01-.914-.247 8.671 8.671 0 01-4.018-5.319 1.822 1.822 0 113.53-.9A5.006 5.006 0 0061.2 34.1a1.823 1.823 0 01-.915 3.4z" fill="#ffb200" fill-rule="evenodd"/></svg>