<svg xmlns="http://www.w3.org/2000/svg" width="20" height="20" viewBox="0 0 20 20"><path d="M9.28 20l-.43-.1a3.07 3.07 0 01-2.25-2.24c0-.13-.09-.16-.21-.16H2.78a1.44 1.44 0 01-1.48-1.35 1.36 1.36 0 01.5-1.21 5.89 5.89 0 001.37-1.73 5.76 5.76 0 00.62-2.64V7.9a5.67 5.67 0 013.08-4.7 6.11 6.11 0 011-.43c.35-.11.72-.18 1.11-.27V.78a.71.71 0 01.5-.78h.31a.78.78 0 01.46.84v1.67c.34.08.67.13 1 .22a5.78 5.78 0 014.16 5.06c.08.93 0 1.87 0 2.8a5.57 5.57 0 001.28 3.61c.23.28.51.53.77.79a1.43 1.43 0 01.32 1.65 1.4 1.4 0 01-1.33.86h-3.8l-.06.21a3.09 3.09 0 01-2.5 2.29H10zm.33-3.75h6.78a.39.39 0 00.29-.13c.08-.12 0-.21-.12-.29a6.83 6.83 0 01-2.36-5.36V8.38a5.34 5.34 0 00-.1-1 4.57 4.57 0 00-9 .56C5 8.82 5 9.7 5 10.58a6.81 6.81 0 01-2.1 5c-.1.1-.22.19-.31.3a.3.3 0 00-.06.24c0 .05.12.1.19.13a.49.49 0 00.17 0zm1.76 1.25H7.88a1.83 1.83 0 001.68 1.24 1.85 1.85 0 001.81-1.24zM.45 7.7c.06-.39.09-.78.16-1.16a10.1 10.1 0 012.81-5.4.63.63 0 01.9 0 .6.6 0 010 .9 9.12 9.12 0 00-1.87 2.7 9 9 0 00-.74 3.4.81.81 0 010 .16.62.62 0 01-.49.64.62.62 0 01-.72-.4v-.06zm18.33.3v.37a.6.6 0 01-.56.59.58.58 0 01-.66-.5c0-.33 0-.66-.07-1a8.84 8.84 0 00-2.33-5.21L14.9 2a.63.63 0 010-.88.62.62 0 01.87 0 10.28 10.28 0 011.53 1.95A10.06 10.06 0 0118.78 8z" fill="#bab8b8"/></svg>