<svg xmlns="http://www.w3.org/2000/svg" width="20" height="20" viewBox="0 0 20 20"><path d="M19.23 3.61c-.07.29-.13.58-.22.86s-.15.36-.22.53-.11.14-.24.11a5.09 5.09 0 01-2.71-1.55 4.31 4.31 0 01-1-2.18.16.16 0 01.06-.13 3.93 3.93 0 012.19-.46 2.32 2.32 0 012.11 2.07v.07zM14 1.89c0 .12.06.21.08.29A4.89 4.89 0 0015 4c.12.14.11.22 0 .35-1.7 1.7-3.4 3.39-5.09 5.09l-5.7 5.69c-.17.18-.18.17-.33 0A4.7 4.7 0 013 13.08a.52.52 0 01.18-.46l4.6-4.57 5.8-5.8c.12-.12.25-.25.42-.36zM18.1 6a1.93 1.93 0 01-.17.21L7.4 16.78a.52.52 0 01-.49.16A5.4 5.4 0 014.75 16v-.06l.13-.15L15.65 5c.1-.1.16-.13.29 0A6.33 6.33 0 0018 6zM5.45 17.55L.82 19.23l1.65-4.57h.06a5.32 5.32 0 003 2.89z" fill="#752e0b"/></svg>