<svg xmlns="http://www.w3.org/2000/svg" width="23" height="23" viewBox="0 0 23 23"><path d="M22.44 22.62H.55V3.04h3.12v.84a2.3 2.3 0 001.14 2 2.35 2.35 0 003.55-1.95v-.87h6.27v.81a2.35 2.35 0 004.69.06v-.87h3.12v19.3a2.17 2.17 0 010 .26zM20.88 8.55H2.12V21h18.76z" fill="#827c7c"/><path d="M18.46 2.73a6.72 6.72 0 010 1.1 1.5 1.5 0 01-1.53 1.24 1.48 1.48 0 01-1.48-1.35 12.26 12.26 0 010-2A1.49 1.49 0 0117 .38a1.53 1.53 0 011.49 1.44v.91zM4.41 2.72a9.52 9.52 0 01.15-1.32 1.48 1.48 0 011.55-1A1.48 1.48 0 017.5 1.66a16.35 16.35 0 010 2.1A1.49 1.49 0 016 5.07a1.52 1.52 0 01-1.53-1.39v-1zm6.42 7.5v2.15H8.39v-2.15zm7.69.01v2.14h-2.45v-2.14zM8.38 16v-2.16h2.45V16zm6.44 0h-2.45v-2.15h2.45zm1.25 0v-2.15h2.45V16zm-7.69 3.68v-2.15h2.45v2.15zm7.69 0v-2.15h2.45v2.15zm-3.69-9.46h2.44v2.15h-2.44zM4.47 16v-2.15h2.44V16zm0 3.7v-2.16h2.45v1.97c0 .07-.08.18-.12.18zm10.35-.01h-2.45v-2.15h2.45z" fill="#827c7c"/></svg>