<svg version="1.1" id="圖層_1" xmlns="http://www.w3.org/2000/svg" x="0" y="0" width="100" height="100" viewBox="0 0 100 100" xml:space="preserve"><style>.st0{fill:#e4e4e4}</style><path class="st0" d="M88.6 82.3c-.3 1.7-1.4 3.2-3 4-1 .4-2 .6-3 .6H24c-3 .2-5.6-2-5.9-5V27.8c0-3.6 2.3-5.8 6-5.9h58.4c2.3-.2 4.4 1.1 5.4 3.1.2.5.4 1 .5 1.5l.2 55.8zm-35.3 1.9h29.2c2.4 0 3.4-1 3.4-3.3V28c0-2.3-1-3.3-3.3-3.3H24.2c-2.3 0-3.3 1-3.3 3.3v52.9c0 2.3 1 3.3 3.3 3.3h29.1z"/><path class="st0" d="M77.9 19.2h-2.8v-2.3c.2-1.5-.9-2.9-2.5-3.1H13.1c-1.5-.1-2.9 1-3 2.5v54c-.1 1.5 1 2.9 2.5 3h2.8V76c-2.5.1-5 .3-6.9-2-.8-1.1-1.3-2.5-1.2-3.8V16.9c-.2-2.6 1.5-4.9 4-5.6.6-.2 1.2-.2 1.9-.2h58.6c3 0 5.2 1.5 5.7 4.1.3 1.3.4 2.7.4 4z"/><path class="st0" d="M12.9 16.5h2.6v2.6h-2.6v-2.6zm5.4.1h2.6v2.6h-2.6v-2.6zm8 2.6h-2.6v-2.7h2.2c.1 0 .4.3.4.5.1.7 0 1.4 0 2.2zm35.2 56.3c-.8.3-1.6.6-2.3 1-.2.1-.4.4-.4.7V80c.1.8-.4 1.4-1.2 1.5h-8.1c-.8.1-1.5-.4-1.6-1.2v-3.2c0-.4-.1-.7-.5-.8-.7-.2-1.4-.6-2.1-.9-.8.8-1.5 1.6-2.3 2.3-.5.6-1.4.8-2 .3l-.3-.3c-1.8-1.9-3.6-3.6-5.3-5.4-.6-.4-.8-1.3-.4-2 .1-.1.2-.3.4-.4.6-.6 1.3-1.2 1.9-1.9.1-.3.2-.6.2-.9-.1-.3-.2-.5-.3-.7-.6-1.4-.6-1.4-2.1-1.4h-1.9c-.7.1-1.3-.5-1.4-1.2v-8.2c0-.9.6-1.4 1.6-1.4h2.7c.5 0 .7-.1.9-.6.2-.7.8-1.4.7-2s-.9-1-1.4-1.5c-1.8-1.8-1.8-2 0-3.8l4.5-4.5c1-1 1.6-1 2.6 0 .6.6 1.2 1.1 1.7 1.7.3.3.7.4 1.1.3 1.8-.4 2.2-1.4 2.1-3.1-.2-2.5.1-2.6 2.6-2.6h6.4c1.3 0 1.7.5 1.7 1.7v2.7c.1.2.3.6.5.7.9.1 1.5 1.3 2.5.5.7-.6 1.4-1.3 2-1.9.4-.6 1.3-.8 1.9-.3l.3.3 5.4 5.4c.6.4.8 1.3.3 2l-.3.3c-.7.7-1.4 1.3-2 2-.1.2-.2.5-.1.7 0 .2.3.5.3.7.2 1.2 1 1.6 2.2 1.4.6-.1 1.2-.1 1.8 0 1 0 1.6.5 1.6 1.5v7.9c.1.7-.5 1.4-1.2 1.5h-3c-.5 0-.9.1-1 .7-.1.2-.1.4-.2.6-.6 1.4-.6 1.4.5 2.5.4.4.9.8 1.3 1.3.6.5.7 1.3.2 1.9l-.2.2c-1.8 1.8-3.6 3.7-5.5 5.5-.5.6-1.4.7-2 .2l-.2-.2c-1.1-.8-1.9-1.6-2.6-2.4zM42.1 44.6l-3.9 3.9c.6.6 1.3 1.2 1.9 1.9.7.5.8 1.4.3 2.1-.5 1.1-1 2.1-1.3 3.2s-.7 1.4-1.9 1.4h-2.7v5.4h2.6c1.3 0 1.5.2 2 1.4S40 66 40.4 67c.5 1.2.5 1.5-.4 2.4l-1.8 1.8 3.9 3.9c.6-.6 1.2-1.3 1.8-2 .5-.7 1.4-.9 2.1-.4h.1c1.1.5 2.2 1 3.4 1.4s1.2.7 1.2 1.8v2.8h5.4v-2.8c-.1-.8.4-1.5 1.2-1.7 1.2-.5 2.3-.9 3.5-1.5.7-.4 1.5-.2 2 .3.7.7 1.3 1.4 1.9 2l3.9-3.9c-.6-.6-1.3-1.3-2-1.9-.7-.5-.8-1.4-.3-2.1.5-1.1 1-2.2 1.4-3.4s.7-1.3 1.8-1.3h2.8V57h-2.9c-.7.1-1.4-.4-1.7-1.1-.4-1.2-.9-2.3-1.4-3.4-.4-1-.4-1.4.4-2.1s1.4-1.3 2-1.9l-3.9-4-2 2c-.5.7-1.4.8-2 .3-1.1-.5-2.1-.9-3.2-1.3s-1.5-.7-1.5-2v-2.7h-5.4v2.9c.1.8-.4 1.5-1.2 1.7-1.2.6-2.3 1-3.5 1.6-.6.4-1.5.2-1.9-.3-.7-.8-1.4-1.5-2-2.1zm-18.4-9.2v-2.6h59.5v2.6H23.7zm-.1 6.8V40c0-.2.3-.4.4-.4h10.3l.1.1v2.5H23.6zm0 2.8h8.1v2.3c0 .1-.3.3-.5.3h-7.1c-.2 0-.4-.2-.5-.4V45zm51.5 36.4v-2.6h8v2.6h-8zM23.7 30v-2.6h2.6V30h-2.6zm5.4-2.6h2.6v2.7h-2.2c-.1 0-.4-.3-.4-.5-.1-.7 0-1.4 0-2.2zm5.4 2.6v-2.6h2.6V30h-2.6z"/><path class="st0" d="M43.9 59.7c0-5.2 4.3-9.4 9.6-9.4 5.2 0 9.4 4.3 9.4 9.6 0 5.2-4.3 9.4-9.6 9.4H53c-5.1-.2-9.1-4.5-9.1-9.6zm2.8.1c0 3.7 3 6.8 6.7 6.8s6.8-3 6.8-6.7-3-6.8-6.7-6.8c-3.8 0-6.8 3-6.8 6.7z"/></svg>