<svg version="1.1" id="圖層_1" xmlns="http://www.w3.org/2000/svg" x="0" y="0" width="50" height="50" viewBox="0 0 50 50" xml:space="preserve"><circle cx="25" cy="25" r="25" fill="#1f2a27"/><path d="M35.2 21.7L34 22.9l-9.3-9.1-9.1 9.1-1.3-1.2 10.4-10.3zM19.5 29h-3.2v8.7h-1.7V29h-3.1v-1.4h8V29zm9.2 3.9c0 .9-.2 1.8-.5 2.6-.3.7-.8 1.3-1.5 1.7-1.4.8-3 .8-4.4 0-.7-.4-1.2-1-1.5-1.7-.4-.8-.5-1.7-.5-2.6v-.6c0-.9.2-1.8.5-2.6.3-.7.8-1.3 1.5-1.8.7-.4 1.4-.6 2.2-.6.8 0 1.5.2 2.2.6.6.4 1.2 1 1.5 1.7.4.8.5 1.7.5 2.6v.7zm-1.7-.5c.1-.9-.2-1.8-.6-2.6-.4-.6-1.1-.9-1.8-.9s-1.4.3-1.8.9c-.5.8-.7 1.6-.6 2.5v.6c-.1.9.2 1.8.6 2.6.7 1 2.2 1.2 3.1.5.2-.1.3-.3.5-.5.5-.8.7-1.7.6-2.6v-.5zm5.2 1.5v3.8h-1.8V27.6h3.9c1-.1 1.9.3 2.7.9.7.6 1 1.5 1 2.3 0 .9-.3 1.7-1 2.3-.8.6-1.8.9-2.7.8h-2.1zm0-1.4h2.1c.5 0 1-.1 1.4-.4.3-.3.5-.8.5-1.3s-.2-1-.5-1.3c-.4-.3-.9-.5-1.4-.5h-2.2v3.5z" fill="#fff"/></svg>