<svg xmlns="http://www.w3.org/2000/svg" xmlns:xlink="http://www.w3.org/1999/xlink" viewBox="0 0 508.06 136.01"><defs><radialGradient id="a" cx="58.35" cy="31.95" fx="75.884" fy="4.878" r="39.88" gradientUnits="userSpaceOnUse"><stop offset=".55" stop-color="#fff"/><stop offset=".6" stop-color="#f9f9f9"/><stop offset=".68" stop-color="#e8e8e8"/><stop offset=".76" stop-color="#cbcbcb"/><stop offset=".85" stop-color="#a3a3a3"/><stop offset=".95" stop-color="#737373"/><stop offset="1" stop-color="#8c8c8c"/></radialGradient><radialGradient id="c" cx="82.51" cy="1942.14" fx="105.607" fy="1906.474" r="52.54" gradientTransform="matrix(.99 0 0 .71 -19.87 -1339.27)" gradientUnits="userSpaceOnUse"><stop offset=".55" stop-color="#d71718"/><stop offset=".63" stop-color="#d11819"/><stop offset=".73" stop-color="#c01c1d"/><stop offset=".86" stop-color="#a32224"/><stop offset=".91" stop-color="#962527"/></radialGradient><radialGradient id="f" cx="82.53" cy="1942.06" fx="105.628" fy="1906.398" r="52.53" gradientTransform="matrix(.99 0 0 .71 -19.87 -1339.27)" xlink:href="#a"/><radialGradient id="j" cx="789.63" cy="-1098.72" r="37.51" gradientTransform="matrix(.1 -.65 4.36 .4 4789.37 935.49)" gradientUnits="userSpaceOnUse"><stop offset=".28" stop-color="#fff"/><stop offset="1" stop-color="#fff" stop-opacity="0"/></radialGradient><radialGradient id="k" cx="749.75" cy="-957.37" r="29.85" gradientTransform="matrix(.14 -.64 2.58 .34 2478.94 805.89)" xlink:href="#j"/><linearGradient id="g" x1="38.94" y1="28.01" x2="93.65" y2="8.39" gradientUnits="userSpaceOnUse"><stop offset=".04" stop-color="#333"/><stop offset=".12" stop-color="#3a3a3a"/><stop offset=".24" stop-color="#4d4d4d"/><stop offset=".38" stop-color="#6c6c6c"/><stop offset=".55" stop-color="#979797"/><stop offset=".72" stop-color="#cecece"/><stop offset=".85" stop-color="#fff"/></linearGradient><linearGradient id="h" x1="88.91" y1="10.08" x2="75.18" y2="58.58" xlink:href="#g"/><linearGradient id="i" x1="48.85" y1="36.62" x2="25.09" y2="84.98" gradientUnits="userSpaceOnUse"><stop offset=".04" stop-color="#525252"/><stop offset=".13" stop-color="#595959"/><stop offset=".27" stop-color="#6c6c6c"/><stop offset=".43" stop-color="#8b8b8b"/><stop offset=".6" stop-color="#b6b6b6"/><stop offset=".8" stop-color="#ededed"/><stop offset=".85" stop-color="#fff"/></linearGradient><linearGradient id="l" x1="37.82" y1="25.63" x2="76.48" y2="18.18" xlink:href="#g"/><clipPath id="b"><path d="M109.78 35.06c0 19.36-22.09 35.06-49.35 35.06s-49.35-15.7-49.35-35.06S33.17 0 60.43 0s49.35 15.7 49.35 35.06z" fill="none"/></clipPath><clipPath id="e"><path d="M88.76 60.85A12.35 12.35 0 0176 50.89a19.1 19.1 0 01-.16-5.39c.51-6.11 1.65-12.13 2.54-18.19a28.75 28.75 0 00.53-7.31 5.36 5.36 0 00-1.37-3.43 4.57 4.57 0 00-3.92-1.26 18 18 0 00-5.44 1.54 68.82 68.82 0 00-13.51 7.81 88.28 88.28 0 00-10.45 8.66 5.19 5.19 0 01-.45.37l-.16-.15a4.61 4.61 0 01.29-.43 123 123 0 0120.48-18.39 94 94 0 0116.74-9.14c.88-.38 2.79-1.08 3.23-1.24-1.19-.48-2.2-.82-3.45-1.23-.39.14-.78.26-1.1.35A164 164 0 0050 15.47a131.76 131.76 0 00-23.9 15.61 74.25 74.25 0 00-12.68 13.23c-.11.15-.46.66-.63.89 2.41 5.9 7.08 10.93 13.11 15.11.74-1.32 1.5-2.77 2.27-4a128.56 128.56 0 019.93-14.15 71.92 71.92 0 019.25-9.3 75.64 75.64 0 0113-9.31 38.78 38.78 0 015-2.24c2.76-1 1.88 1.15 1.64 1.66-.77 1.61-1.59 3.19-2.38 4.78C62 32.86 59.49 38 57.36 43.31a35.33 35.33 0 00-2.53 8.59c-.42 3.33-.15 6.53 1.87 9.36a11.94 11.94 0 006 4.24 30.19 30.19 0 0013.54 1.19c2.64-.28 5.07-.65 7.86-1.22a26.29 26.29 0 003.56-.86c.25-.32 4.67-.67 13.25-9.43-.4.39-.72.63-1.15 1a17.45 17.45 0 01-11 4.67z" fill="url(#a)"/></clipPath></defs><path fill="none" stroke="#231815" stroke-miterlimit="10" stroke-width="1.699" d="M155.68.17v132.85"/><g clip-path="url(#b)"><path d="M109.79 35.07c0 19.36-22.1 35.06-49.35 35.06s-49.36-15.7-49.36-35.06S33.18 0 60.44 0s49.35 15.71 49.35 35.07z" fill="url(#c)"/><path d="M88.76 60.85A12.35 12.35 0 0176 50.89a19.1 19.1 0 01-.16-5.39c.51-6.11 1.65-12.13 2.54-18.19a28.75 28.75 0 00.53-7.31 5.36 5.36 0 00-1.37-3.43 4.57 4.57 0 00-3.92-1.26 18 18 0 00-5.44 1.54 68.82 68.82 0 00-13.51 7.81 88.28 88.28 0 00-10.45 8.66 5.19 5.19 0 01-.45.37l-.16-.15a4.61 4.61 0 01.29-.43 123 123 0 0120.48-18.39 94 94 0 0116.74-9.14c.88-.38 2.79-1.08 3.23-1.24-1.19-.48-2.2-.82-3.45-1.23-.39.14-.78.26-1.1.35A164 164 0 0050 15.47a131.76 131.76 0 00-23.9 15.61 74.25 74.25 0 00-12.68 13.23c-.11.15-.46.66-.63.89 2.41 5.9 7.08 10.93 13.11 15.11.74-1.32 1.5-2.77 2.27-4a128.56 128.56 0 019.93-14.15 71.92 71.92 0 019.25-9.3 75.64 75.64 0 0113-9.31 38.78 38.78 0 015-2.24c2.76-1 1.88 1.15 1.64 1.66-.77 1.61-1.59 3.19-2.38 4.78C62 32.86 59.49 38 57.36 43.31a35.33 35.33 0 00-2.53 8.59c-.42 3.33-.15 6.53 1.87 9.36a11.94 11.94 0 006 4.24 30.19 30.19 0 0013.54 1.19c2.64-.28 5.07-.65 7.86-1.22a26.29 26.29 0 003.56-.86c.25-.32 4.67-.67 13.25-9.43-.4.39-.72.63-1.15 1a17.45 17.45 0 01-11 4.67z" fill="url(#a)"/><g clip-path="url(#e)"><path d="M109.81 35c0 19.36-22.1 35-49.35 35S11.1 54.38 11.1 35 33.2 0 60.46 0c27.65 0 49.35 15.31 49.35 35z" fill="url(#f)"/></g><path d="M81.14 5.57a93.74 93.74 0 00-16.74 9.14c-7.64 5.21-14.49 11.84-20.49 18.34a1.77 1.77 0 00-.3.45c-.08.18 0 .23.16.15a3.39 3.39 0 00.46-.37c1.67-1.65 3.42-3.19 5.23-4.68 14.37-15.37 33-23.39 34.86-24.25l-.18.06c-.7.26-2.22.82-3 1.16z" fill="url(#g)"/><path d="M84.48 4.28h-.15zm-.1.06z"/><path d="M78.39 27.33c-.88 6.05-2 12.07-2.53 18.18a18.66 18.66 0 00.14 5.38 12.31 12.31 0 008 9.26 13.53 13.53 0 01-7.38-13.55c.52-5.91 1.56-11.9 2.47-17.77a31.39 31.39 0 00.5-7.74 8.58 8.58 0 00-1.77-4.24l-.09-.11A6.1 6.1 0 0178.9 20a28.86 28.86 0 01-.51 7.33z" fill="url(#h)"/><path d="M65.34 21.3a38.78 38.78 0 00-5 2.24 75.32 75.32 0 00-13 9.28 72.16 72.16 0 00-9.25 9.33 129.59 129.59 0 00-9.94 14.12c-.71 1.19-2.26 4-2.26 4l-.19.73s1.56-2.65 2.31-3.89C40 37.3 53.9 28 62.53 23.55c2.47-1.26 3.94-1.55 4.71-1.34.19-.76.06-1.64-1.9-.91z" fill="url(#i)"/><path d="M80.05 3.64A71.7 71.7 0 0058.72.77a65.69 65.69 0 00-16.53 2.4A57.39 57.39 0 0027.7 9.69c-3.14 2.09 6.26 12.78 25.84 3.9a148.6 148.6 0 0119-7C78.17 4.9 81.39 4 80.05 3.64z" fill="url(#j)"/><path d="M96.18 12A47.91 47.91 0 0087 6.41c-1.15-.6-2.82-1.27-4.09-.64a108.07 108.07 0 00-10.31 5.82c-8.57 5.4-7 5.17-.27 3.79a6.22 6.22 0 014.42.48c3.33 2.23 4.84 3.85 3.58 12-1.12 7.31 28.62 10 25.8-3.47-.62-2.92-4.59-8.39-9.95-12.39z" opacity=".6" fill="url(#k)"/><path d="M53.84 25.3s8.74-6 13.8-8a21.31 21.31 0 016-1.78 4.32 4.32 0 013.84 1.31c.75.78.65.41 0-.27a4.55 4.55 0 00-4-1.27A18.77 18.77 0 0068 16.83 69 69 0 0054.18 25c-1.27.93-1.88 1.39-1.9 1.42s.51-.37 1.56-1.12z" fill="url(#l)"/><path d="M67.13 24.25a3.17 3.17 0 00.07-2.92c.36.77-.19 1.57-2.6 6.39-2.57 5.13-4.71 9.43-7.17 15.4a34.18 34.18 0 00-2.58 8.76 18.52 18.52 0 00-.17 3.39c0-.42.07-1.32.14-1.74 1.03-6.59 6.41-17.87 12.31-29.28zm-18.02-7.94c10.35-5.94 19.13-8.9 32.12-13.2-.43-.14 0 .16-.43 0-.38.12-11.58 1.92-31.31 12.55C26 28.35 18.58 37.65 14.29 43.14c5.02-5.27 10.55-12.91 34.82-26.83z" fill="#fff"/></g><path fill="#231815" d="M8.77 124.06H1.98v-6.32H-.51v14.93h2.49v-6.52h6.79v6.52h2.49v-14.93H8.77v6.32zm11.02-3.37a5.94 5.94 0 00-4.57 1.77 6.27 6.27 0 00-1.52 4.39 6.54 6.54 0 001.55 4.49 5.68 5.68 0 004.56 1.89 5.79 5.79 0 004.52-1.75 6.2 6.2 0 001.51-4.38 6.57 6.57 0 00-1.51-4.5 5.64 5.64 0 00-4.54-1.91zm0 10.45a3.06 3.06 0 01-2.63-1.25 5 5 0 01-.85-3c0-2.72 1.15-4.07 3.46-4.07a3 3 0 012.61 1.18 5.09 5.09 0 01.83 3.07q0 4.07-3.4 4.07zm11.9-13.4h-2.5v3.51h-2.25v2.09h2.25v6.92a2.68 2.68 0 001 2.14 3.51 3.51 0 002.34.81 5.43 5.43 0 002.27-.59v-2.2a5.27 5.27 0 01-2.05.7 1.11 1.11 0 01-.73-.26.9.9 0 01-.3-.73v-6.79h3.1v-2.09h-3.1zm18.01 0h2.5v2.34h-2.5zm0 4.41h2.5v10.52h-2.5zm-3.46 8.12v-5.72a3.48 3.48 0 00-1.24-2.72 4.32 4.32 0 00-3-1.1 15.48 15.48 0 00-4.61.68v2.2a11.3 11.3 0 014.16-.79c1.44 0 2.16.69 2.16 2.08v.62h-1a9 9 0 00-5 1.15 3.33 3.33 0 00-1.65 2.92 3.17 3.17 0 001.4 2.68 5.82 5.82 0 003.46 1 9.61 9.61 0 003.68-.72 2.51 2.51 0 002.38.67v-1.87c-.33.01-.7-.24-.74-1.08zm-2.54.35a6.5 6.5 0 01-2.66.55 2.86 2.86 0 01-1.8-.5 1.31 1.31 0 01-.56-1.09 1.47 1.47 0 01.79-1.25 6.28 6.28 0 013.39-.72h.85zm35.2-8.42v-.64h-2.45V133h2.45v-8.58a6.3 6.3 0 013.74-.69v-2a8.86 8.86 0 00-3.74.47zm10.68-1.2a5.94 5.94 0 00-4.58 1.79 6.23 6.23 0 00-1.53 4.39 6.63 6.63 0 001.55 4.5 5.73 5.73 0 004.57 1.88 5.8 5.8 0 004.52-1.75 6.25 6.25 0 001.51-4.38 6.62 6.62 0 00-1.51-4.5 5.64 5.64 0 00-4.53-1.93zm0 10.45a3 3 0 01-2.58-1.23 5 5 0 01-.86-3c0-2.72 1.16-4.07 3.47-4.07a3 3 0 012.58 1.25 5 5 0 01.83 3.07q-.02 4-3.42 4zM68.3 120a18 18 0 015 .89v-2a21.78 21.78 0 00-5-.79 8 8 0 00-5.78 2.25 7.8 7.8 0 000 11.06 8 8 0 005.8 2.18 14.59 14.59 0 001.94-.13 15 15 0 003-.75v-7.79h-5.03V127h3v4.29a9.72 9.72 0 01-2.85.38 5.61 5.61 0 01-5.79-5.79 5.63 5.63 0 011.62-4.12A5.51 5.51 0 0168.3 120zm51.7 2.86a5.6 5.6 0 00-4.29-1.66c-.82 0-5.08.38-5.08.38V136h2.52v-3.3a10.46 10.46 0 002.14.24 6.06 6.06 0 004.5-1.75 5.82 5.82 0 001.7-4.23 5.67 5.67 0 00-1.49-4.1zm-2 7a3.57 3.57 0 01-2.8 1.14 7.19 7.19 0 01-2-.36v-7.28s1.51-.18 2.43-.21a3.06 3.06 0 012.56 1A4.09 4.09 0 01119 127a4.16 4.16 0 01-1 2.84zm-10.23.77v-9h-2.53V131a6.58 6.58 0 01-2.67.55 2.81 2.81 0 01-1.79-.49 1.32 1.32 0 01-.57-1.1v-8.35h-2.58v8.35a3.15 3.15 0 001.37 2.66 5.82 5.82 0 003.46 1 9.89 9.89 0 003.69-.71 2.5 2.5 0 002.38.66v-1.87c-.35.01-.72-.23-.76-1.07zM46.68 99.49H44v10.58c0 .46-.18.68-.57.68h-3v2.14h3.86a2.35 2.35 0 001.72-.68 2.18 2.18 0 00.71-1.67z"/><path fill="#231815" d="M39.55 105.59l-6.44 5.85h4.13l6.15-5.85h-3.84zm11.43 0l6.43 5.85h-4.13l-6.15-5.85h3.85zm8.61-.17a43.9 43.9 0 01-7.33-7h5.8V96.2h-15c.22-.38.49-1.14.82-1.84h12.21v-2.19H44.84a13.42 13.42 0 00.55-1.52h11.86V88.4H46c.1-.3.21-.78.36-1.46v-.1h-2.88v.07a14.86 14.86 0 01-.32 1.49h-9.8v2.25h9.12a9.7 9.7 0 01-.58 1.52h-7.29v2.19h6.24a12.68 12.68 0 01-.93 1.84h-7.36v2.18h5.9a37.12 37.12 0 01-7.17 7l-.2.15h4a23.34 23.34 0 003.31-2.92l1.57 2h3.39l-3.16-4.11a15 15 0 001.45-2.1h7.2c.42.64.92 1.34 1.47 2.08l-3.24 4.13h3.48l1.65-2.06a43.58 43.58 0 003.34 3h4.17zM12.04 93.67H7.28v-3.74l4.26-.6v-2.5L.14 88.4l-.14.02v2.38l4.44-.58v3.45H-.45v2.29h4.89v16.87h2.84V95.96h4.76v-2.29zm12.47-4.27a2.54 2.54 0 00-2-.83h-6a2.87 2.87 0 00-1.94.71 2.39 2.39 0 00-.82 1.88v18.92a2.77 2.77 0 00.73 1.89 2.16 2.16 0 001.65.85h6.46a2.84 2.84 0 001.88-.62 2.15 2.15 0 00.76-1.77V91.57a3.16 3.16 0 00-.72-2.17zm-2.32 1.92v18.73c0 .31-.13.44-.44.44h-4.58c-.33 0-.47-.14-.47-.47V91.43c0-.38.19-.43.38-.43h4.67c.39 0 .44.15.44.32z"/><path d="M1.17 97.18c0 .51-1.13 8.8-1.66 12.87v.19h2.66l1.57-13.06zM12.42 110c-.53-4.07-1.61-12.35-1.65-12.86H8.19l1.58 13h2.68zm76.79-6.39H79.08V102h9.51v-2h-9.52v-1.6h8.86v-2.05h-8.86v-1.49h8.86V92.8h-8.86v-1.42h9.44v-2.12h-9.27a21.22 21.22 0 01-1-2.37h-2.8v.08c.23.78.55 1.57.86 2.33h-5.07A20.55 20.55 0 0073 87l.06-.1h-3.48a24.51 24.51 0 01-5.67 5.52l-.16.11h3.2v6.84a2.84 2.84 0 00.61 1.8 2.26 2.26 0 001.63.89h7v1.57H64.62v2.09h11.6v7.15h2.86v-7.17h10.13zm-13-3.66h-5.74a.72.72 0 01-.65-.68v-.87h6.39zm0-3.6h-6.39v-1.49h6.39zm0-3.55h-6.39v-1.42h6.39z" fill="#231815"/><path fill="#231815" d="M65.41 112.56h4.12l5.7-5.45h-3.84l-5.98 5.45zm18.31-5.45h-3.84l6 5.73h4.13l-6.29-5.73zm30.8-3.68h-2.68v.92H99.73v1.82h12.11v1.61a.56.56 0 01-.59.62H109l.75 1.84h2.54a2 2 0 001.68-.74 2.61 2.61 0 00.49-1.58v-1.79h3.19v-1.82h-3.19z"/><path d="M120.61 87.85a2.78 2.78 0 00-2.16-.8h-19.7a2.74 2.74 0 00-1.83.67 2.53 2.53 0 00-.85 1.84v20.26a2.9 2.9 0 00.67 2 2.69 2.69 0 002.07.91h19.79a2.83 2.83 0 002.16-.91 2.45 2.45 0 00.61-1.59V90.09a3.12 3.12 0 00-.76-2.24zm-2 22.12a.73.73 0 01-.71.77H99.52a.86.86 0 01-.8-.86V89.82a1 1 0 01.92-.86h18.25a.77.77 0 01.77.83z" fill="#231815"/><path fill="#231815" d="M103.28 106.88l1.19 2.93h3.09l-1.19-2.93h-3.09zm4.19-13.42h-4.38a2.4 2.4 0 00-1.67.64 2.23 2.23 0 00-.71 1.63v2.08a2.18 2.18 0 00.77 1.77 2.61 2.61 0 001.79.61h4.2v1l-7.7.3.06 1.82 15.62-.6.11.69h2.14l-.58-3.57h-1.47a1.38 1.38 0 00.35-.22 2 2 0 00.7-1.64v-1.89a2.71 2.71 0 00-.61-1.76 2.39 2.39 0 00-1.86-.86h-4.17v-.86h7.56v-1.82h-7.56v-1.16h-2.59v1.16h-7.71v1.82h7.71zm-4.16 2.2a.5.5 0 01.56-.48h3.6v.87h-4.16zm.5 2.77a.52.52 0 01-.5-.54v-.32h4.16v.86zm6.25-3.25h3.48c.43 0 .59.21.59.42v.45h-4.07zm0 2.39h4.07V98c0 .28-.2.44-.53.44h-3.54zm4.15 2.62a3.94 3.94 0 00.81-.09l.13.85-5.09.2v-1zm357.69-72h24.11v5.7H471.9z"/><path d="M496.35 16h-24.79s-3 7-11.83 13.25v7c11.3-5.81 16.09-14.19 16.09-14.19h16.29s4.78 8.38 16.1 14.19v-7C499.36 23 496.35 16 496.35 16zM462 60.1h20V37.64h-20zm6.36-16.74h7.21v11h-7.17zM486 60.1h19.93V37.64H486zm6.35-16.74h7.19v11h-7.24zm-18.7 25.17a27.68 27.68 0 00.79-6.7h-6.29c0 11.25-8.08 13.63-8.08 13.63v6.21a16.68 16.68 0 0011-7.06 92 92 0 0110.13 7.06v-7.33a44.25 44.25 0 00-7.55-5.81zm25.24-6.7h-6.28c0 11.25-8.09 13.63-8.09 13.63v6.21a16.67 16.67 0 0010.93-7 134.09 134.09 0 0112.39 7v-7.33a65.46 65.46 0 00-9.69-6 27.42 27.42 0 00.74-6.51z" fill="#231815"/><path d="M460.26 59.93c1.58-5.39-2-12.9-5.81-19.42 0 0 5.2-7.84 5.2-24.47h-22v65.63h6.59v-12c.25-.07 13.76-2 16.02-9.74zm-6.47-1.72c-1.54 3.41-9.31 4.57-9.59 4.61v-40.5h8.41c0 10.35-6.11 18.28-6.11 18.28 3.77 5.76 9.2 13.4 7.29 17.61zM229 17.86V77.8h34.14v-60zm27.56 54h-20.67V23.65h20.66zm-43.28-32.98h11.66v-5.65h-12.3V21.84a82.59 82.59 0 0011.36-2.7v-5.66c-9.73 3.08-28.05 5.3-31.8 5.3v5.39a134.18 134.18 0 0013.54-1.33v10.39h-16.1v5.65h15.57a54.15 54.15 0 01-15.57 23.77v8.78c6-4.77 12.51-12 16.13-19.41v29.31h6.87V49.76c2.77 4.75 7.79 9.3 12.3 12.18v-7.77c-2.94-1.85-9.32-7.99-11.66-15.29zm100.26 9.61h-6.68V76h-10.51v5.34h12.71a4.54 4.54 0 004.48-4.34v-9.48c9.45 5.53 24.42 11.36 30.32 12v-5.7c-3.78-.53-19.54-6-30.32-12.59z" fill="#231815"/><path d="M301.74 60.66v-6.22a61.61 61.61 0 00-7.62-3 48.56 48.56 0 004.79-5.44h22.57a42.9 42.9 0 005 5.78A58.61 58.61 0 01318 54.8v5.77a62.86 62.86 0 0013.2-4.77 75.11 75.11 0 0014.6 8.6v-6.78A46.44 46.44 0 01329.58 46h15.63v-5.71h-19.82a30.5 30.5 0 01-2.82-5.79h18.61v-5.64h-33.39a51.34 51.34 0 001.57-5.28h34.69v-5.66h-33.48c.23-1.46.48-2.94.63-4.42h-7.07c-.25 1.45-.54 2.94-.83 4.44h-29.16v5.66h27.79c-.52 1.74-1 3.52-1.63 5.28H278v5.62h20.13a63 63 0 01-3.13 5.79h-20.86V46h16.71a43.93 43.93 0 01-18.54 12.47v6.27a59.37 59.37 0 0017.18-9.19 84.93 84.93 0 0112.25 5.11zm3.88-26.16h9.72a49.44 49.44 0 002.54 5.79h-15.2a62.86 62.86 0 002.94-5.79z" fill="#231815"/><path d="M303.4 63.47c-4.19 2.43-21.14 8.37-27.81 9.71V79a128.16 128.16 0 0027.81-9.3zm121.75-17.25v-5.83h-63.89v5.83c0 14.5-1.33 18.94-7.23 26.65v8.58c11.49-9.29 14.08-19.88 13.63-35.23zM381.56 31a124.45 124.45 0 01-18.22 1.5v5.57a121.07 121.07 0 0029.28-3.52 121.13 121.13 0 0029.28 3.52v-5.58A124.32 124.32 0 01403.69 31a56 56 0 0013.06-7.16h10.12V18h-30.94v-4.41h-6.62V18h-30.94v5.81h10.12A55.83 55.83 0 00381.56 31zm11.06-2.27a57.71 57.71 0 01-12.87-4.89h25.74a57.52 57.52 0 01-12.87 4.88z" fill="#231815"/><path d="M401.89 75.59v-5.9h18.41v-5.87h-18.41v-5.27H423v-5.86h-21.11v-5h-6.61v5h-14.1a27.22 27.22 0 00.47-5h-6.53c0 5.25-1.51 10.46-6.33 13.92v7.12a22 22 0 0010.45-10.22h16v5.27h-18v5.87h18v5.9h-26.69v5.86h59v-5.82zm-208.11 29.26h13.78V93.98h3.78v25.24h-3.78v-11.01h-13.78v11.01h-3.79V93.98h3.79v10.87zm35.15-11.17a13.34 13.34 0 019.64 3.65 13.19 13.19 0 010 18.56 13.57 13.57 0 01-9.79 3.63 13 13 0 01-9.47-3.68 12.45 12.45 0 01-3.78-9.26 12.3 12.3 0 013.8-9.25 13.33 13.33 0 019.63-3.65m0 3.59a9.45 9.45 0 00-6.96 2.57 10 10 0 000 13.5 9.2 9.2 0 006.78 2.59 9.66 9.66 0 007-2.57 9.85 9.85 0 000-13.49 9.49 9.49 0 00-6.9-2.6m13.95-3.29h20.92v3.37h-8.55v21.87h-3.79V97.35h-8.58v-3.37zm35.46 17.82H268l-3.14 7.42H261L271.62 94h2.76l11.13 25.24h-3.94zm-1.49-3.36L273 99.7l-3.55 8.74zm11.24-14.46h3.78v25.24h-3.78zm23.44 0h3.78v25.24h-3.78zm28.95 0h3.78v25.24h-3.29l-16.35-19.33v19.33h-3.79V93.98h3.45l16.2 19.23V93.98zM362 95.34v4.39a8.54 8.54 0 00-5.88-2.65 4.39 4.39 0 00-2.66.84 2.44 2.44 0 00-1.11 2 3 3 0 00.93 2.13 16.6 16.6 0 003.41 2.34 18.18 18.18 0 015.1 3.86 6.78 6.78 0 011.39 4.34 6.58 6.58 0 01-2.07 5 7.49 7.49 0 01-5.32 1.92 10.89 10.89 0 01-6.62-2.38v-4.68a15.35 15.35 0 003.36 2.81 6.44 6.44 0 003.19.81 4.23 4.23 0 002.83-.89 3 3 0 001.06-2.37 3.82 3.82 0 00-1.59-2.9 34.58 34.58 0 00-3.8-2.45 14.37 14.37 0 01-4.22-3.36 6 6 0 01-1.24-3.77 6.14 6.14 0 012.12-4.76 7.83 7.83 0 015.37-1.89 11.49 11.49 0 015.75 1.66m5.1-1.34h3.79v15.48a9.28 9.28 0 00.37 3 5 5 0 001.44 2 8.45 8.45 0 0010.19 0 5 5 0 001.44-2 9.58 9.58 0 00.37-3V94h3.79v15.48c0 3.31-1 5.78-2.92 7.41a12.73 12.73 0 01-15.55 0q-2.92-2.45-2.92-7.41zm26.41 0h6.21a9.93 9.93 0 015.22 1.21 6.46 6.46 0 013.15 5.9 5.87 5.87 0 01-4.06 6 11.54 11.54 0 012.68 2.75c.88 1.25 2.3 3.5 4.25 6.78a23.73 23.73 0 001.85 2.57h-4.38l-.63-1c-.28-.46-.95-1.5-2-3.15-2-3.17-3.43-5.12-4.31-5.83a6.36 6.36 0 00-4.2-1.05v11h-3.79zm3.79 10.87h2.12c3.17 0 4.77-1.26 4.77-3.76a3.46 3.46 0 00-1.19-2.76 4.72 4.72 0 00-3.19-1h-2.51z" fill="#231815"/><path d="M429.92 111.8h-10.34l-3.12 7.42h-3.83L423.26 94H426l11.13 25.24h-3.94zm-1.49-3.36l-3.82-8.74-3.55 8.74zm30.9-14.46h3.78v25.24h-3.29l-16.35-19.33v19.33h-3.79V93.98h3.45l16.2 19.23V93.98zm30.19 1.81v4c-3.33-1.83-6.2-2.76-8.59-2.76a9.16 9.16 0 00-7.52 3.41 9.6 9.6 0 00-2.24 6.24 9.06 9.06 0 002.72 6.72 9.4 9.4 0 006.85 2.67 17.64 17.64 0 009-2.87v3.89a18.54 18.54 0 01-9.34 2.38 12.93 12.93 0 01-9.41-3.67 13 13 0 01.16-18.46 13.66 13.66 0 019.85-3.66 20.48 20.48 0 018.55 2.11m3.98-1.81h14.19v3.37h-10.41v7.5h10.04v3.36h-10.04v7.64h10.75v3.37h-14.53V93.98z" fill="#231815"/></svg>