<svg width="63" height="65" viewBox="0 0 63 65" fill="none" xmlns="http://www.w3.org/2000/svg"><g clip-path="url(#clip0_3_7)"><path fill-rule="evenodd" clip-rule="evenodd" d="M62.263 32.558c0-3.784-2.029-7.369-5.679-10.357.507-4.679-.71-8.563-3.448-11.252s-6.693-3.784-11.459-3.385c-3.042-3.586-6.693-5.577-10.546-5.577-3.854 0-7.505 1.991-10.547 5.577-4.766-.498-8.721.696-11.458 3.385-2.739 2.689-3.854 6.573-3.448 11.252-3.651 2.988-5.679 6.573-5.679 10.357 0 3.784 2.028 7.369 5.679 10.357-.507 4.679.709 8.563 3.448 11.252 3.042 2.987 7.199 3.784 11.458 3.385 3.042 3.585 6.693 5.577 10.547 5.577 3.853 0 7.504-1.992 10.546-5.577 5.273.498 9.025-.996 11.459-3.385 2.738-2.689 3.854-6.573 3.448-11.252 3.65-2.988 5.679-6.573 5.679-10.357zM51.311 12.841c1.825 1.793 2.839 4.481 2.738 7.668-2.231-1.394-4.665-2.49-7.2-3.287a30.249 30.249 0 00-3.346-7.07c.101 0 6.185.996 7.808 2.689zm.507 16.929c-.913-1.494-1.927-2.988-3.043-4.382-.202-1.792-.608-3.485-1.013-5.178a26.4 26.4 0 015.982 3.187c-.304 2.19-1.014 4.381-1.926 6.373zm2.028 11.949c-1.825 1.294-3.955 2.29-5.983 3.187.406-1.693.811-3.386 1.014-5.178a42.801 42.801 0 003.042-4.382c.811 1.992 1.521 4.183 1.927 6.373zM40.562 54.764a28.753 28.753 0 01-6.491-1.992 43.002 43.002 0 004.463-2.987c1.825-.2 3.549-.597 5.273-.996-.811 2.092-1.927 4.183-3.245 5.975zm-21.904-5.975c1.724.399 3.448.796 5.273.996 1.419 1.096 2.941 2.092 4.462 2.987a28.745 28.745 0 01-6.49 1.992c-1.319-1.792-2.434-3.883-3.245-5.975zm-8.012-13.443a42.811 42.811 0 003.043 4.382c.203 1.792.608 3.485 1.014 5.178a26.447 26.447 0 01-5.983-3.187c.304-2.19 1.014-4.381 1.926-6.373zM8.618 23.397c1.826-1.295 3.956-2.291 5.983-3.187-.405 1.693-.811 3.386-1.014 5.178a42.583 42.583 0 00-3.042 4.382c-.811-1.992-1.521-4.183-1.927-6.373zm13.285-13.045a28.743 28.743 0 016.49 1.991c-1.521.896-3.043 1.892-4.462 2.988-1.825.199-3.549.597-5.273.996.811-2.092 1.926-4.183 3.245-5.975zm21.904 5.975c-1.724-.399-3.448-.797-5.273-.996a43.172 43.172 0 00-4.463-2.988c2.13-.896 4.26-1.594 6.491-1.991 1.318 1.792 2.434 3.883 3.245 5.975zm2.535 22.405c-1.826 2.29-3.854 4.381-6.085 6.372v-4.979c0-3.385-1.926-6.372-4.867-7.866a6.16 6.16 0 002.231-4.779c0-3.486-2.941-6.374-6.49-6.374-3.55 0-6.49 2.888-6.49 6.374 0 1.891.912 3.683 2.231 4.779-2.84 1.494-4.868 4.481-4.868 7.866v4.979c-2.231-1.991-4.259-4.181-6.084-6.372-.508-3.983-.508-8.265 0-12.348a51.418 51.418 0 018.822-8.664c4.056-.498 8.417-.498 12.575 0a51.418 51.418 0 018.822 8.664c.71 4.083.71 8.264.203 12.348zm-21.6 8.563v-7.069c0-3.486 2.941-6.374 6.49-6.374 3.55 0 6.49 2.888 6.49 6.374v7.069c-.101.101-.101.101-.203.2a53.1 53.1 0 01-12.574 0c0-.099-.101-.2-.203-.2zm2.637-19.815c0-2.092 1.724-3.785 3.853-3.785 2.13 0 3.853 1.693 3.853 3.785 0 2.091-1.723 3.783-3.853 3.783-2.129 0-3.853-1.692-3.853-3.783zm15.211-8.863c.811.199 1.521.398 2.332.597.203.697.406 1.493.609 2.291-1.015-.996-1.927-1.991-2.941-2.888zm-9.33-3.784c-1.318 0-2.636-.1-4.157 0 .709-.399 1.318-.796 2.028-1.195.811.399 1.521.796 2.129 1.195zm-13.385 3.784a39.692 39.692 0 00-2.941 2.888c.202-.798.405-1.494.608-2.291a76.38 76.38 0 002.333-.597zm-6.694 11.949c0 1.295-.101 2.589 0 4.082-.405-.696-.811-1.294-1.216-1.991.405-.796.811-1.494 1.216-2.091zm3.854 13.145a39.81 39.81 0 002.941 2.887c-.811-.198-1.521-.398-2.333-.597a70.899 70.899 0 00-.608-2.29zm12.169 6.572c1.42.1 2.738.1 4.158 0-.71.398-1.318.796-2.028 1.195a20.054 20.054 0 01-2.13-1.195zm13.386-3.784a40.084 40.084 0 002.941-2.888c-.203.797-.406 1.493-.609 2.291-.811.199-1.623.398-2.332.597zm6.692-11.95a27.265 27.265 0 000-4.082c.406.696.812 1.295 1.217 1.992a19.268 19.268 0 01-1.217 2.09zM38.736 8.161a35.53 35.53 0 00-7.504 2.689c-2.332-1.196-4.867-2.092-7.504-2.689 4.665-4.58 10.242-4.78 15.008 0zm-19.774 1.991a30.209 30.209 0 00-3.346 7.07c-2.536.797-4.97 1.893-7.2 3.287-.102-6.373 3.752-10.456 10.546-10.357zM6.387 25.189a34.195 34.195 0 002.739 7.369c-1.217 2.29-2.13 4.78-2.739 7.369-4.664-4.581-4.867-10.058 0-14.738zm2.029 19.417c2.23 1.395 4.664 2.49 7.2 3.288a30.202 30.202 0 003.346 7.069c-6.592.099-10.648-3.684-10.546-10.357zm15.312 12.349c2.637-.597 5.07-1.494 7.504-2.689 2.332 1.195 4.868 2.092 7.504 2.689-4.665 4.58-10.242 4.78-15.008 0zm19.775-1.992a30.242 30.242 0 003.346-7.069c2.535-.798 4.969-1.893 7.2-3.288.101 6.473-3.752 10.456-10.546 10.357zm9.836-22.405a34.191 34.191 0 002.738-7.369c4.766 4.481 4.867 10.057 0 14.638-.609-2.489-1.521-4.879-2.738-7.269z" fill="#724444"/></g><defs><clipPath id="clip0_3_7"><path fill="#fff" d="M0 0h63v65H0z"/></clipPath></defs></svg>