<svg width="55" height="65" viewBox="0 0 55 65" fill="none" xmlns="http://www.w3.org/2000/svg"><g clip-path="url(#clip0_3_2)"><path fill-rule="evenodd" clip-rule="evenodd" d="M54.645 35.717a1.01 1.01 0 01-.979.734c-.088 0-.176-.011-.263-.034l-4.836-1.264a.987.987 0 01-.717-1.212 1.019 1.019 0 011.242-.7l4.835 1.264a.987.987 0 01.718 1.212zm-1.348-15.305l-4.704 1.67a1.05 1.05 0 01-.347.059c-.415 0-.803-.249-.954-.651a.984.984 0 01.607-1.269l4.704-1.67c.526-.184 1.109.077 1.301.591a.986.986 0 01-.607 1.27zM38.132 44.83a4.298 4.298 0 00-1.971 3.642v.569c1.552.573 2.663 2.026 2.663 3.739a3.961 3.961 0 01-1.407 3.021 3.958 3.958 0 011.407 3.017c0 2.214-1.842 4.012-4.107 4.012H19.95c-2.265 0-4.108-1.798-4.108-4.008 0-1.204.546-2.285 1.408-3.021a3.959 3.959 0 01-1.408-3.017c0-1.716 1.112-3.17 2.664-3.743v-.52c0-1.52-.735-2.899-1.967-3.689C10.26 40.808 6.908 33.765 7.79 26.45c1.054-8.743 8.332-15.79 17.304-16.758 5.683-.618 11.142 1.081 15.367 4.773 4.167 3.641 6.557 8.857 6.557 14.311 0 6.484-3.322 12.486-8.886 16.054zm-20.26 7.95c0 1.122.932 2.031 2.078 2.031h4.06c.561 0 1.015.443 1.015.99 0 .547-.454.99-1.015.99h-4.06c-1.146 0-2.078.91-2.078 2.027 0 1.122.932 2.032 2.078 2.032h14.767c1.146 0 2.078-.91 2.078-2.028 0-1.121-.932-2.031-2.078-2.031h-4.619c-.56 0-1.014-.443-1.014-.99 0-.547.454-.99 1.014-.99h4.619c1.146 0 2.078-.909 2.078-2.027 0-1.122-.932-2.031-2.078-2.031H19.95c-1.146 0-2.078.909-2.078 2.027zm21.235-36.84c-3.789-3.311-8.685-4.828-13.79-4.28-8.043.867-14.567 7.184-15.512 15.022-.792 6.565 2.215 12.886 7.848 16.495 1.805 1.158 2.882 3.156 2.882 5.344v.252h13.597v-.301a6.26 6.26 0 012.885-5.297c4.992-3.201 7.971-8.583 7.971-14.399 0-4.892-2.143-9.571-5.881-12.836zm-5.747 26.8c-.138.42-.537.687-.966.687-.103 0-.207-.016-.311-.048a.985.985 0 01-.655-1.245l4.486-13.604-1.79.479c-.28.075-.582.029-.825-.127l-2.653-1.7-2.77 1.709a1.038 1.038 0 01-1.085 0l-2.77-1.709-2.653 1.7a1.035 1.035 0 01-.825.127l-1.791-.479 4.487 13.604a.985.985 0 01-.655 1.245c-.534.166-1.106-.118-1.277-.639l-5.061-15.344a.975.975 0 01.233-.988 1.038 1.038 0 011.001-.27l3.157.843 2.816-1.805a1.04 1.04 0 011.1-.009l2.78 1.716 2.781-1.716a1.037 1.037 0 011.099.009l2.817 1.805 3.157-.843c.36-.094.744.008 1.001.27a.973.973 0 01.232.988L33.36 42.74zm7.569-31.381a1.02 1.02 0 01-.832.422c-.2 0-.404-.058-.581-.179a.975.975 0 01-.249-1.379l2.871-4a1.032 1.032 0 011.414-.243c.459.314.57.931.249 1.379l-2.872 4zM27.333 7.855c-.56 0-1.014-.444-1.014-.99V1.981c0-.546.454-.99 1.014-.99.561 0 1.015.444 1.015.99v4.884c0 .546-.454.99-1.015.99zm-12.182 3.747a1.03 1.03 0 01-1.413-.243l-2.872-4a.975.975 0 01.249-1.379 1.031 1.031 0 011.414.243l2.871 4a.975.975 0 01-.249 1.379zm-8.73 10.539a1.05 1.05 0 01-.347-.059l-4.704-1.67a.986.986 0 01-.607-1.27 1.026 1.026 0 011.301-.591l4.704 1.67a.984.984 0 01.606 1.269c-.15.402-.539.651-.953.651zm-.846 11.1a1.018 1.018 0 011.242.7.987.987 0 01-.718 1.212l-4.835 1.264a1.032 1.032 0 01-.263.034 1.01 1.01 0 01-.979-.734.987.987 0 01.718-1.212l4.835-1.264z" fill="#724444" stroke="#724444" stroke-width=".5"/></g><defs><clipPath id="clip0_3_2"><path fill="#724444" d="M0 0h55v65H0z"/></clipPath></defs></svg>