<svg width="51" height="65" viewBox="0 0 51 65" fill="none" xmlns="http://www.w3.org/2000/svg"><g clip-path="url(#clip0_3_9)"><path fill-rule="evenodd" clip-rule="evenodd" d="M49.631 49.268l-.45 1.235a15.72 15.72 0 00-.97 5.423v7.534c0 .54-.517.978-1.154.978h-20.78c-.637 0-1.153-.438-1.153-.978v-8.609c0-.943-.417-1.843-1.175-2.533l-3.61-3.29c-1.739-1.583-2.696-3.648-2.696-5.811V33.66c0-2.227 1.96-4.115 4.46-4.3a5.611 5.611 0 013.021.613v-6.776c0-1.752 1.401-3.234 3.332-3.524a4.781 4.781 0 012.576.322c.186-.744.66-1.42 1.362-1.92.922-.656 2.14-.929 3.34-.752 1.613.241 2.856 1.314 3.222 2.682a4.772 4.772 0 012.597-.332c1.931.29 3.333 1.772 3.333 3.524v1.931a4.788 4.788 0 012.485-.284c1.932.29 3.333 1.771 3.333 3.524v14.897a17.42 17.42 0 01-1.073 6.003zm-1.233-20.9c0-.789-.614-1.475-1.427-1.597-.536-.08-1.052.035-1.457.323-.399.284-.628.701-.628 1.142v6.258c0 .54-.517.978-1.154.978-.637 0-1.153-.438-1.153-.978V23.197c0-.789-.613-1.475-1.427-1.597-.533-.076-1.05.035-1.456.323-.399.284-.629.701-.629 1.143v11.428c0 .54-.516.978-1.153.978s-1.153-.438-1.153-.978V20.847c0-.789-.614-1.476-1.427-1.596-.534-.08-1.052.034-1.457.322-.399.284-.628.7-.628 1.142v13.72c0 .541-.516.978-1.153.978s-1.154-.437-1.154-.978V23.066c0-.442-.229-.859-.628-1.143-.404-.288-.92-.403-1.457-.322-.814.121-1.427.807-1.427 1.596v19.876c0 .541-.516.979-1.153.979s-1.153-.438-1.153-.979v-9.578c0-.622-.299-1.197-.839-1.618-.542-.421-1.247-.62-1.983-.568-1.319.098-2.353 1.13-2.353 2.351v9.557c0 1.668.738 3.258 2.077 4.478l3.611 3.291c1.156 1.053 1.793 2.426 1.793 3.865v7.631h18.474v-6.556c0-2.037.361-4.057 1.073-6.003l.451-1.234a15.73 15.73 0 00.97-5.424V28.368zM34.311 11.924c-.205.338-.609.532-1.027.532-.178 0-.358-.035-.526-.109-.567-.247-.79-.836-.499-1.317l4.387-7.239c.291-.481.986-.672 1.552-.423.567.247.79.836.5 1.317l-4.387 7.239zm-8.034.532c-.637 0-1.153-.439-1.153-.979V1.401c0-.54.516-.978 1.153-.978s1.153.438 1.153.978v10.076c0 .54-.516.979-1.153.979zm-.797 5.691c-.102.533-.693.897-1.324.808-.529-.072-1.04.045-1.439.333-.394.285-.62.698-.62 1.136v5.564c0 .54-.516.978-1.153.978s-1.153-.438-1.153-.978v-7.783c0-.789-.614-1.475-1.428-1.596a1.978 1.978 0 00-1.456.322c-.399.285-.628.701-.628 1.143v12.937c0 .541-.517.979-1.153.979-.637 0-1.154-.438-1.154-.979V20.424c0-.442-.228-.858-.628-1.142-.404-.288-.923-.403-1.457-.322-.814.12-1.427.807-1.427 1.596v19.875c0 .541-.516.979-1.153.979s-1.153-.438-1.153-.979v-9.577c0-.623-.299-1.197-.84-1.618-.54-.421-1.246-.618-1.982-.569-1.319.099-2.353 1.131-2.353 2.352v9.557c0 1.667.738 3.258 2.077 4.478l3.611 3.289c1.156 1.054 1.793 2.427 1.793 3.867v7.631h10.666c.637 0 1.153.437 1.153.978 0 .54-.516.978-1.153.978H9.307c-.637 0-1.153-.438-1.153-.978V52.21c0-.944-.418-1.844-1.175-2.534l-3.61-3.29C1.63 44.803.672 42.74.672 40.576v-9.557c0-2.227 1.958-4.115 4.46-4.3a5.624 5.624 0 013.021.612v-6.775c0-1.753 1.401-3.235 3.333-3.524a4.757 4.757 0 012.575.322c.186-.745.661-1.422 1.363-1.921.923-.657 2.143-.929 3.34-.752 1.611.242 2.855 1.315 3.221 2.682a4.723 4.723 0 012.541-.339c.628.087 1.055.59.953 1.123zm-5.44-5.8a1.309 1.309 0 01-.527.109c-.419 0-.822-.194-1.027-.532L14.1 4.685c-.29-.481-.068-1.07.5-1.317.563-.249 1.26-.058 1.551.423l4.387 7.239c.291.481.068 1.07-.499 1.317z" fill="#fff" stroke="#fff" stroke-width=".5"/></g><defs><clipPath id="clip0_3_9"><path fill="#fff" d="M0 0h51v65H0z"/></clipPath></defs></svg>