<svg xmlns="http://www.w3.org/2000/svg" viewBox="0 0 512 485"><g fill="none" stroke="#a36361" stroke-width="20" stroke-linecap="round" stroke-linejoin="round" stroke-miterlimit="10"><path d="M332.7 284.664h115.11c5.52 0 10 4.48 10 10v21.54c0 5.52-4.48 10-10 10H336.17m-100.68 0H20c-5.52 0-10-4.48-10-10v-21.54c0-5.52 4.48-10 10-10h218.95m1.9 187.66H48.87c-11.04 0-20-8.95-20-20v-123.12m410.07 0v123.12c0 11.05-8.96 20-20 20h-86.97"/><circle cx="286.328" cy="309.77" r="50.577"/><path d="M208.657 470.622v-56.491c0-29.704 24.08-53.785 53.785-53.785h47.773c29.704 0 53.785 24.08 53.785 53.785v56.491"/><circle cx="150.352" cy="147.758" r="53.625"/><path d="M68 283.666v-25.257c0-31.494 25.531-57.026 57.026-57.026h50.652c31.494 0 57.026 25.531 57.026 57.026v26.257M478.138 39.672H310.191c-13.179 0-23.862 10.684-23.862 23.862v141.24c0 5.401 6.53 8.106 10.349 4.287l30.386-30.386h151.074c13.179 0 23.862-10.684 23.862-23.862V63.535c0-13.179-10.684-23.863-23.862-23.863zm-29.763 47.765H339.953m108.422 41.534H339.953m-53.625 343.357h0"/></g></svg>