<svg xmlns="http://www.w3.org/2000/svg" width="20" height="21"><path fill-rule="evenodd" fill="#FFF" d="M12.461 8.987c1.684-1.865 3.248-3.852 4.495-6.043-2.168 1.262-4.133 2.845-5.977 4.551-.112-2.526-.395-5.05-1.046-7.493C9.283 2.445 9 4.969 8.888 7.495 7.043 5.789 5.078 4.206 2.91 2.944 4.158 5.137 5.723 7.125 7.409 8.99c-2.496.114-4.993.4-7.407 1.058 2.413.657 4.907.943 7.402 1.057-1.395 1.548-2.699 3.184-3.834 4.938-.23.359-.455.725-.66 1.109.381-.207.742-.434 1.097-.667 1.732-1.147 3.348-2.465 4.877-3.875.096 2.091.318 4.179.74 6.229.089.418.185.837.309 1.255.124-.418.221-.837.309-1.255.423-2.05.645-4.138.74-6.229 1.529 1.41 3.146 2.728 4.878 3.875.355.233.716.46 1.096.667-.205-.384-.429-.75-.659-1.109-1.134-1.752-2.437-3.387-3.831-4.934 2.067-.097 4.131-.32 6.157-.749a15.24 15.24 0 001.242-.312 15.671 15.671 0 00-1.242-.313c-2.027-.428-4.094-.652-6.162-.748z"/></svg>