<svg xmlns="http://www.w3.org/2000/svg" width="70" height="70" viewBox="0 0 70 70"><path d="M35 0a35 35 0 1035 35A35 35 0 0035 0zm18.63 43.54c-5 5.76-16.2 12.77-18.74 13.85s-2.17-.69-2.07-1.29l.34-2a4.93 4.93 0 00-.08-2.16c-.26-.66-1.32-1-2.1-1.17-11.46-1.52-20-9.53-20-19.1C11 21 21.74 12.27 34.89 12.27S58.74 21 58.74 31.63c0 4.27-1.66 8.12-5.11 11.91z" fill="#752e0b"/><rect x="27.9" y="26.47" width="2.6" height="11.32" rx=".46" fill="#752e0b"/><path d="M41.56 26.47h-1.68a.47.47 0 00-.46.47v6.17l-4.76-6.43v-.05H32.6a.47.47 0 00-.47.47v10.23a.47.47 0 00.47.46h1.67a.46.46 0 00.46-.46v-6.17l4.77 6.44a.63.63 0 00.12.11h1.91a.47.47 0 00.46-.46V26.94a.47.47 0 00-.43-.47zM26 35.19h-4.54v-8.25a.47.47 0 00-.46-.47h-1.68a.47.47 0 00-.46.47v10.39a.46.46 0 00.13.32.48.48 0 00.32.13H26a.47.47 0 00.46-.46v-1.67a.47.47 0 00-.46-.46zm24.79-8.72h-6.68a.46.46 0 00-.32.13.44.44 0 00-.13.32v10.41a.46.46 0 00.13.32.46.46 0 00.32.13h6.68a.47.47 0 00.47-.46v-1.67a.47.47 0 00-.47-.46h-4.54v-1.76h4.54a.46.46 0 00.47-.46V31.3a.47.47 0 00-.47-.47h-4.54v-1.76h4.54a.46.46 0 00.47-.46v-1.67a.47.47 0 00-.47-.47z" fill="#752e0b"/></svg>