<svg xmlns="http://www.w3.org/2000/svg" width="70" height="70" viewBox="0 0 70 70"><path d="M35 0a35 35 0 1035 35A35 35 0 0035 0zm0 56.7a25.06 25.06 0 01-6.68-.88 1.83 1.83 0 00-1.24.09l-4.58 2a1.84 1.84 0 01-2.59-1.63l-.13-4.11a1.82 1.82 0 00-.62-1.32 21.89 21.89 0 01-7.25-16.56C11.91 21.44 22 11.91 35 11.91s23.09 9.53 23.09 22.4S48 56.7 35 56.7z" fill="#752e0b" fill-rule="evenodd"/><path d="M47.27 27.68L40 33.21a1.38 1.38 0 01-1.67 0l-5.39-4a3.46 3.46 0 00-5 .93l-6.81 10.72a1.1 1.1 0 001.6 1.46L30 36.79a1.38 1.38 0 011.67 0l5.39 4a3.46 3.46 0 005-.93l6.79-10.76a1.1 1.1 0 00-1.58-1.42z" fill="#752e0b" fill-rule="evenodd"/></svg>