<svg xmlns="http://www.w3.org/2000/svg" width="100" height="100.7" viewBox="0 0 100 100.7"><g stroke-linecap="round" stroke-linejoin="round"><path d="M49.975 100.2c-6.012 0-11.842-1.176-17.326-3.497a44.28 44.28 0 01-14.135-9.537A44.326 44.326 0 018.99 73.02 44.286 44.286 0 015.5 55.7a44.286 44.286 0 013.49-17.32 44.326 44.326 0 019.524-14.146 44.28 44.28 0 0114.135-9.537 44.229 44.229 0 0117.326-3.498 44.275 44.275 0 0117.335 3.498 44.37 44.37 0 0114.153 9.537 44.347 44.347 0 019.54 14.145A44.207 44.207 0 0194.5 55.7a44.207 44.207 0 01-3.497 17.32 44.348 44.348 0 01-9.54 14.146 44.37 44.37 0 01-14.153 9.537 44.275 44.275 0 01-17.335 3.497zm.025-80a35.392 35.392 0 00-25.1 10.4 35.392 35.392 0 00-7.609 11.284 35.265 35.265 0 00-2.79 13.816 35.392 35.392 0 0010.4 25.1A35.392 35.392 0 0050 91.2a35.3 35.3 0 0013.826-2.79A35.358 35.358 0 0075.11 80.8a35.37 35.37 0 007.603-11.284A35.298 35.298 0 0085.5 55.7a35.392 35.392 0 00-10.4-25.1 35.392 35.392 0 00-11.283-7.609A35.265 35.265 0 0050 20.201zm18.558 54.09L45.5 60.419V31.2H52v26.035l.245.146L71.81 68.972l-3.251 5.319zm24.956-48.044L71.305 7.614 77.087.73l22.209 18.632-5.782 6.884zm-87.027-.025L.705 19.337 22.914.705l5.782 6.884L6.486 26.22z" fill="#6aa9c0"/><path d="M22.852 1.409L1.41 19.399l5.138 6.118 21.443-17.99-5.139-6.118m54.296.025L72.01 7.552l21.442 17.99 5.14-6.119-21.444-17.99M49.975 11.7a43.725 43.725 0 00-17.131 3.458 43.782 43.782 0 00-13.977 9.43 43.828 43.828 0 00-9.416 13.987A43.789 43.789 0 006.001 55.7c0 5.941 1.16 11.703 3.45 17.126a43.828 43.828 0 009.416 13.986 43.782 43.782 0 0013.977 9.43C38.266 98.538 44.03 99.7 49.975 99.7a43.778 43.778 0 0017.14-3.457 43.872 43.872 0 0013.994-9.431 43.85 43.85 0 009.433-13.986A43.71 43.71 0 0094 55.7c0-5.94-1.163-11.701-3.458-17.125A43.85 43.85 0 0081.11 24.59a43.872 43.872 0 00-13.994-9.43 43.778 43.778 0 00-17.14-3.459m.025 80c-4.858 0-9.572-.952-14.01-2.83a35.89 35.89 0 01-11.444-7.716 35.89 35.89 0 01-7.715-11.443A35.762 35.762 0 0114 55.701c0-4.859.952-9.573 2.83-14.012a35.89 35.89 0 017.715-11.443 35.89 35.89 0 0111.443-7.715A35.762 35.762 0 0150 19.7c4.859 0 9.573.952 14.012 2.83a35.89 35.89 0 0111.442 7.715A35.89 35.89 0 0183.17 41.69 35.762 35.762 0 0186 55.7c0 4.86-.95 9.573-2.826 14.011a35.867 35.867 0 01-7.71 11.443 35.856 35.856 0 01-11.442 7.716A35.797 35.797 0 0150 91.7m-4-60v28.435l22.39 13.472 2.728-4.463L51.991 57.81a1 1 0 01-.49-.86V31.7H46M22.974 0L29.4 7.65 6.425 26.924 0 19.275 22.975 0zm54.05.024L100 19.3l-6.425 7.65L70.6 7.675l6.425-7.65zM49.975 10.7C74.85 10.7 95 30.85 95 55.7s-20.15 45-45.025 45S5 80.55 5 55.7s20.1-45 44.975-45zm.025 80c19.35 0 35-15.675 35-35s-15.675-35-35-35-35 15.675-35 35 15.675 35 35 35zm-5-60h7.5v26.25l20 11.85-3.775 6.175L45 60.7v-30z" fill="#fff"/></g></svg>