<svg xmlns="http://www.w3.org/2000/svg" width="106.29" height="119.916" viewBox="0 0 106.29 119.916"><defs><style>.a{stroke:#6aa9c0;stroke-width:2px;fill:#6aa9c0}</style></defs><path class="a" d="M103.327 118.913h-89.01a13.317 13.317 0 010-26.634h89.011a1.962 1.962 0 011.962 1.962v22.712a1.962 1.962 0 01-1.963 1.96zm-89.01-22.7a9.39 9.39 0 000 18.779h87.048V96.213z"/><path class="a" d="M20.94 118.913c-4.355 0-7.64-5.724-7.64-13.317s3.285-13.317 7.64-13.317a1.964 1.964 0 110 3.927c-1.479 0-3.712 3.745-3.712 9.39s2.233 9.39 3.712 9.39a1.964 1.964 0 110 3.927z"/><path class="a" d="M2.965 107.561A1.964 1.964 0 011 105.599V14.317A13.332 13.332 0 0114.317 1.002h89.011a1.962 1.962 0 011.962 1.962v91.282a1.962 1.962 0 11-3.925 0V4.927H14.317a9.4 9.4 0 00-9.39 9.39v91.285a1.962 1.962 0 01-1.962 1.959z"/><path class="a" d="M14.318 96.209a1.964 1.964 0 01-1.962-1.965V2.962a1.964 1.964 0 013.927 0v91.282a1.965 1.965 0 01-1.965 1.965zm72.056 11.352H33.391a1.962 1.962 0 010-3.925h52.983a1.962 1.962 0 110 3.925z"/></svg>