<svg xmlns="http://www.w3.org/2000/svg" width="120" height="74" viewBox="0 0 120 74"><defs><style>.a{fill:#6aa9c0}</style></defs><path class="a" d="M53.334 62.004c-22.056 0-40-16.148-40-36v-20c0-3.308 2.991-6 6.667-6h46.667a2.011 2.011 0 110 4H20.001a2.123 2.123 0 00-2.222 2v20c0 17.646 15.951 32 35.556 32s35.556-14.354 35.556-32v-20a2.122 2.122 0 00-2.222-2h-6.667a2.011 2.011 0 110-4h6.667c3.678 0 6.667 2.692 6.667 6v20c-.002 19.848-17.944 36-40.002 36z"/><path class="a" d="M53.333 74C26.833 74 0 69.192 0 60c0-3.746 4.256-6.9 12.642-9.37a2.279 2.279 0 012.8 1.278 1.964 1.964 0 01-1.422 2.522c-7.071 2.084-9.58 4.3-9.58 5.57 0 4.078 19.047 10 48.889 10s48.889-5.922 48.889-10c0-1.264-2.507-3.484-9.573-5.568a1.963 1.963 0 01-1.418-2.524 2.284 2.284 0 012.8-1.276c8.384 2.472 12.633 5.624 12.633 9.368.007 9.192-26.822 14-53.327 14zm51.112-41.996H100a2.011 2.011 0 110-4h4.444c6.127 0 11.111-4.486 11.111-10s-4.984-10-11.111-10H100a2.011 2.011 0 110-4h4.444c8.578 0 15.556 6.28 15.556 14s-6.978 14-15.555 14z"/><path class="a" d="M104.445 24.004H100a2.011 2.011 0 110-4h4.444a2.011 2.011 0 100-4H100a2.011 2.011 0 110-4h4.444c3.678 0 6.667 2.692 6.667 6s-2.989 6-6.666 6z"/></svg>