<svg xmlns="http://www.w3.org/2000/svg" width="125.008" height="134.186" viewBox="0 0 125.008 134.186"><path d="M108.548 18.466C90.585 2.499 71.426 2.499 64.213 2.499c-3.89 0-13.033 1.409-22.274 5.29-8.077 3.392-18.795 9.787-23.985 20.986a1.9 1.9 0 00-.074.184c-.1.3-2.525 7.374-2.525 12 0 1.286.1 2.593.193 3.856.225 3 .438 5.826-.661 7.748-1.99 3.482-6.628 10.108-8.712 11.776-1.136.909-3.769 3.368-3.673 6.558a6.321 6.321 0 003.042 5.023c1.621 1.144 2.979 1.943 3.97 2.526a17.122 17.122 0 011.679 1.063 17.2 17.2 0 01-.88 1.743c-.979 1.775-1.99 3.611-.854 5.126a8.929 8.929 0 002.784 2.1 3.244 3.244 0 00-1.19 2.145 2.423 2.423 0 00.924 2.151l.1.083c.8.637 3.227 2.575 2.859 3.925-.063.231-.152.521-.255.859-.9 2.936-2.564 8.4-.271 12.32a7.494 7.494 0 005.135 3.507c8.005 1.751 24.448-.835 25.145-.946a1.973 1.973 0 00.28-.066c.286-.09 2.817-.817 3.617 1.448 1.4 3.968 4.5 16.839 4.537 16.974l.1.807 54.577-6.724.04.106.434-.164 3.316-.408-.1-.807h0l-.1-.807-.2.024-7.925-20.978a1.932 1.932 0 00-.164-.333 10.757 10.757 0 01.463-10.979c2.267-3.527 6.149-8.683 9.574-13.232 3.148-4.181 5.867-7.792 6.908-9.562 3.001-5.084 6.561-33.302-11.499-49.355zM65.039 93.809a8.417 8.417 0 01-5.934 2.251 8.6 8.6 0 01-5.753-2.024 6.971 6.971 0 01-2.478-5.388 7.255 7.255 0 012.365-5.776A8.392 8.392 0 0159.15 80.6a8.261 8.261 0 015.82 2.136 7.629 7.629 0 01.069 11.073zm22.714-47.813q-.546 7.684-8.641 14.277l-5.32 4.229a16.162 16.162 0 00-5.684 10l-12.5.091q.546-10.823 6.958-16.461l3.774-3A20.527 20.527 0 0071 50.085a10.31 10.31 0 001.433-5.957q-.137-4-4.229-4.137a5.451 5.451 0 00-4.433 1.91 11.717 11.717 0 00-2.523 5.638l-14.961.091q.683-9.094 6.958-14.3t15.96-5.026a24.039 24.039 0 0110.254 2.319 14.519 14.519 0 016.525 6.138 16.651 16.651 0 011.77 9.236z" fill="none" stroke="#6aa9c0" stroke-linecap="round" stroke-linejoin="round" stroke-width="5"/></svg>