<svg version="1.1" id="圖層_1" xmlns="http://www.w3.org/2000/svg" x="0" y="0" viewBox="0 0 84 84" xml:space="preserve"><style>.st1{fill:#fff}</style><path fill="none" d="M0 769h84v84H0z" transform="translate(0 -769)"/><path class="st1" d="M34.4 800.1h15.2c.5 0 .9-.4.9-.9s-.4-.9-.9-.9H34.4c-.3-.1-.5 0-.7.2-.2.2-.3.4-.3.6 0 .5.5 1 1 1zm13 4.1h-13c-.5 0-.9.4-.9.9s.4.9.9.9h13c.5 0 .9-.4.9-.9s-.4-.9-.9-.9zm-6.2 5.9h-6.8c-.5 0-.9.4-.9.9s.4.9.9.9h6.8c.4 0 .9-.4.9-.9s-.4-.9-.9-.9z" transform="translate(0 -769)"/><path class="st1" d="M61.7 799.7c-.5-.5-1.1-.7-1.8-.7s-1.3.3-1.8.7l-1 1c-.7-.1-1.4 0-2 .3v-6.2c0-.5-.4-.9-.9-.9H29.8c-.5 0-.9.4-.9.9v32.4c0 .5.4.9.9.9h24.4c.5 0 .9-.4.9-.9v-15l4.4-4.4c.9-.9 1.3-2.1 1.2-3.4l1-1c1-1.1 1-2.7 0-3.7zm-23 23.3c-.1 0-.2 0-.3-.1 0-.1-.1-.2-.1-.2.6-2 1.5-3.8 2.8-5.5l3 3c-1.5 1.3-3.4 2.2-5.4 2.8zm14.5-20.7l-12.1 12.2c-2.1 2.1-3.6 4.7-4.5 7.6-.1.5-.1.9.1 1.4l-.6.6c-.2.2-.3.4-.2.7 0 .3.2.5.4.6.4.3.9.2 1.2 0l.6-.6c.4.1.8.2 1.4.1 2.7-.8 5.3-2.3 7.6-4.5l6.4-6.4v12.2H30.7v-30.6h22.5v6.7zm-4.2 8.9c-.2.2-.3.4-.2.7 0 .3.2.5.4.6.4.3.9.2 1.2 0l5.8-5.8.9.9L45.6 819l-3.2-3.2 11.3-11.3.9.9-5.6 5.8zm11.6-9.7c0 .2-.1.4-.2.5l-.4.4s-.1-.1-.1-.2c-.1-.1-.2-.3-.3-.4-.1-.1-.3-.3-.5-.4l.4-.4c.2-.2.7-.2.9 0 .2.1.2.3.2.5zm-1.7 3.3c0 .6-.1 1.1-.5 1.5-.1 0-.2 0-.2.1l-3.1-3.1c.8-.8 2.2-.8 3.1 0 .4.3.7.9.7 1.5z" transform="translate(0 -769)"/></svg>