<svg version="1.1" id="圖層_1" xmlns="http://www.w3.org/2000/svg" x="0" y="0" viewBox="0 0 84 84" xml:space="preserve"><path fill="none" d="M0 769h84v84H0z" transform="translate(0 -769)"/><path d="M34.4 800.3h15.2c.6 0 1.1-.5 1.1-1.1s-.5-1.1-1.1-1.1H34.5c-.3-.1-.6 0-.9.2-.3.2-.4.5-.4.8 0 .6.6 1.2 1.2 1.2zm13 3.7h-13c-.6 0-1.1.5-1.1 1.1s.5 1.1 1.1 1.1h13c.6 0 1.1-.5 1.1-1.1s-.5-1.1-1.1-1.1zm-6.2 5.9h-6.8c-.6 0-1.1.5-1.1 1.1s.5 1.1 1.1 1.1h6.8c.5 0 1.1-.5 1.1-1.1 0-.6-.5-1.1-1.1-1.1z" transform="translate(0 -769)"/><path d="M61.9 799.5c-1-1-2.9-1-3.9 0l-1 1c-.6-.1-1.2 0-1.8.2v-5.9c0-.6-.5-1.1-1.1-1.1H29.8c-.6 0-1.1.5-1.1 1.1v32.4c0 .6.5 1.1 1.1 1.1h24.4c.6 0 1.1-.5 1.1-1.1v-14.9l4.4-4.4c.9-.9 1.4-2.2 1.2-3.4l1-1c1-1.2 1-2.8 0-4zM48.8 811c-.2.2-.3.5-.3.8 0 .3.2.6.5.8.5.3 1.1.3 1.4 0L56 807l.6.6-11 11.1-2.9-2.9 11-11 .6.6-5.5 5.6zm-10.2 11.8c.6-2 1.4-3.7 2.7-5.3l2.7 2.7c-1.6 1.2-3.3 2.1-5.2 2.6h-.2zM53 802.2l-12.1 12.2c-2.1 2.1-3.7 4.8-4.5 7.7-.1.5-.1.9 0 1.4l-.5.5c-.2.2-.3.5-.3.8 0 .3.2.6.5.8.5.3 1.1.3 1.4 0l.5-.5c.4.1.9.1 1.4 0 2.8-.8 5.4-2.3 7.7-4.5l6-6v11.5H30.9v-30.2H53v6.3zm5.7 2.6c0 .5-.1 1-.4 1.3h-.1l-2.9-2.9c.8-.6 1.9-.6 2.7.1.4.5.7 1 .7 1.5zm1.7-3.3c0 .1 0 .3-.1.3l-.3.3c-.1-.1-.2-.2-.3-.4l-.3-.3.2-.2c.1-.1.5-.1.6 0 .2 0 .2.2.2.3z" transform="translate(0 -769)"/></svg>