<svg version="1.1" id="圖層_1" xmlns="http://www.w3.org/2000/svg" x="0" y="0" viewBox="0 0 89 119" xml:space="preserve"><path d="M11.5 79.9L8.8 41.2V25h11.1v16.2l-2.6 38.7h-5.8zM9.2 98V87.8h10.3V98H9.2zm42.6-18v-2.7c0-3.5.5-6.6 1.5-9.1.7-1.9 1.9-3.9 3.5-5.8 1.2-1.4 3.3-3.5 6.5-6.3 3.1-2.7 5.1-4.9 6.1-6.5.9-1.6 1.4-3.4 1.4-5.3 0-3.5-1.4-6.5-4.1-9.2-2.7-2.6-6.1-4-10-4-3.8 0-7 1.2-9.6 3.6-2.6 2.4-4.2 6.1-5 11.2l-9.2-1.1c.8-6.8 3.3-12 7.4-15.6 4.1-3.6 9.5-5.4 16.3-5.4 7.1 0 12.8 1.9 17.1 5.8 4.2 3.9 6.4 8.6 6.4 14.1 0 3.2-.7 6.1-2.2 8.8s-4.4 6-8.8 9.8c-2.9 2.6-4.8 4.5-5.7 5.7-.9 1.2-1.6 2.6-2 4.2-.4 1.6-.7 4.2-.7 7.8h-8.9zm-.5 18V87.8h10.2V98H51.3z" fill="#6aa9c0"/></svg>