<svg xmlns="http://www.w3.org/2000/svg" width="27" height="27" viewBox="0 0 27 27"><path d="M12.73.32h1.55l1 .12a12.84 12.84 0 016.86 3.15 12.85 12.85 0 014.3 7.64c.09.5.14 1 .2 1.5v1.54a2.17 2.17 0 000 .25 12.79 12.79 0 01-.73 3.48A13.19 13.19 0 01.55 11a12.91 12.91 0 013.58-6.76 12.89 12.89 0 017.1-3.72c.5-.08 1-.13 1.5-.2zM25 13.52A11.54 11.54 0 1013.48 25 11.55 11.55 0 0025 13.52z" fill="#3e3e3e"/><path d="M23.58 13.51A10.07 10.07 0 1113.51 3.43a10.07 10.07 0 0110.07 10.08zm-1.71-1a8.48 8.48 0 00-2-4.45c-.12.14-.22.25-.33.36a.82.82 0 11-1.16-1.15 2.63 2.63 0 01.43-.27 8.54 8.54 0 00-4.48-1.84v.43a.82.82 0 01-.81.85.84.84 0 01-.83-.85v-.48a8.49 8.49 0 00-4.47 1.83 3.35 3.35 0 01.38.31.82.82 0 010 1.16.81.81 0 01-1.16 0c-.11-.11-.21-.25-.34-.41a8.45 8.45 0 00-2 4.47h.64a.82.82 0 01.8.84.81.81 0 01-.85.79h-.63a8.43 8.43 0 001.82 4.63l.48-.5a.82.82 0 111.16 1.16l-.53.5a8.46 8.46 0 004.65 2v-.74a.83.83 0 111.65 0v.75a8.44 8.44 0 004.64-2c-.18-.17-.35-.31-.5-.47a.82.82 0 01-.06-1.23.83.83 0 011.21.07l.48.47a8.36 8.36 0 001.8-4.61h-.57a.81.81 0 01-.9-.81.83.83 0 01.89-.82z" fill="#3e3e3e"/><path d="M14.11 13.56h1.5a.82.82 0 01.83 1 .78.78 0 01-.74.58h-2.47a.76.76 0 01-.76-.78v-4.3a.81.81 0 011.62-.06 6.66 6.66 0 010 .77z" fill="#3e3e3e"/></svg>