<svg xmlns="http://www.w3.org/2000/svg" width="102" height="102" viewBox="0 0 102 102">
  <defs>
    <style>
      .cls-1 {
        fill: #da003e;
        fill-rule: evenodd;
      }
    </style>
  </defs>
  <path id="形狀_696" data-name="形狀 696" class="cls-1" d="M51.11,98.406A31.227,31.227,0,0,1,19.844,67.29C21.169,36.468,48.693,5.361,49.865,4.052a1.727,1.727,0,0,1,2.492,0c0.078,0.087,1.944,2.179,4.751,5.812a1.655,1.655,0,0,1-.306,2.329,1.675,1.675,0,0,1-2.341-.3c-1.383-1.79-2.54-3.206-3.347-4.171C45.682,14.228,24.3,41.438,23.181,67.361a27.929,27.929,0,0,0,55.858-.072,67.865,67.865,0,0,0-4.458-20.384,1.668,1.668,0,0,1,3.132-1.148,71.138,71.138,0,0,1,4.662,21.462A31.239,31.239,0,0,1,51.11,98.406Zm0-13.224a1.674,1.674,0,0,1-.726-0.166C37.491,78.807,32.79,71.082,31.117,65.7a14.161,14.161,0,0,1-.752-3.622,9.222,9.222,0,0,1-.048-1.113c0-7.378,5.6-13.4,12.479-13.4A11.942,11.942,0,0,1,51.11,50.97a11.949,11.949,0,0,1,8.315-3.414c6.879,0,12.475,6.023,12.479,13.428a9.082,9.082,0,0,1-.052,1.128,14.206,14.206,0,0,1-.752,3.6c-1.678,5.389-6.384,13.1-19.262,19.305A1.677,1.677,0,0,1,51.11,85.182ZM42.8,50.877c-5.039,0-9.14,4.537-9.14,10.114a7.082,7.082,0,0,0,.035.8,11.022,11.022,0,0,0,.6,2.86c1.466,4.716,5.563,11.4,16.823,17.014C62.981,75.741,66.734,68.523,67.919,64.7a11.089,11.089,0,0,0,.608-2.87,7.683,7.683,0,0,0,.041-0.784c0-5.635-4.1-10.172-9.144-10.172a8.8,8.8,0,0,0-6.986,3.593,1.732,1.732,0,0,1-2.655,0A8.805,8.805,0,0,0,42.8,50.877ZM66.55,44.5A12.914,12.914,0,0,1,53.621,31.63C54.142,19.5,64.849,7.4,65.3,6.89a1.727,1.727,0,0,1,2.493,0C68.249,7.4,78.958,19.5,79.477,31.56A12.925,12.925,0,0,1,66.55,44.5Zm0-33.893c-2.771,3.5-9.225,12.533-9.594,21.1A9.592,9.592,0,0,0,76.14,31.63C75.773,23.107,69.323,14.1,66.551,10.6ZM64.014,37.681a1.664,1.664,0,0,1-.837-0.225,7.893,7.893,0,0,1-3.68-4.843,1.667,1.667,0,0,1,3.232-.82,4.571,4.571,0,0,0,2.124,2.791A1.659,1.659,0,0,1,64.014,37.681Z"/>
</svg>
