<svg xmlns="http://www.w3.org/2000/svg" width="102" height="102" viewBox="0 0 102 102">
  <defs>
    <style>
      .cls-1 {
        fill: #32764b;
        fill-rule: evenodd;
      }
    </style>
  </defs>
  <path id="形狀_699" data-name="形狀 699" class="cls-1" d="M101.65,96.269a2.292,2.292,0,0,1-1.938,3.5H2.289a2.293,2.293,0,0,1-1.937-3.5L39.583,33.228V8.159H35.777a2.29,2.29,0,0,1,0-4.581H66.224a2.29,2.29,0,0,1,0,4.581H62.418V33.228ZM44.151,8.159V33.884A2.306,2.306,0,0,1,43.8,35.1L27.31,61.6H62.37L55.144,49.824a2.286,2.286,0,1,1,3.89-2.4l24.358,39.7a2.3,2.3,0,0,1-.749,3.152,2.278,2.278,0,0,1-3.14-.748L65.18,66.181H26.645a2.266,2.266,0,0,1-1.7-.776L6.405,95.193H95.6L58.2,35.1a2.3,2.3,0,0,1-.346-1.214V8.159h-13.7Z"/>
</svg>
