<svg xmlns="http://www.w3.org/2000/svg" width="102" height="102" viewBox="0 0 102 102">
  <defs>
    <style>
      .cls-1 {
        fill: #0093ac;
        fill-rule: evenodd;
      }
    </style>
  </defs>
  <path id="形狀_695" data-name="形狀 695" class="cls-1" d="M83.307,11.917l7.485-7.486,2.16,2.16-7.485,7.487a1.544,1.544,0,0,0,2.184,2.183l8.576-8.578a1.546,1.546,0,0,0,0-2.182L91.883,1.156a1.543,1.543,0,0,0-2.182,0L81.124,9.734A1.544,1.544,0,0,0,83.307,11.917Zm17.1,86.455h-2.45L85.929,75.538a34.84,34.84,0,0,0,.9-45.951c0-.061.007-0.12,0.007-0.18a8.546,8.546,0,0,0-2.18-5.7l1.729-1.729a1.547,1.547,0,0,0,0-2.184L77.595,11a1.544,1.544,0,0,0-2.184,0L47.394,39.023a1.543,1.543,0,0,0,0,2.182L56.183,50a1.544,1.544,0,0,0,2.183,0L72.537,35.822a8.573,8.573,0,0,0,3.632,1.919,1.522,1.522,0,0,0,.258.442A21.339,21.339,0,0,1,53.139,72.188h8a1.544,1.544,0,1,0,0-3.087H23.6a1.544,1.544,0,0,0,0,3.087h8.162A34.931,34.931,0,0,0,57.3,86.774l-8.186,11.6H22.368a1.544,1.544,0,0,0,0,3.087h78.039A1.544,1.544,0,0,0,100.407,98.372ZM69.644,29.407a8.517,8.517,0,0,0,.978,3.966L57.274,46.723l-6.606-6.608L76.5,14.275l6.606,6.608-0.9.9A8.583,8.583,0,0,0,69.644,29.407Zm3.086,0a5.509,5.509,0,1,1,5.511,5.509A5.517,5.517,0,0,1,72.731,29.407ZM52.891,98.372l8.564-12.131a1.545,1.545,0,0,0-1.261-2.434,31.828,31.828,0,0,1-24.55-11.619H46.518a1.478,1.478,0,0,0,.38.361A24.435,24.435,0,0,0,80.049,37.809a8.614,8.614,0,0,0,5.816-4.452A31.76,31.76,0,0,1,82.944,74.2c-0.015.016-.027,0.034-0.043,0.051s-0.02.018-.029,0.029A21.317,21.317,0,0,1,74.1,79.67a1.544,1.544,0,0,0-.889,2.136L81.27,98.372H52.891Zm31.811,0L76.726,81.979a25.678,25.678,0,0,0,6.915-4.163L94.467,98.372H84.7ZM46.089,47.27l4.285,4.286a1.543,1.543,0,1,0,2.182-2.182l-4.284-4.287A1.544,1.544,0,0,0,46.089,47.27ZM31.666,57.1l7.627,8.7a1.544,1.544,0,0,0,2.669-1.347l-2.079-9.5a28.732,28.732,0,0,0,4.741-2.59A1.543,1.543,0,0,0,42.9,49.8a25.5,25.5,0,0,1-5.341,2.756,1.545,1.545,0,0,0-.967,1.776l1.078,4.924L33.45,54.449a1.546,1.546,0,0,0-1.37-.511,25.977,25.977,0,0,1-3.48.236A25.565,25.565,0,1,1,53.845,24.562a1.544,1.544,0,0,0,3.049-.484A28.651,28.651,0,1,0,28.6,57.262,29,29,0,0,0,31.666,57.1Zm-13.575-33a4.355,4.355,0,1,0-4.354-4.355A4.36,4.36,0,0,0,18.091,24.1Zm0-5.661a1.306,1.306,0,1,1-1.306,1.306A1.307,1.307,0,0,1,18.091,18.44ZM28.553,24.1A4.355,4.355,0,1,0,24.2,19.746,4.361,4.361,0,0,0,28.553,24.1Zm0-5.661a1.306,1.306,0,1,1-1.306,1.306A1.307,1.307,0,0,1,28.553,18.44ZM39.015,24.1a4.355,4.355,0,1,0-4.355-4.355A4.361,4.361,0,0,0,39.015,24.1Zm0-5.661a1.306,1.306,0,1,1-1.305,1.306A1.306,1.306,0,0,1,39.015,18.44ZM18.091,34.8a4.356,4.356,0,1,0,4.356,4.355A4.36,4.36,0,0,0,18.091,34.8Zm0,5.662A1.306,1.306,0,1,1,19.4,39.153,1.308,1.308,0,0,1,18.091,40.459ZM28.553,34.8a4.356,4.356,0,1,0,4.356,4.355A4.36,4.36,0,0,0,28.553,34.8Zm0,5.662a1.306,1.306,0,1,1,1.305-1.306A1.308,1.308,0,0,1,28.553,40.459ZM39.015,34.8a4.356,4.356,0,1,0,4.356,4.355A4.361,4.361,0,0,0,39.015,34.8Zm0,5.662a1.306,1.306,0,1,1,1.305-1.306A1.308,1.308,0,0,1,39.015,40.459ZM17.122,29.233a4.355,4.355,0,1,0-4.356,4.356A4.36,4.36,0,0,0,17.122,29.233Zm-4.356,1.306a1.306,1.306,0,1,1,1.307-1.306A1.308,1.308,0,0,1,12.766,30.539Zm14.819-1.306a4.355,4.355,0,1,0-4.356,4.356A4.362,4.362,0,0,0,27.585,29.233Zm-4.356,1.306a1.306,1.306,0,1,1,1.3-1.306A1.308,1.308,0,0,1,23.229,30.539Zm21.087-5.662a4.356,4.356,0,1,0,4.355,4.356A4.362,4.362,0,0,0,44.316,24.878Zm0,5.662a1.306,1.306,0,1,1,1.306-1.306A1.307,1.307,0,0,1,44.316,30.539Zm-6.27-1.306a4.355,4.355,0,1,0-4.355,4.356A4.361,4.361,0,0,0,38.046,29.233Zm-4.355,1.306A1.306,1.306,0,1,1,35,29.233,1.308,1.308,0,0,1,33.691,30.539Z"/>
</svg>
