<svg xmlns="http://www.w3.org/2000/svg" width="102" height="102" viewBox="0 0 102 102">
  <defs>
    <style>
      .cls-1 {
        fill: #ac7900;
        fill-rule: evenodd;
      }
    </style>
  </defs>
  <path id="形狀_698" data-name="形狀 698" class="cls-1" d="M50.637,90.247h-40.3c-3.449,0-4.323-.864-4.29-4.367C6.091,81.7,6,77.509,6.3,73.347c0.394-5.377,4.776-10.492,10.015-11.976a1.906,1.906,0,0,0,1.673-2.284c-0.1-2.8-.081-5.608.065-8.4A14.5,14.5,0,0,1,28.529,37.476a1.482,1.482,0,0,0,1.315-1.709,85.765,85.765,0,0,1,.252-10.256A14.441,14.441,0,0,1,43.982,13.055c8.049-.122,16.1-0.058,24.149-0.039,2.2,0.005,3.286,1.236,3.291,3.626q0.018,9.611-.008,19.221a1.262,1.262,0,0,0,1,1.527c6.841,2.083,10.754,7.416,10.865,14.721,0.037,2.535.028,5.073-.007,7.608a1.21,1.21,0,0,0,.98,1.425c6.994,2.2,10.914,7.6,10.935,14.955q0.017,5.206,0,10.412c-0.007,2.638-1.09,3.731-3.723,3.733Q71.052,90.253,50.637,90.247Zm-38.433-6H89.183c0-3.19.013-6.294-.011-9.4a6.625,6.625,0,0,0-.265-1.705c-1.156-4.134-4.519-6.622-9.048-6.66-3.736-.033-7.474.019-11.212-0.023a2.949,2.949,0,1,1,.005-5.889c2.446-.048,4.892-0.014,7.339-0.015h1.35c0-2.817.006-5.439,0-8.062-0.008-6.114-3.687-9.787-9.808-9.8q-4.873-.007-9.742,0c-2.788,0-4.217-1.023-4.185-2.99s1.421-2.922,4.251-2.923c2.179,0,4.359,0,6.54,0a9.859,9.859,0,0,0,1-.107V18.989c-7.208,0-14.324-.164-21.425.063A8.2,8.2,0,0,0,36.1,25.7a26.684,26.684,0,0,0-.351,5.17c-0.052,1.94-.012,3.883-0.012,5.914,1,0,1.791-.015,2.586,0,2.07,0.045,3.37,1.228,3.332,3.013-0.038,1.73-1.309,2.859-3.319,2.889-1.734.026-3.471-.02-5.205,0.012A8.956,8.956,0,0,0,23.9,51.995c-0.02,1.646,0,3.294,0,4.94v3.619h1.653q12.014,0,24.024.005a7.9,7.9,0,0,1,1.723.127,2.9,2.9,0,0,1,2.259,2.92,2.934,2.934,0,0,1-2.432,2.788,9.556,9.556,0,0,1-1.6.077c-9.341,0-18.684-.011-28.027.009-4.714.01-8.714,2.837-9.211,7.062C11.878,77.038,12.2,80.621,12.2,84.244Z"/>
</svg>
