<svg xmlns="http://www.w3.org/2000/svg" width="102" height="102" viewBox="0 0 102 102">
  <defs>
    <style>
      .cls-1 {
        fill: #ffb200;
        fill-rule: evenodd;
      }
    </style>
  </defs>
  <path id="形狀_697" data-name="形狀 697" class="cls-1" d="M34.473,18.223a7.56,7.56,0,0,1,4.143,2.082,7.19,7.19,0,0,1,1.95,5.184q-0.012,10.908,0,21.815v1.048h1.08q21.067,0,42.135-.011a4.318,4.318,0,0,1,3.982,1.912,4.077,4.077,0,0,1-2.478,6.164c-0.31.076-.625,0.121-0.88,0.169-0.353,1.4-.624,2.784-1.055,4.118a20.187,20.187,0,0,1-6.414,9.121A30.872,30.872,0,0,1,62.5,76.685c-0.914.177-1.846,0.256-2.892,0.4-0.381,4.977-.766,9.971-1.16,15.083h1.017c4.593,0,9.185-.017,13.778.008a4.092,4.092,0,0,1,.549,8.159,8.034,8.034,0,0,1-.879.032q-26.195,0-52.39,0c-2.228,0-3.748-1-4.346-2.84a4.06,4.06,0,0,1,3.687-5.342c0.934-.04,1.869-0.016,2.8-0.018,0.905,0,1.811,0,2.779,0V77.191a34.143,34.143,0,0,1-3.861-1.469,12.816,12.816,0,0,1-5.491-6.18A30.833,30.833,0,0,1,13.273,56.73c-0.1-4.195-.061-8.393-0.067-12.588-0.009-6.176,0-12.351-.006-18.527a6.769,6.769,0,0,1,2.859-6.028,17.724,17.724,0,0,1,3.192-1.363H34.473ZM15.964,56.6c0.085,1.145.134,2.211,0.253,3.269a23.706,23.706,0,0,0,2.745,9.3,9.39,9.39,0,0,0,8.787,5.211c9.959-.087,19.92-0.028,29.879-0.03,0.587,0,1.177,0,1.761-.045A27.642,27.642,0,0,0,74.6,68.18a18.774,18.774,0,0,0,5.825-7.424,11.646,11.646,0,0,0,1.023-4.16H15.964ZM37.828,53.77V52.9q0-13.673,0-27.346c0-2.938-1.677-4.6-4.638-4.6q-6.248-.005-12.494,0c-3.119,0-4.756,1.622-4.757,4.728q0,13.593,0,27.186v0.9H37.828ZM28.282,92.094c0.263,0.018.471,0.045,0.678,0.045q13.011,0,26.023.014a0.663,0.663,0,0,0,.8-0.77c0.175-2.665.4-5.327,0.6-7.991,0.158-2.069.3-4.139,0.456-6.246H28.282V92.094ZM46.743,94.9H20.79a5.8,5.8,0,0,0-.88.023,1.34,1.34,0,0,0-.166,2.633,3.624,3.624,0,0,0,.873.074q26.113,0.005,52.226,0a3.124,3.124,0,0,0,.946-0.108A1.23,1.23,0,0,0,74.7,96.1a1.252,1.252,0,0,0-1.124-1.173A4.971,4.971,0,0,0,72.7,94.9Q59.719,94.9,46.743,94.9ZM40.6,53.787c0.254,0.012.412,0.025,0.57,0.026q21.353,0.008,42.7.009a2.851,2.851,0,0,0,.865-0.115,1.226,1.226,0,0,0,.9-1.418A1.241,1.241,0,0,0,84.5,51.124a4.746,4.746,0,0,0-.8-0.029H40.6v2.694ZM22.783,35.309c0-.267-0.012-0.534,0-0.8a4.51,4.51,0,0,0-.659-2.784,5.24,5.24,0,0,1,.485-5.927,5.436,5.436,0,0,1,9.668,2.676,5.484,5.484,0,0,1-.893,3.8A2.675,2.675,0,0,0,31,33.515c-0.051,1.226,0,2.457-.023,3.685a4.1,4.1,0,0,1-4.111,4.286,4.141,4.141,0,0,1-4.082-4.335C22.775,36.537,22.783,35.923,22.783,35.309Zm2.732-.554c0,0.828-.026,1.657.005,2.484a1.406,1.406,0,0,0,1.421,1.505,1.38,1.38,0,0,0,1.294-1.535c0.019-1.255.038-2.511,0-3.765a3.633,3.633,0,0,1,.849-2.722,2.616,2.616,0,0,0-.4-3.607,2.708,2.708,0,0,0-3.642.078,2.61,2.61,0,0,0-.326,3.55,3.153,3.153,0,0,1,.8,2.489C25.482,33.738,25.513,34.247,25.515,34.755Zm37.607,9.251A14.26,14.26,0,0,1,48.888,29.753C49.462,16.315,61.25,2.911,61.75,2.347a1.894,1.894,0,0,1,2.745,0C65,2.911,76.786,16.315,77.357,29.675A14.276,14.276,0,0,1,63.123,44.006Zm0-37.544c-3.05,3.878-10.157,13.882-10.564,23.37a10.562,10.562,0,0,0,21.123-.079C73.279,20.311,66.177,10.334,63.124,6.462ZM60.285,37.5a1.808,1.808,0,0,1-.914-0.247,8.671,8.671,0,0,1-4.018-5.319,1.822,1.822,0,1,1,3.53-.9A5.006,5.006,0,0,0,61.2,34.1,1.823,1.823,0,0,1,60.285,37.5Z"/>
</svg>
