<svg xmlns="http://www.w3.org/2000/svg" width="20" height="20" viewBox="0 0 20 20"><path d="M20 8.07a.8.8 0 01-.11.19l-1.42 2c-.22.32-.44.32-.67 0-.48-.66-1-1.31-1.46-2a.52.52 0 01-.07-.38c0-.07.18-.12.29-.14a1.45 1.45 0 01.36 0c.35 0 .38-.06.29-.39a6.37 6.37 0 00-1-1.92 7.38 7.38 0 00-2.41-2.24c-.41-.19-.4-.19-.19-.59a6.16 6.16 0 00.4-.71c.1-.25.23-.23.41-.11.34.22.7.43 1 .67a8.67 8.67 0 01.79.69 9.55 9.55 0 012.48 4c.2.63.05.58.8.58.23.02.45.01.51.35zm-10 .17l.59-1c.34-.59.68-1.18 1-1.77a.54.54 0 01.75-.21c.31.2.35.43.15.77-.45.75-.89 1.52-1.33 2.28l-.45.74a2 2 0 00-.49-.35 2.93 2.93 0 00-.72-.12c-.19 0-.28-.05-.28-.25V2.99c0-.23.1-.34.33-.34S10 2.8 10 3v5.17z" fill="#fff"/><path d="M10.8 10c.15.62-.62 1.27-1.18 1.24a1.24 1.24 0 010-2.47c.56-.03 1.32.63 1.18 1.23zm-1.69 0a.52.52 0 00.52.57.57.57 0 100-1.13.53.53 0 00-.52.56zM3.13 3.08l.14.11c.26.26.52.53.79.78s.06.31-.07.44-.24.23-.41 0-.5-.5-.74-.76a.32.32 0 01-.09-.27A2.19 2.19 0 013 3zm6.16-1.81V.88c0-.39.05-.42.44-.4.17 0 .23.09.23.25v1.11c0 .27-.18.25-.35.25s-.33 0-.32-.25 0-.38 0-.57zm0 17.45v-.42c0-.37 0-.38.4-.38.19 0 .27.07.27.26v1.09c0 .36-.16.25-.34.25s-.34 0-.33-.26 0-.36 0-.54zm-5.1-2.87a1 1 0 01-.12.16c-.26.28-.54.54-.8.82s-.25.08-.35 0-.34-.22-.12-.44.5-.51.77-.76c.07-.07.2-.15.26-.12a2.26 2.26 0 01.42.29zM.42 7.62c0-.37.06-.39.4-.29l.93.24c.33.07.21.3.17.49s-.21.15-.35.11l-.93-.24c-.18-.05-.31-.11-.22-.31zm-.06 4.7c.08-.08.15-.19.25-.22a7.88 7.88 0 011-.28c.09 0 .27.08.27.12s.23.36-.06.46-.8.24-1.2.33-.18-.2-.26-.41zm2.45 1.91a.55.55 0 01-.15.16l-.94.53c-.18.1-.28.05-.36-.12s-.14-.33.07-.44.59-.34.89-.49a.35.35 0 01.49.36zm10.54 2.82a1.93 1.93 0 01.4-.21.23.23 0 01.22.08c.21.33.41.66.6 1s-.16.29-.28.4-.22 0-.26-.11c-.24-.37-.44-.75-.68-1.16zM4.6 18.1c.23-.4.44-.77.64-1.14s.27-.12.43-.05.25.16.14.34-.39.66-.6 1a.28.28 0 01-.21.05 2.29 2.29 0 01-.4-.2zm3.26-.31c-.1.4-.19.77-.3 1.13s-.14.37-.5.25l-.19-.06c.13-.46.24-.91.37-1.35 0-.06.16-.11.24-.11a2.57 2.57 0 01.38.14zM6.89.89l.29-.1c.17 0 .29 0 .34.18.1.41.22.81.35 1.25a1.56 1.56 0 01-.4.13.27.27 0 01-.23-.11C7.11 1.81 7 1.36 6.89.89zM11.45 2c.11-.39.2-.78.33-1.15 0-.06.27-.08.4-.06a.31.31 0 01.17.24A10.57 10.57 0 0112 2.15c0 .08-.17.2-.22.19s-.37-.02-.33-.34zM1.52 5l.24.11.87.48c.15.09.25.21.13.39s-.2.31-.43.17-.64-.37-.94-.58a.27.27 0 01-.08-.24A1.67 1.67 0 011.52 5zM12 19.26c-.06 0-.17-.08-.2-.15-.11-.34-.19-.68-.29-1s.1-.34.31-.41.24.1.28.23a10.44 10.44 0 01.25 1.07c.06.24-.19.2-.35.26zM4.63 1.94c.33-.34.47-.34.7 0s.32.54.48.8 0 .26-.12.33-.3.21-.44 0zM16.4 14.25a.93.93 0 01.19-.32.35.35 0 01.29-.08c.33.16.65.34 1 .53s.14.28 0 .41-.23.17-.29.14c-.4-.21-.79-.45-1.19-.68zm-.22 2.62a.57.57 0 01-.16-.11c-.26-.24-.5-.5-.75-.74s-.07-.27.05-.39.22-.2.37 0 .49.48.72.73c.06.06.13.18.1.24a1.51 1.51 0 01-.25.37zM.86 9.72h.45c.21 0 .34 0 .34.29s-.14.28-.34.28h-1c-.24 0-.31-.12-.31-.29s0-.29.25-.28z" fill="#fff"/></svg>