<svg version="1.1" id="圖層_1" xmlns="http://www.w3.org/2000/svg" x="0" y="0" width="20" height="20" viewBox="0 0 20 20" xml:space="preserve"><style>.st0{fill:#fff}</style><path class="st0" d="M13.7.7c-.5.5-.9.9-1.4 1.3-.1.1-.3.1-.4.1-1.8-.5-3.7-.3-5.4.6a8 8 0 00-3.9 4c-.5 1-.7 2.1-.7 3.3 0 2.5 1.2 4.9 3.3 6.4 1.4 1.1 3.1 1.7 4.9 1.6 2.5 0 4.9-1.2 6.4-3.2 1-1.4 1.6-3 1.7-4.7H20c0 3.8-2.1 7.2-5.5 8.8-4.9 2.5-10.9.5-13.4-4.4S.6 3.6 5.5 1.1C8.1-.2 11.1-.3 13.7.7z"/><path class="st0" d="M4.7 9.3L6 8.1l3 3 8.5-8.7 1.3 1.4L9 13.7 4.7 9.3z"/></svg>