<svg xmlns="http://www.w3.org/2000/svg" width="20" height="20" viewBox="0 0 20 20"><path d="M13.24 0a.54.54 0 01.28.55v.82a1.06 1.06 0 01-.62.84.2.2 0 00-.14.22 12.87 12.87 0 01-.42 3A6.14 6.14 0 0110 8.88c-.3.21-.6.43-.88.67a.52.52 0 000 .9c.35.32.74.6 1.1.91s.69.64 1 1a9.54 9.54 0 01.83-.49 4.3 4.3 0 016 2.75c.06.24.1.48.15.72v.97a4.22 4.22 0 01-2.81 3.46 9.47 9.47 0 01-1 .26H1.8v-1.4a1.25 1.25 0 01.62-.83.28.28 0 00.17-.28A12.61 12.61 0 013 14.66a6.12 6.12 0 012.12-3.35c.38-.29.76-.56 1.13-.86a.51.51 0 000-.9c-.28-.23-.58-.45-.88-.67A6.11 6.11 0 013 5.47a12.45 12.45 0 01-.43-3c0-.06 0-.16-.06-.18a1.29 1.29 0 01-.72-.89V0zm-2.57 12.85c-.29-.26-.57-.53-.87-.79s-.89-.67-1.28-1.06a1.28 1.28 0 01.1-2.07c.29-.25.6-.46.9-.68a5.13 5.13 0 001.71-2.12A9.19 9.19 0 0011.92 3v-.67H3.37a12.11 12.11 0 00.27 2.41 5.53 5.53 0 002 3.38c.27.21.56.41.83.61a1.87 1.87 0 01.69.81 1.29 1.29 0 01-.47 1.48c-.29.25-.61.46-.91.69a5.14 5.14 0 00-1.28 1.31 6.43 6.43 0 00-1 2.59c-.11.66-.15 1.33-.23 2H10a4.41 4.41 0 01.67-4.76zm3.25 6.37a3.52 3.52 0 10-3.53-3.5 3.53 3.53 0 003.53 3.5zM2.59.79c-.06.54 0 .78.67.78h8.88a1.62 1.62 0 00.22 0 .38.38 0 00.37-.36V.8zm0 18.41h8.79c-.23-.21-.45-.41-.66-.63a.39.39 0 00-.32-.14H3.26c-.65 0-.73.21-.67.77z" fill="#fff"/><path d="M8.44 3.13h1.5c.33 0 .52.25.42.52a.38.38 0 01-.36.25H6.91a.38.38 0 01-.4-.39.39.39 0 01.41-.38zm-3.13 0a.4.4 0 01.39.38.4.4 0 01-.38.39.39.39 0 010-.77zm8.05 12.58l-.75-.71a.53.53 0 01-.17-.25.34.34 0 01.15-.42.35.35 0 01.47 0c.23.2.44.42.65.64a2.77 2.77 0 01.17.23l.73-.74a1 1 0 01.19-.17.38.38 0 01.48 0 .37.37 0 010 .5c-.19.22-.4.42-.61.63l-.27.24.68.68.2.21a.37.37 0 010 .5.36.36 0 01-.5 0c-.21-.18-.4-.38-.6-.58l-.25-.31-.72.73a1.54 1.54 0 01-.19.17.39.39 0 01-.49 0 .38.38 0 010-.5c.19-.22.41-.42.61-.63z" fill="#fff"/></svg>