<svg xmlns="http://www.w3.org/2000/svg" width="20" height="20" viewBox="0 0 20 20"><path d="M16 19.69l-.24-.12-5.6-3.09a.32.32 0 00-.36 0l-5.62 3.09-.18.12c0-.24.06-.45.1-.65l1-6.15a.4.4 0 00-.13-.38C3.44 11 2 9.46.45 7.93l-.19-.21.62-.1 5.86-.89a.34.34 0 00.31-.22q1.4-3 2.81-6c0-.06.06-.13.11-.22a2.24 2.24 0 01.11.22l2.82 6a.32.32 0 00.28.2l6.34 1h.16l-.16.17L15 12.52a.35.35 0 00-.12.35q.44 2.6.85 5.21c.08.52.16 1.04.27 1.61zm-10.54-2.2l.23-.12 4.11-2.3a.3.3 0 01.33 0l4.08 2.34.21.11v-.21c-.24-1.57-.49-3.14-.74-4.71a.31.31 0 01.1-.3c1.18-1.2 2.37-2.4 3.55-3.61l.15-.17h-.08l-4.94-.7a.32.32 0 01-.28-.2l-2.1-4.48c0-.06-.07-.13-.11-.22l-.11.23q-1 2.22-2.09 4.44a.32.32 0 01-.28.2l-4.23.54-.82.12.17.17 3.59 3.66a.29.29 0 01.09.28c-.2 1.17-.4 2.34-.59 3.51-.08.46-.16.93-.24 1.42z" fill="#752e0b"/></svg>