<svg xmlns="http://www.w3.org/2000/svg" width="20" height="20" viewBox="0 0 20 20"><path d="M9.67 20l-1.07-.16a2 2 0 01-.35-.07.33.33 0 01-.25-.39.34.34 0 01.42-.25l1.43.18a.55.55 0 00.13 0v-.58a.36.36 0 01.23-.37.32.32 0 01.43.29v.67a8.29 8.29 0 003.49-.94c-.1-.19-.21-.37-.3-.55a.33.33 0 11.57-.33l.31.54a8.42 8.42 0 002.59-2.59l-.52-.3a.33.33 0 11.34-.57l.51.29a8.06 8.06 0 00.95-3.54H18c-.25 0-.41-.12-.41-.32s.15-.34.41-.34h.57a8.26 8.26 0 00-.94-3.54l-.52.29c-.21.12-.41.09-.5-.09s0-.36.18-.49l.48-.28A8 8 0 0014.68 4l-.32.55a.28.28 0 01-.34.16.51.51 0 01-.27-.25.46.46 0 01.06-.29c.09-.17.19-.33.29-.51a8.22 8.22 0 00-3.48-.95v.58c0 .25-.12.4-.32.41s-.3-.18-.3-.44v-.6l-1.2.14c-.13 0-.27.05-.4.07a.35.35 0 01-.4-.25.34.34 0 01.3-.39l1-.19v-.37h-.48A.83.83 0 018 1.06a.79.79 0 01.31-.89A1 1 0 018.82 0h2.94a.83.83 0 01.85.8.81.81 0 01-.77.86 4.86 4.86 0 01-.54 0v.41a9 9 0 015 2.31l.72-.73-.42-.38 1.4-1.4 1.36 1.36L18 4.63l-.4-.47-.73.74.14.16a8.47 8.47 0 012.16 4.76A8.79 8.79 0 0115 18.6a8.38 8.38 0 01-4.06 1.4.86.86 0 00-.17 0zm.95-19h.63a3.11 3.11 0 00.53 0c.06 0 .11-.1.17-.15a1.45 1.45 0 00-.18-.17H8.92c-.13 0-.29 0-.29.17s.16.16.3.17h1V2h.66zm6.94 2.23l.45.44.45-.44-.46-.46zM.61 12a.44.44 0 01.47-.28h6.26a.3.3 0 01.27.29.29.29 0 01-.23.34 1 1 0 01-.25 0h-6c-.24 0-.42-.06-.5-.31z" fill="#fff"/><path d="M10.52 12.66a1.2 1.2 0 01-1.15-.76 1.16 1.16 0 01.32-1.3c.36-.29.73-.54 1.1-.81L14 7.5l.2-.13a.28.28 0 01.37.08.78.78 0 01.06.35.27.27 0 01-.07.14Q13 10 11.47 12.13a1.16 1.16 0 01-.95.53zm2.21-3.41c-.86.62-1.71 1.23-2.56 1.86a.51.51 0 000 .77.52.52 0 00.79-.07zM4.77 10H2.43a.86.86 0 01-.23 0 .29.29 0 01-.2-.34.3.3 0 01.25-.31.72.72 0 01.21 0h4.85a.32.32 0 01.3.32.32.32 0 01-.3.34H4.77zm.36 4.67h-2a.66.66 0 01-.25 0 .3.3 0 01-.22-.31.29.29 0 01.23-.3.72.72 0 01.25 0h4.13c.22 0 .35.15.34.34a.32.32 0 01-.36.32zm.48-7.01H4a.32.32 0 01-.34-.32A.35.35 0 014 7h3.28a.33.33 0 01.33.34.32.32 0 01-.34.32H5.61zM6.14 17H5c-.26 0-.4-.12-.4-.33s.15-.34.39-.34h2.24c.25 0 .39.14.38.34s-.14.32-.38.33zm.33-12.33h.76c.25 0 .38.13.38.33s-.13.33-.38.33H5.69c-.26 0-.39-.13-.39-.33s.14-.33.39-.33z" fill="#fff"/></svg>