<svg xmlns="http://www.w3.org/2000/svg" width="81.047" height="144.5" viewBox="0 0 81.047 144.5"><path fill="none" d="M.524.5h80v144h-80z"/><path d="M12.324 133.752c0-6.39 11.095-8.762 17.708-9.605a2.794 2.794 0 01.709 5.543c-8.217 1.05-12.032 3.11-12.755 4.068 1.2 1.712 9.519 4.649 22.538 4.649s21.337-2.936 22.535-4.649c-.718-.947-4.5-3-12.631-4.051l-.129-.017a2.8 2.8 0 01-2.439-2.768 2.973 2.973 0 01.023-.358 2.8 2.8 0 013.126-2.417c6.613.844 17.71 3.215 17.71 9.605v.005c-.008 8.08-17.727 10.237-28.2 10.237s-28.195-2.157-28.195-10.242zm25.4-2.129v-25.862a2.794 2.794 0 115.587 0v25.862a2.794 2.794 0 11-5.587 0zM12.245 87.391a39.938 39.938 0 01-10.26-38.977 7.763 7.763 0 01.978-3.469l9.386-33.738a5.471 5.471 0 01-.02-.465C12.324 2.657 30.052.5 40.524.5a2.794 2.794 0 010 5.588c-12.492 0-20.657 2.7-22.359 4.435a2.78 2.78 0 010 .435c1.697 1.732 9.859 4.442 22.359 4.442s20.667-2.707 22.358-4.441a2.788 2.788 0 010-.407c-1.049-1.013-4.85-2.87-12.458-3.852a1.055 1.055 0 00-.129-.017 2.8 2.8 0 01-2.439-2.771 2.981 2.981 0 01.023-.355 2.8 2.8 0 013.13-2.42c6.613.844 17.71 3.212 17.71 9.6h0q0 .232-.02.458l9.387 33.742a7.767 7.767 0 01.978 3.473 40 40 0 01-66.819 38.981zm3.95-3.95a34.408 34.408 0 0057.4-33.819l-.008-.027c-.049-.172-.1-.342-.151-.513l-.025-.078-.005-.02-.437-1.571c-1.818-2.249-7.934-2.449-10.031-2.449-9.047 0-20.984 6.277-21.1 6.342l-.069.035c-1.164.613-13.494 6.96-23.659 6.96-5.69 0-9.418-.974-11.84-2.369a34.35 34.35 0 009.925 27.509zm1.912-30.727c5.238 0 11.421-2.092 15.737-3.875-4.32-1.78-10.51-3.875-15.737-3.875-2.1 0-8.231.2-10.038 2.46l-.434 1.56-.051.17c.458 3.297 8.124 3.56 10.523 3.56zm22.417-7.006c3.59-1.754 13.784-6.331 22.415-6.331a32.274 32.274 0 018.037.872l-6.57-23.615c-5.915 3.317-16.636 4.351-23.882 4.351s-17.97-1.035-23.885-4.352l-6.573 23.616a32.25 32.25 0 018.041-.873c8.633 0 18.828 4.577 22.417 6.332z" stroke="transparent" stroke-miterlimit="10"/></svg>