<svg xmlns="http://www.w3.org/2000/svg" width="20.406" height="15.94" viewBox="0 0 20.406 15.94"><path id="形狀_2" data-name="形狀 2" d="M641.883 2971.52l6.161-6.21 3.9-3.93a2.193 2.193 0 013.069 0 2.221 2.221 0 010 3.09c-.47.48-.94.95-1.41 1.42l-6.161 6.21q-1.948 1.98-3.9 3.94a2.2 2.2 0 01-3.068 0c-.193-.2-.386-.39-.579-.59-1.361-1.37-2.722-2.75-4.083-4.12a2.236 2.236 0 010-3.09 2.175 2.175 0 013.069 0c.193.19.578.58.578.58z" transform="translate(-635.219 -2960.75)" fill="#fff" fill-rule="evenodd"/></svg>