<svg xmlns="http://www.w3.org/2000/svg" viewBox="0 0 86.86 86.86"><path d="M43.43 86.86a43.43 43.43 0 1143.43-43.43 43.48 43.48 0 01-43.43 43.43m0-84.46a41 41 0 1041 41 41.08 41.08 0 00-41-41" fill="#525252"/><path d="M30.65 46.19h5.93v24.38a.87.87 0 00.87.88h10a.87.87 0 00.87-.88V46.31h6.81a.88.88 0 00.87-.78l1-9a.86.86 0 00-.86-1h-7.78V30c0-1.7.92-2.56 2.72-2.56h5.13a.87.87 0 00.87-.87v-8.28a.87.87 0 00-.87-.87h-7.39A13.54 13.54 0 0040 20.75 9.31 9.31 0 0036.87 29v6.58h-6.22a.87.87 0 00-.87.87v8.86a.87.87 0 00.87.88z" fill="#525252"/></svg>