<svg id="圖層_1" data-name="圖層 1" xmlns="http://www.w3.org/2000/svg" viewBox="0 0 86.86 86.86"><defs><clipPath id="clip-path"><path fill="none" d="M0 0h86.86v86.86H0z"/></clipPath><style>.cls-3{fill:#525252}</style></defs><g clip-path="url(#clip-path)"><path class="cls-3" d="M43.43 86.86a43.43 43.43 0 1143.43-43.43 43.48 43.48 0 01-43.43 43.43m0-84.46a41 41 0 1041 41 41.08 41.08 0 00-41-41"/><path class="cls-3" d="M21 66.79h44.82L56.9 44.31h-6.48c3.36-6.29 6.66-13.43 6.66-17.13a13.65 13.65 0 10-27.3 0c0 3.7 3.3 10.84 6.66 17.13H30zM43.43 20a7.15 7.15 0 11-7.15 7.15A7.15 7.15 0 0143.43 20M38 47.24c2.87 5.17 5.4 9.19 5.4 9.19s2.52-4 5.4-9.19h6.08l6.6 16.62H25.34L32 47.24z"/></g></svg>