<svg id="圖層_1" data-name="圖層 1" xmlns="http://www.w3.org/2000/svg" xmlns:xlink="http://www.w3.org/1999/xlink" viewBox="0 0 86.86 86.86"><defs><style>.cls-1{fill:none;}.cls-2{clip-path:url(#clip-path);}.cls-3{fill:#525252;}</style><clipPath id="clip-path"><rect class="cls-1" width="86.86" height="86.86"/></clipPath></defs><g class="cls-2"><path class="cls-3" d="M43.43,86.86A43.43,43.43,0,1,1,86.86,43.43,43.48,43.48,0,0,1,43.43,86.86m0-84.46a41,41,0,1,0,41,41,41.08,41.08,0,0,0-41-41"/><path class="cls-3" d="M21,66.79H65.82L56.9,44.31H50.42c3.36-6.29,6.66-13.43,6.66-17.13a13.65,13.65,0,1,0-27.3,0c0,3.7,3.3,10.84,6.66,17.13H30ZM43.43,20a7.15,7.15,0,1,1-7.15,7.15A7.15,7.15,0,0,1,43.43,20M38,47.24c2.87,5.17,5.4,9.19,5.4,9.19s2.52-4,5.4-9.19h6.08l6.6,16.62H25.34L32,47.24Z"/></g></svg>