<svg id="圖層_1" data-name="圖層 1" xmlns="http://www.w3.org/2000/svg" xmlns:xlink="http://www.w3.org/1999/xlink" viewBox="0 0 86.86 86.86"><defs><style>.cls-1{fill:none;}.cls-2{clip-path:url(#clip-path);}.cls-3{fill:#525252;}</style><clipPath id="clip-path"><rect class="cls-1" width="86.86" height="86.86"/></clipPath></defs><g class="cls-2"><path class="cls-3" d="M43.43,86.86A43.43,43.43,0,1,1,86.86,43.43,43.48,43.48,0,0,1,43.43,86.86m0-84.46a41,41,0,1,0,41,41,41.08,41.08,0,0,0-41-41"/><polygon class="cls-3" points="24.73 29.57 44.29 45.95 63.84 29.57 24.73 29.57"/><path class="cls-3" d="M45.23,49h0a1.26,1.26,0,0,1-.39.22l-.09,0a1.26,1.26,0,0,1-.43.08h0a1.31,1.31,0,0,1-.43-.08l-.09,0a1.26,1.26,0,0,1-.39-.22h0L22.66,31.65V58.82H65.91V31.65Z"/></g></svg>