<svg id="圖層_1" data-name="圖層 1" xmlns="http://www.w3.org/2000/svg" viewBox="0 0 86.86 86.86"><defs><clipPath id="clip-path"><path fill="none" d="M0 0h86.86v86.86H0z"/></clipPath><style>.cls-3{fill:#525252}</style></defs><g clip-path="url(#clip-path)"><path class="cls-3" d="M43.43 86.86a43.43 43.43 0 1143.43-43.43 43.48 43.48 0 01-43.43 43.43m0-84.46a41 41 0 1041 41 41.08 41.08 0 00-41-41"/><path class="cls-3" d="M24.73 29.57l19.56 16.38 19.55-16.38H24.73z"/><path class="cls-3" d="M45.23 49a1.26 1.26 0 01-.39.22h-.09a1.26 1.26 0 01-.43.08 1.31 1.31 0 01-.43-.08h-.09a1.26 1.26 0 01-.39-.22L22.66 31.65v27.17h43.25V31.65z"/></g></svg>