<svg id="圖層_1" data-name="圖層 1" xmlns="http://www.w3.org/2000/svg" viewBox="0 0 86.86 86.86"><defs><clipPath id="clip-path"><path fill="none" d="M0 0h86.86v86.86H0z"/></clipPath><style>.cls-3{fill:#525252}</style></defs><g clip-path="url(#clip-path)"><path class="cls-3" d="M43.43 86.86a43.43 43.43 0 1143.43-43.43 43.48 43.48 0 01-43.43 43.43m0-84.46a41 41 0 1041 41 41.08 41.08 0 00-41-41"/><path class="cls-3" d="M24 29.39c.24 6.2 4.42 12.2 8 17A63.55 63.55 0 0043.24 58.3a53.19 53.19 0 008.66 5.76c1.87 1 3.12 1.58 5.29 1 3.34-.94 11-4.88 9.72-9.18-.65-2.19-3.31-4.32-5-5.71-2-1.67-5.6-4.61-8-1.87-1.39 1.34-2.91 4.48-5.1 4.7-2.4.23-4.52-2.54-6-4.06a59 59 0 01-6.63-8.08c-1.84-3 .46-4.25 2.7-5.89 1-.75 2.32-1.45 2.82-2.68.93-2.3-1.26-5.14-2.51-6.91a29 29 0 00-4.08-4.56c-2-1.79-4.17-.36-5.83 1.06A17.76 17.76 0 0024 29.39"/></g></svg>