<svg id="圖層_1" data-name="圖層 1" xmlns="http://www.w3.org/2000/svg" xmlns:xlink="http://www.w3.org/1999/xlink" viewBox="0 0 86.86 86.86"><defs><style>.cls-1{fill:none;}.cls-2{clip-path:url(#clip-path);}.cls-3{fill:#525252;}</style><clipPath id="clip-path"><rect class="cls-1" width="86.86" height="86.86"/></clipPath></defs><g class="cls-2"><path class="cls-3" d="M43.43,86.86A43.43,43.43,0,1,1,86.86,43.43,43.48,43.48,0,0,1,43.43,86.86m0-84.46a41,41,0,1,0,41,41,41.08,41.08,0,0,0-41-41"/><path class="cls-3" d="M24,29.39c.24,6.2,4.42,12.2,8,17A63.55,63.55,0,0,0,43.24,58.3a53.19,53.19,0,0,0,8.66,5.76c1.87,1,3.12,1.58,5.29,1,3.34-.94,11-4.88,9.72-9.18-.65-2.19-3.31-4.32-5-5.71-2-1.67-5.6-4.61-8-1.87C52.52,49.64,51,52.78,48.81,53c-2.4.23-4.52-2.54-6-4.06a59,59,0,0,1-6.63-8.08c-1.84-3,.46-4.25,2.7-5.89,1-.75,2.32-1.45,2.82-2.68.93-2.3-1.26-5.14-2.51-6.91a29,29,0,0,0-4.08-4.56c-2-1.79-4.17-.36-5.83,1.06A17.76,17.76,0,0,0,24,29.39"/></g></svg>