<svg xmlns="http://www.w3.org/2000/svg" viewBox="0 0 232.47 87.4"><path fill="#fff" d="M105.79 53.59l-3.37-10.34-3.58 10.34H95.6l-7.01-21h3.18l5.68 17.61 3.68-10.54-2.29-7.07h3.21l5.31 17.14 5.75-17.14h3.24l-7.29 21h-3.27zm13.71-10.47a11.76 11.76 0 012.5-7.82 8.83 8.83 0 0113.3 0 11.66 11.66 0 012.55 7.82 11.6 11.6 0 01-2.55 7.79 8.87 8.87 0 01-13.28 0 11.6 11.6 0 01-2.55-7.79m3 0A8.92 8.92 0 00124.2 49a5.49 5.49 0 004.47 2 5.58 5.58 0 004.53-2 8.92 8.92 0 001.71-5.84 9 9 0 00-1.71-5.88 5.56 5.56 0 00-4.53-2.08 5.47 5.47 0 00-4.47 2.08 9 9 0 00-1.7 5.88m19.98-.04A11.71 11.71 0 01145 35.3a8.83 8.83 0 0113.3 0 11.71 11.71 0 012.54 7.82 11.65 11.65 0 01-2.54 7.79 8.87 8.87 0 01-13.28 0 11.6 11.6 0 01-2.55-7.79m3 0a9 9 0 001.7 5.84 5.51 5.51 0 004.48 2.04 5.58 5.58 0 004.52-2 8.86 8.86 0 001.72-5.84 9 9 0 00-1.72-5.88 5.56 5.56 0 00-4.52-2.08 5.49 5.49 0 00-4.48 2.08 9.09 9.09 0 00-1.7 5.88m38.45 10.43V37.63l-6.54 9.54h-.56l-6.55-9.54v15.96h-3.02v-21h2.96l6.89 10.1 6.88-10.1h2.97v21h-3.03zm8.77 0l7.32-21h3.49l7 21h-3l-1.5-4.72h-8.71l-1.57 4.72zm9.05-18l-3.67 11h7.16zm28.04 18l-10.99-15.93v15.93h-3v-21h2.63l10.99 15.97V32.59h3.06v21h-2.69zM90.84 87.09v-21H99a6.18 6.18 0 014.66 1.91 7.71 7.71 0 011.85 5.56 7.51 7.51 0 01-1.9 5.36A6.07 6.07 0 0199 81h-5.13v6.14zm7.57-18.34h-4.54v9.54h4.54a3.7 3.7 0 002.84-1.29 4.94 4.94 0 001.17-3.43 5.12 5.12 0 00-1.14-3.57 3.74 3.74 0 00-2.87-1.25m12.38 7.88a11.72 11.72 0 012.54-7.83 8.84 8.84 0 0113.29 0 11.67 11.67 0 012.55 7.83 11.59 11.59 0 01-2.55 7.78 8.87 8.87 0 01-13.28 0 11.59 11.59 0 01-2.55-7.78m3 0a8.91 8.91 0 001.7 5.83 5.5 5.5 0 004.51 2.07 5.58 5.58 0 004.52-2.07 8.91 8.91 0 001.71-5.83 9 9 0 00-1.71-5.89 5.56 5.56 0 00-4.52-2.08 5.48 5.48 0 00-4.48 2.08 9 9 0 00-1.7 5.89m35.82 10.46l-3.36-10.34-3.59 10.34h-3.24l-7.01-21h3.18l5.69 17.61 3.67-10.53-2.29-7.08h3.22l5.31 17.14 5.74-17.14h3.25l-7.29 21h-3.28zm29.68 0h-13.96v-21h13.96v2.69h-11.06v6.12h9.15v2.65h-9.15v6.89h11.06v2.65zm6.36 0v-21H194a6.08 6.08 0 014.54 1.83 6.71 6.71 0 011.79 4.91 6.32 6.32 0 01-1.6 4.44 6.2 6.2 0 01-4 2c.23.27.58.72 1.07 1.35s.88 1.13 1.2 1.51.7.79 1.14 1.23a5.47 5.47 0 001.32 1 2.83 2.83 0 001.29.34 4.31 4.31 0 002-.59l.34 2.44a6.09 6.09 0 01-3.12.8 4.79 4.79 0 01-2.86-1.06 11.64 11.64 0 01-2.38-2.29c-.64-.87-1.32-1.78-2-2.74a9.51 9.51 0 00-1.73-1.9h-2.25v7.75zm3-18.34v8.15h4.54a4 4 0 002.86-1.08 3.91 3.91 0 001.12-3 3.74 3.74 0 00-4-4.11zM35.67 0A35.71 35.71 0 000 35.67l3.28 47.26A4.69 4.69 0 008 87.4h55.4a4.67 4.67 0 004.65-4.4l3.29-47.2v-.09A35.71 35.71 0 0035.67 0m27.7 84.8H39.76c1.41-5.43 6.32-8.19 11.93-11.33S63.34 67 67 60.39l-1.55 22.42a2.09 2.09 0 01-2.08 2M8 84.8a2.09 2.09 0 01-2.08-2L4.33 60.4C8 67 14.07 70.36 19.65 73.47s10.52 5.9 11.93 11.33zM17.53 8c-5.45 13 .47 30.24 6.13 47 1.22 3.58 2.44 7.2 3.58 10.81-2-3.63-4.25-7.15-6.46-10.63C14 44.5 7.5 34.28 8.63 22.75a20 20 0 018.83-14.66zm12.92-5c-8.81 13.42-5.53 37-2.08 58.65-.81-2.48-1.66-5-2.49-7.42-5.15-15.14-10.06-29.59-7.54-41a12.85 12.85 0 019.59-9.68q1.25-.3 2.52-.51m13 .51A12.86 12.86 0 0153 13.21c2.52 11.45-2.39 25.9-7.54 41-.83 2.46-1.68 4.94-2.49 7.42C46.42 40.05 49.7 16.44 40.89 3c.85.14 1.69.31 2.53.51m10.46 4.58a20 20 0 018.83 14.66c1.13 11.53-5.36 21.75-12.15 32.43-2.21 3.48-4.45 7-6.46 10.63 1.14-3.61 2.36-7.23 3.58-10.81 5.7-16.76 11.58-34 6.13-47l.07.05m13.9 41.35a24.58 24.58 0 01-1.08 5.83c-2.81 8.77-9.57 12.52-16.15 16.2a51.42 51.42 0 00-8 5.15c3.21-6.25 8.24-10.86 13.16-15.36 4.58-4.2 9.26-8.49 12.25-14zm.9-15.67a24.57 24.57 0 010 3.21c-1 10.12-7.58 16.16-14.55 22.55a100.83 100.83 0 00-8.43 8.37c2.09-3.89 4.5-7.68 6.88-11.42C59.79 45 67.26 33.28 64.63 19.72a32.93 32.93 0 014.05 14M3.41 47.17c3 5.56 7.67 9.85 12.25 14 4.92 4.5 10 9.11 13.16 15.36a51.42 51.42 0 00-8-5.15C14.21 67.75 7.46 64 4.64 55.25a24.66 24.66 0 01-1.08-5.84zm15.39 9.27c2.38 3.74 4.79 7.53 6.88 11.42a100.83 100.83 0 00-8.43-8.37C10.28 53.1 3.68 47.06 2.7 36.94a24.57 24.57 0 010-3.21 32.8 32.8 0 014.06-14C4.09 33.28 11.55 45 18.8 56.44M35.69 2.92c1.74 0 3 2 3.7 3.07 7.81 13.26 3.55 36.6.37 58.45-1.06 7.24-1.64 14.1-2.22 20.36h-3.7c-.58-6.26-1.16-13.12-2.21-20.36C28.44 42.59 24.18 19.25 32 6c.66-1.12 2-3.07 3.7-3.07"/></svg>