<svg xmlns="http://www.w3.org/2000/svg" width="40.062" height="37" viewBox="0 0 40.062 37"><path id="形狀_1" data-name="形狀 1" d="M452.258 1216.83c-.71.7-1.42 1.41-2.129 2.12l-1.724 1.71a18.687 18.687 0 011.759 7.85 20 20 0 01-.254 3.01 18.371 18.371 0 01-4.919 9.8 18.58 18.58 0 01-15.424 5.59 19.7 19.7 0 01-5.786-1.59 18.476 18.476 0 01-10.75-18.13 18.114 18.114 0 011.275-5.53 19.423 19.423 0 013-5.02 18.625 18.625 0 0120.524-5.57 18.984 18.984 0 017.434 4.96c1.032-1.03 2.064-2.05 3.095-3.08a2.81 2.81 0 013.894 0 2.77 2.77 0 01.005 3.88zm-11.191-.57a17.485 17.485 0 00-3.435-2 17.213 17.213 0 00-3.987-1.08 16.916 16.916 0 00-4.146 0 17.2 17.2 0 00-3.987 1.08 15.547 15.547 0 00-8.246 8.21 17.145 17.145 0 00-1.09 3.97 17.4 17.4 0 000 4.13 16.876 16.876 0 001.09 3.97 15.557 15.557 0 004.811 6.21 17.529 17.529 0 003.435 2.01 17.229 17.229 0 003.989 1.08 17.931 17.931 0 004.142 0 17.229 17.229 0 003.989-1.08 17.529 17.529 0 003.435-2.01 15.443 15.443 0 005.9-10.18 15.556 15.556 0 000-4.12 16.957 16.957 0 00-.908-3.45c-1.741 1.73-3.482 3.47-5.223 5.2-1.944 1.94-3.888 3.87-5.832 5.81a2.8 2.8 0 01-3.893 0c-.294-.29-.587-.59-.88-.88q-3.066-3.06-6.131-6.11a2.748 2.748 0 113.893-3.88c.293.29.587.58.88.88l4.186 4.17.181-.18q4.646-4.62 9.292-9.25l.569-.57a18.22 18.22 0 00-2.034-1.93z" transform="translate(-412.969 -1210)" fill="#ff4439" fill-rule="evenodd"/></svg>