<svg xmlns="http://www.w3.org/2000/svg" viewBox="0 0 204.14 204.14"><defs><style>.a{fill:#4d4d4d;}</style></defs><path class="a" d="M102.07,36.81C67.65,36.81,39.65,64,39.65,97.49a60,60,0,0,0,20.69,45.12l-1,24.72,23.18-12.18a64.07,64.07,0,0,0,19.53,3c34.42,0,62.42-27.22,62.42-60.69s-28-60.68-62.42-60.68M67.59,154.31l.6-15.18-1.48-1.22A52.25,52.25,0,0,1,47.35,97.49c0-29.21,24.55-53,54.72-53s54.72,23.77,54.72,53-24.55,53-54.72,53a56,56,0,0,1-18.59-3.14l-1.58-.55Z"/><polygon class="a" points="135.12 77.61 110.23 95.9 93.9 83.7 69.02 119.31 93.91 101.01 110.24 113.22 135.12 77.61"/></svg>