<svg xmlns="http://www.w3.org/2000/svg" width="40" height="40" viewBox="0 0 40 40"><path d="M28.73 28.44l-1.44-11-.29.08c-2.42.63-4.84 1.27-7.27 1.89a.45.45 0 00-.39.4c-.21 1.12-.44 2.24-.68 3.36a.75.75 0 01-.24.37c-.27.22-.56.4-.89.63 0-.75-.08-1.44-.12-2.13-.05-1-.1-1.93-.16-2.89a1 1 0 00-.19-.48q-1.42-1.81-2.87-3.62l-.19-.27c.45 0 .86-.1 1.27-.13.08 0 .17.08.25.14l2.79 2.11a.32.32 0 00.39 0l6.89-3.49.17-.1-6.14-9.1a.79.79 0 01.13 0c.75 0 1.51-.06 2.26-.07a.64.64 0 01.36.17c2.38 2.32 4.77 4.65 7.14 7a.66.66 0 00.82.17 26.25 26.25 0 015.84-1.63 7.32 7.32 0 013 .08c.23.07.45.18.67.26s.22.18.14.37a4.49 4.49 0 01-1.13 1.59 13.37 13.37 0 01-3.65 2.35c-1.13.53-2.28 1-3.43 1.47a.38.38 0 00-.28.38c-.24 3.38-.49 6.76-.73 10.14a.64.64 0 01-.24.48c-.58.46-1.15.94-1.79 1.47z" fill="#4b4b4b"/><path d="M17.84 27.59v-1.86l.24-.1a9.93 9.93 0 00.92-.52v2.51h4.57a.58.58 0 00.3 0c.06 0 0-.13.07-.24a18.24 18.24 0 00.63-4.09 2.53 2.53 0 000-.29h-4.29l.23-1.16h4.07c0-.47 0-.91-.1-1.35l-.05-.6.57-.15.56-.15.19 2.22h.57s.06.39.09.69c0 .15 0 .3.06.48h-.64l-.68 4.65h1.93l.16 1.16H25a3 3 0 00-.31 0l-.07.25a10.29 10.29 0 01-2.66 4.08 5.62 5.62 0 00-.44.41 11.43 11.43 0 006.1-4.07 1.6 1.6 0 002.19.14 2 2 0 01-.16.28 13.47 13.47 0 01-22.95-.82c-.23-.41-.25-.32.13-.6a10.38 10.38 0 011.24-.81h3.69c-.11-.5-.2-.95-.31-1.4 0-.11-.07-.31-.07-.31l.28-.12c.26-.09.51-.22.81-.34 0 .18.07.34.1.5.13.56.26 1.11.42 1.66h4.71zm-4.45 1.19a9 9 0 002 3.14A9.78 9.78 0 0016.88 33a4.25 4.25 0 00.93.33v-4.55zm5.62 0v4.53c1.65-.14 4.11-2.7 4.38-4.53zm-10.27 0a11.87 11.87 0 006.67 4.8c-.36-.34-.67-.6-.95-.89a10.92 10.92 0 01-2.3-3.9H8.74z" fill="#4b4b4b"/><path d="M13.68 16.91l.2.24c.48.61.94 1.23 1.45 1.81a1.79 1.79 0 01.46 1.24c0 .69.06 1.37.11 2.05a2.54 2.54 0 010 .29l-.27.12A45.55 45.55 0 009 25.37a17.73 17.73 0 00-4.2 2.81 5.17 5.17 0 00-1.6 2.7 1.6 1.6 0 00.66 1.73 6.94 6.94 0 002.7 1.21c.91.22 1.85.34 2.78.5h.41v.08c-.58.11-1.15.23-1.73.33a11.73 11.73 0 01-4.3 0A4.41 4.41 0 010 30.34a7.13 7.13 0 011.4-4.23 16.94 16.94 0 013.37-3.6 48.1 48.1 0 018.8-5.58z" fill="#4b4b4b"/><path d="M5.07 20.24c.2-.75.37-1.52.62-2.26a13.47 13.47 0 0114-9c.68.07 1.32.2 1.32.2s.35.49.69 1l1.59 2.34.18.26c-.46.22-.9.44-1.34.63l-.16.06a1.13 1.13 0 00-.13-.16c-.45-.4-.87-.84-1.34-1.21a3.2 3.2 0 00-1.5-.64V15l-.22.12-.19.09-.28-.21-.5-.35v-.67c.05-.83 0-1.67 0-2.54a2.33 2.33 0 00-.45.1 4.52 4.52 0 00-2 1.31l-.25.25h-.34c-.41 0-.81.09-1.25.14a8.34 8.34 0 011.86-2C13.56 11.37 9.89 14 8.8 16H12l-.23.19c-.13.07-.26.13-.39.21-.48.32-1.37.78-1.37.78H8.05a1.24 1.24 0 00-.1.22c-.09.23-.16.47-.26.71s-.22.55-.22.55a5.4 5.4 0 01-.54.38c-.53.33-1 .72-1.54 1.08l-.24.16z" fill="#4b4b4b"/></svg>