<svg version="1.1" id="圖層_1" xmlns="http://www.w3.org/2000/svg" x="0" y="0" viewBox="0 0 1222.5 326.7" xml:space="preserve"><style>.st0{fill:#d15745}.st1,.st2{fill:#6a6664}.st2{stroke:#6a6664;stroke-width:3;stroke-miterlimit:10}</style><path class="st0" d="M593.8 268.4H584v32.2c0 1.9-.4 3.2-1.2 4.1-.8.9-1.9 1.3-3.2 1.3-1.3 0-2.4-.5-3.3-1.4-.8-.9-1.3-2.3-1.3-4.1v-32.2h-9.8c-1.5 0-2.7-.3-3.4-1-.7-.7-1.1-1.6-1.1-2.7 0-1.2.4-2.1 1.2-2.7.8-.7 1.9-1 3.4-1h28.6c1.6 0 2.7.3 3.5 1 .8.7 1.1 1.6 1.1 2.7s-.4 2-1.2 2.7c-.8.7-2 1.1-3.5 1.1zm28.5 22.9h-16.2c0 1.9.4 3.5 1.1 5 .7 1.4 1.7 2.5 2.9 3.2 1.2.7 2.6 1.1 4 1.1 1 0 1.9-.1 2.7-.3.8-.2 1.6-.6 2.4-1.1.8-.5 1.5-1 2.1-1.6.6-.6 1.5-1.3 2.5-2.3.4-.4 1-.5 1.8-.5s1.5.2 2.1.7.8 1.1.8 2c0 .7-.3 1.6-.9 2.6-.6 1-1.5 2-2.6 2.9-1.2.9-2.7 1.7-4.4 2.3-1.8.6-3.8.9-6.2.9-5.3 0-9.4-1.5-12.4-4.5-2.9-3-4.4-7.1-4.4-12.3 0-2.4.4-4.7 1.1-6.8.7-2.1 1.8-3.9 3.2-5.4 1.4-1.5 3.1-2.6 5.1-3.4 2-.8 4.3-1.2 6.8-1.2 3.2 0 6 .7 8.3 2 2.3 1.4 4 3.1 5.2 5.3 1.1 2.2 1.7 4.4 1.7 6.6 0 2.1-.6 3.4-1.8 4-1.1.5-2.8.8-4.9.8zm-16.2-4.7h15c-.2-2.8-1-4.9-2.3-6.3-1.3-1.4-3.1-2.1-5.2-2.1s-3.7.7-5.1 2.1c-1.3 1.4-2.1 3.5-2.4 6.3zm50.8 14.8c-2 1.6-3.9 2.7-5.8 3.5-1.9.8-4 1.2-6.3 1.2-2.1 0-4-.4-5.6-1.3-1.6-.8-2.8-2-3.7-3.4-.9-1.4-1.3-3-1.3-4.7 0-2.3.7-4.2 2.1-5.8s3.4-2.7 5.9-3.2c.5-.1 1.8-.4 3.9-.8 2.1-.4 3.9-.8 5.3-1.2 1.5-.4 3.1-.8 4.8-1.3-.1-2.2-.5-3.8-1.3-4.8s-2.4-1.5-4.8-1.5c-2.1 0-3.7.3-4.7.9-1.1.6-2 1.5-2.7 2.6-.8 1.2-1.3 1.9-1.6 2.3-.3.4-1 .6-2 .6-.9 0-1.7-.3-2.4-.9-.7-.6-1-1.4-1-2.3 0-1.5.5-2.9 1.5-4.2 1-1.4 2.6-2.5 4.8-3.4 2.2-.9 4.9-1.3 8.1-1.3 3.6 0 6.5.4 8.6 1.3 2.1.9 3.5 2.2 4.4 4.1.9 1.9 1.3 4.3 1.3 7.4v9.4c0 1.6.3 3.2.8 4.9.5 1.7.8 2.8.8 3.3 0 .8-.4 1.6-1.2 2.3-.8.7-1.7 1-2.7 1-.8 0-1.7-.4-2.5-1.2-.9-.8-1.7-2-2.7-3.5zm-.5-12c-1.2.4-3 .9-5.3 1.4-2.3.5-3.9.9-4.8 1.1-.9.2-1.7.7-2.5 1.4s-1.2 1.6-1.2 2.8c0 1.3.5 2.3 1.4 3.2.9.9 2.2 1.3 3.7 1.3 1.6 0 3.1-.4 4.5-1.1 1.4-.7 2.4-1.6 3-2.8.7-1.3 1.1-3.3 1.1-6.2v-1.1zm46.1 6.4c0 1-.3 2.1-.9 3.3-.6 1.2-1.6 2.3-2.8 3.3-1.3 1.1-2.9 1.9-4.8 2.6-1.9.6-4.1 1-6.5 1-5.1 0-9.1-1.5-12-4.5-2.9-3-4.3-7-4.3-12 0-3.4.7-6.4 2-9 1.3-2.6 3.2-4.6 5.7-6 2.5-1.4 5.4-2.1 8.9-2.1 2.1 0 4.1.3 5.9.9s3.3 1.4 4.5 2.4 2.2 2 2.8 3.2c.7 1.1 1 2.2 1 3.1 0 1-.4 1.8-1.1 2.5-.7.7-1.6 1-2.7 1-.7 0-1.3-.2-1.7-.5-.5-.4-1-.9-1.5-1.7-1-1.5-2.1-2.7-3.2-3.5-1.1-.8-2.5-1.2-4.2-1.2-2.4 0-4.4 1-5.9 2.9s-2.2 4.5-2.2 7.8c0 1.6.2 3 .6 4.3.4 1.3.9 2.4 1.7 3.3.7.9 1.6 1.6 2.6 2.1s2.2.7 3.4.7c1.7 0 3.1-.4 4.3-1.2 1.2-.8 2.2-1.9 3.1-3.5.5-.9 1-1.7 1.6-2.2.6-.5 1.3-.8 2.1-.8 1 0 1.8.4 2.5 1.2.8.9 1.1 1.8 1.1 2.6zm13.8-30.6v12.3c1-1.2 2.1-2.2 3.1-2.9 1-.7 2.1-1.2 3.3-1.6 1.2-.4 2.5-.5 3.9-.5 2.1 0 4 .4 5.6 1.3 1.6.9 2.9 2.2 3.8 3.9.6 1 1 2.1 1.2 3.3.2 1.2.3 2.6.3 4.2V301c0 1.7-.4 2.9-1.1 3.8-.8.8-1.8 1.3-3 1.3-2.7 0-4.1-1.7-4.1-5v-14c0-2.6-.4-4.7-1.2-6.1-.8-1.4-2.3-2.1-4.5-2.1-1.5 0-2.8.4-4 1.3-1.2.8-2.1 2-2.6 3.4-.4 1.2-.7 3.4-.7 6.6V301c0 1.6-.4 2.9-1.1 3.7-.7.9-1.8 1.3-3.1 1.3-2.7 0-4.1-1.7-4.1-5v-35.8c0-1.7.4-2.9 1.1-3.8.7-.8 1.7-1.3 3-1.3s2.3.4 3.1 1.3c.7.9 1.1 2.2 1.1 3.8zm52.4 26.1h-16.2c0 1.9.4 3.5 1.1 5 .7 1.4 1.7 2.5 2.9 3.2 1.2.7 2.6 1.1 4 1.1 1 0 1.9-.1 2.7-.3.8-.2 1.6-.6 2.4-1.1.8-.5 1.5-1 2.1-1.6.6-.6 1.5-1.3 2.5-2.3.4-.4 1-.5 1.8-.5s1.5.2 2.1.7.8 1.1.8 2c0 .7-.3 1.6-.9 2.6-.6 1-1.5 2-2.6 2.9-1.2.9-2.7 1.7-4.4 2.3-1.8.6-3.8.9-6.2.9-5.3 0-9.4-1.5-12.4-4.5-2.9-3-4.4-7.1-4.4-12.3 0-2.4.4-4.7 1.1-6.8.7-2.1 1.8-3.9 3.2-5.4 1.4-1.5 3.1-2.6 5.1-3.4 2-.8 4.3-1.2 6.8-1.2 3.2 0 6 .7 8.3 2 2.3 1.4 4 3.1 5.2 5.3 1.1 2.2 1.7 4.4 1.7 6.6 0 2.1-.6 3.4-1.8 4-1.1.5-2.8.8-4.9.8zm-16.2-4.7h15c-.2-2.8-1-4.9-2.3-6.3-1.3-1.4-3.1-2.1-5.2-2.1s-3.7.7-5.1 2.1c-1.3 1.4-2.1 3.5-2.4 6.3zm38.2 7.5v6.9c0 1.7-.4 2.9-1.2 3.8-.8.8-1.8 1.3-3 1.3s-2.2-.4-2.9-1.3c-.8-.8-1.2-2.1-1.2-3.8v-23c0-3.7 1.3-5.6 4-5.6 1.4 0 2.4.4 3 1.3.6.9.9 2.1 1 3.8 1-1.7 2-3 3-3.8 1-.9 2.4-1.3 4.2-1.3 1.7 0 3.4.4 5.1 1.3 1.6.9 2.5 2 2.5 3.5 0 1-.3 1.8-1 2.5s-1.4 1-2.3 1c-.3 0-1-.2-2.2-.6-1.2-.4-2.2-.6-3.1-.6-1.2 0-2.2.3-3 1-.8.6-1.4 1.6-1.8 2.8-.4 1.3-.7 2.7-.9 4.5-.2 1.8-.2 3.9-.2 6.3zm44 1.2c0 2.3-.6 4.2-1.7 5.9-1.1 1.6-2.7 2.9-4.9 3.7s-4.8 1.3-7.9 1.3c-3 0-5.5-.5-7.6-1.4-2.1-.9-3.7-2-4.7-3.4s-1.5-2.7-1.5-4.1c0-.9.3-1.7 1-2.3.6-.6 1.5-1 2.5-1 .9 0 1.5.2 2 .6.5.4.9 1 1.3 1.8.8 1.5 1.9 2.6 3 3.3 1.2.7 2.8 1.1 4.8 1.1 1.7 0 3-.4 4.1-1.1 1.1-.7 1.6-1.6 1.6-2.5 0-1.5-.5-2.5-1.6-3.2-1.1-.7-2.9-1.3-5.4-1.9-2.8-.7-5.2-1.4-6.9-2.2-1.8-.8-3.2-1.8-4.3-3.1-1.1-1.3-1.6-2.8-1.6-4.7 0-1.7.5-3.2 1.5-4.7s2.4-2.6 4.4-3.5c1.9-.9 4.3-1.3 7-1.3 2.1 0 4.1.2 5.8.7 1.7.4 3.1 1 4.3 1.8 1.1.7 2 1.6 2.6 2.5.6.9.9 1.8.9 2.7 0 .9-.3 1.7-1 2.3-.6.6-1.5.9-2.7.9-.8 0-1.6-.2-2.2-.7-.6-.5-1.3-1.2-2-2.2-.6-.8-1.4-1.5-2.2-1.9-.8-.5-2-.7-3.5-.7s-2.7.3-3.7 1c-1 .6-1.5 1.4-1.5 2.4 0 .9.4 1.6 1.1 2.1s1.7 1 2.9 1.4 2.9.8 5.1 1.3c2.6.6 4.7 1.4 6.3 2.2 1.6.9 2.9 1.9 3.7 3.1.5.9 1 2.2 1 3.8zm26.6-26.7c-1.1 0-2.1-.4-3-1.1-.8-.7-1.2-1.7-1.2-3 0-1.2.4-2.1 1.3-2.9s1.8-1.1 2.9-1.1c1.1 0 2 .3 2.8 1 .8.7 1.2 1.7 1.2 3s-.4 2.3-1.2 3c-.7.8-1.7 1.1-2.8 1.1zm4.1 8.6V301c0 1.7-.4 2.9-1.2 3.8-.8.8-1.8 1.3-3 1.3s-2.2-.4-3-1.3c-.8-.9-1.1-2.1-1.1-3.7v-23.6c0-1.6.4-2.9 1.1-3.7.8-.8 1.7-1.2 3-1.2s2.2.4 3 1.2 1.2 1.9 1.2 3.4zm35.2 18.1c0 2.3-.6 4.2-1.7 5.9-1.1 1.6-2.7 2.9-4.9 3.7s-4.8 1.3-7.9 1.3c-3 0-5.5-.5-7.6-1.4-2.1-.9-3.7-2-4.7-3.4s-1.5-2.7-1.5-4.1c0-.9.3-1.7 1-2.3.6-.6 1.5-1 2.5-1 .9 0 1.5.2 2 .6.5.4.9 1 1.3 1.8.8 1.5 1.9 2.6 3 3.3 1.2.7 2.8 1.1 4.8 1.1 1.7 0 3-.4 4.1-1.1 1.1-.7 1.6-1.6 1.6-2.5 0-1.5-.5-2.5-1.6-3.2-1.1-.7-2.9-1.3-5.4-1.9-2.8-.7-5.2-1.4-6.9-2.2-1.8-.8-3.2-1.8-4.3-3.1-1.1-1.3-1.6-2.8-1.6-4.7 0-1.7.5-3.2 1.5-4.7s2.4-2.6 4.4-3.5c1.9-.9 4.3-1.3 7-1.3 2.1 0 4.1.2 5.8.7 1.7.4 3.1 1 4.3 1.8 1.1.7 2 1.6 2.6 2.5.6.9.9 1.8.9 2.7 0 .9-.3 1.7-1 2.3-.6.6-1.5.9-2.7.9-.8 0-1.6-.2-2.2-.7-.6-.5-1.3-1.2-2-2.2-.6-.8-1.4-1.5-2.2-1.9-.8-.5-2-.7-3.5-.7s-2.7.3-3.7 1c-1 .6-1.5 1.4-1.5 2.4 0 .9.4 1.6 1.1 2.1s1.7 1 2.9 1.4 2.9.8 5.1 1.3c2.6.6 4.7 1.4 6.3 2.2 1.6.9 2.9 1.9 3.7 3.1.5.9 1 2.2 1 3.8zm32.1-29.7v12.7h19.4v-12.7c0-1.8.4-3.2 1.2-4.1.8-.9 1.9-1.4 3.2-1.4 1.4 0 2.4.4 3.3 1.3.8.9 1.3 2.3 1.3 4.1v35c0 1.8-.4 3.2-1.3 4.1-.8.9-1.9 1.4-3.3 1.4s-2.4-.5-3.2-1.4c-.8-.9-1.2-2.3-1.2-4.1v-14.9h-19.4v14.9c0 1.8-.4 3.2-1.3 4.1-.8.9-1.9 1.4-3.3 1.4s-2.4-.5-3.2-1.4c-.8-.9-1.2-2.3-1.2-4.1v-35c0-1.8.4-3.2 1.2-4.1.8-.9 1.9-1.4 3.3-1.4s2.4.4 3.3 1.3c.7 1.1 1.2 2.5 1.2 4.3zm60.5 25.7H977c0 1.9.4 3.5 1.1 5 .7 1.4 1.7 2.5 2.9 3.2 1.2.7 2.6 1.1 4 1.1 1 0 1.9-.1 2.7-.3.8-.2 1.6-.6 2.4-1.1.8-.5 1.5-1 2.1-1.6.6-.6 1.5-1.3 2.5-2.3.4-.4 1-.5 1.8-.5s1.5.2 2.1.7c.5.5.8 1.1.8 2 0 .7-.3 1.6-.9 2.6-.6 1-1.5 2-2.6 2.9-1.2.9-2.7 1.7-4.4 2.3-1.8.6-3.8.9-6.2.9-5.3 0-9.4-1.5-12.4-4.5-2.9-3-4.4-7.1-4.4-12.3 0-2.4.4-4.7 1.1-6.8.7-2.1 1.8-3.9 3.2-5.4 1.4-1.5 3.1-2.6 5.1-3.4 2-.8 4.3-1.2 6.8-1.2 3.2 0 6 .7 8.3 2 2.3 1.4 4 3.1 5.2 5.3 1.1 2.2 1.7 4.4 1.7 6.6 0 2.1-.6 3.4-1.8 4-1.1.5-2.7.8-4.9.8zm-16.2-4.7h15c-.2-2.8-1-4.9-2.3-6.3-1.3-1.4-3.1-2.1-5.2-2.1s-3.7.7-5.1 2.1c-1.3 1.4-2.1 3.5-2.4 6.3zm38.2 7.5v6.9c0 1.7-.4 2.9-1.2 3.8-.8.8-1.8 1.3-3 1.3s-2.2-.4-2.9-1.3c-.8-.8-1.2-2.1-1.2-3.8v-23c0-3.7 1.3-5.6 4-5.6 1.4 0 2.4.4 3 1.3.6.9.9 2.1 1 3.8 1-1.7 2-3 3-3.8 1-.9 2.4-1.3 4.2-1.3 1.7 0 3.4.4 5.1 1.3 1.6.9 2.5 2 2.5 3.5 0 1-.3 1.8-1 2.5s-1.4 1-2.3 1c-.3 0-1-.2-2.2-.6-1.2-.4-2.2-.6-3.1-.6-1.2 0-2.2.3-3 1-.8.6-1.4 1.6-1.8 2.8-.4 1.3-.7 2.7-.9 4.5-.1 1.8-.2 3.9-.2 6.3zm40.4-2.8h-16.2c0 1.9.4 3.5 1.1 5 .7 1.4 1.7 2.5 2.9 3.2 1.2.7 2.6 1.1 4 1.1 1 0 1.9-.1 2.7-.3.8-.2 1.6-.6 2.4-1.1.8-.5 1.5-1 2.1-1.6.6-.6 1.5-1.3 2.5-2.3.4-.4 1-.5 1.8-.5s1.5.2 2.1.7c.5.5.8 1.1.8 2 0 .7-.3 1.6-.9 2.6-.6 1-1.5 2-2.6 2.9-1.2.9-2.7 1.7-4.4 2.3-1.8.6-3.8.9-6.2.9-5.3 0-9.4-1.5-12.4-4.5-2.9-3-4.4-7.1-4.4-12.3 0-2.4.4-4.7 1.1-6.8.7-2.1 1.8-3.9 3.2-5.4 1.4-1.5 3.1-2.6 5.1-3.4 2-.8 4.3-1.2 6.8-1.2 3.2 0 6 .7 8.3 2 2.3 1.4 4 3.1 5.2 5.3 1.1 2.2 1.7 4.4 1.7 6.6 0 2.1-.6 3.4-1.8 4-1 .5-2.7.8-4.9.8zm-16.1-4.7h15c-.2-2.8-1-4.9-2.3-6.3-1.3-1.4-3.1-2.1-5.2-2.1s-3.7.7-5.1 2.1c-1.3 1.4-2.1 3.5-2.4 6.3zm178-224.2c-3-3-6.9-4.5-11.6-4.5h-58.8v-4.5c0-8.2-4.5-12.7-12.7-12.7s-12.7 4.5-12.7 12.7v4.5h-57.5c-4.7 0-8.6 1.5-11.6 4.5s-4.5 6.9-4.5 11.6v20.1c0 7.7 4.5 12.1 12.3 12.1 7.7 0 12.1-4.4 12.1-12.1v-11c0-1.7.4-2.1 2.1-2.1h120.8c1.7 0 2.1.4 2.1 2.1v10.8c0 7.9 4.4 12.3 12.5 12.3 7.8 0 12.3-4.5 12.3-12.3V74.1c-.3-4.8-1.8-8.7-4.8-11.7z"/><path class="st1" d="M679.9 158.8h-30.7v-14h28.9c4.7 0 8.6-1.5 11.6-4.5s4.5-6.9 4.5-11.6V87.2c0-4.7-1.5-8.6-4.5-11.6s-6.9-4.5-11.6-4.5h-10.4c1.7-4.1 3.4-8.3 5.1-12.7 1.8-4.8 1.8-8.7 0-11.7-1.7-2.8-4.8-4.5-9.3-5.1-7.8-1-12.9 2.9-14.4 10.9-1.1 5.6-2.7 11.8-4.8 18.6h-1.4c-4.7 0-8.6 1.5-11.6 4.5s-4.5 6.9-4.5 17.1v116H508.9c-9.5 0-12.4-1-13.2-1.4-1.2-.6-1.8-2.3-1.8-5v-19.4c28.3-6.8 61.1-17.2 80.7-24.8 1.2-.5 4-1.7 5.9-3.8 2-1.9 3.3-4.7 3.3-7.7 0-5.9-4.8-10.7-10.7-10.7-2.5 0-4.8.9-6.6 2.3-16.5 7.6-49.7 16.6-72.7 22.6v-11c12.6-8.5 23.8-16.5 33.2-23.9h64c7.4 0 11.6-4.2 11.6-11.6 0-7.4-4.2-11.6-11.6-11.6h-37.3c13.2-13 19.9-20.7 29.3-33.5 1.1-1.6 1.9-3.2 2.4-4.7.6-1.3.9-2.8.9-4.3 0-5.9-4.8-10.7-10.7-10.7-1.3 0-2.5.2-3.6.6-2.8.3-5.2 2.2-7.6 5.7-3.4 4.8-5.3 5.7-9.1 9.7-1.8-3.2-5.3-5.4-9.3-5.4-1 0-2 .2-2.9.4h-35.4V47.1c0-8.2-4.5-12.7-12.7-12.7s-12.7 4.5-12.7 12.7v13.5h-36.9c-7.3 0-11.4 4.2-11.4 11.4 0 7.4 4.2 11.6 11.4 11.6h36.9v18.9h-46.8c-7.4 0-11.6 4.2-11.6 11.6 0 7.4 4.2 11.6 11.6 11.6h50.1c-19 12.1-31.3 22.5-52.2 31.2-2.4 1-4.4 2.1-5.8 3.4-5 .9-8.9 5.2-8.9 10.5 0 5.9 4.8 10.7 10.7 10.7 1.1 0 2.1-.2 3.1-.4.8.1 2.1-.4 4.5-1.3 11.1-4.8 21.8-10 32.1-15.6v38.2c0 11.2 2.9 18.9 8.5 23 5.5 3.9 15.4 5.9 30.3 5.9l172 .4c4.7 0 8.6-1.5 11.6-4.5s4.5-6.9 4.5-11.6V175c0-4.7-1.5-8.6-4.5-11.6-2.9-3.1-6.9-4.6-11.6-4.6zm-30.7-63.9c0-1.7.4-2.1 2.1-2.1h18.4c1.7 0 2.1.4 2.1 2.1v26c0 1.7-.4 2.1-2.1 2.1h-20.5V94.9zM507.7 83.7h30.7c-7 7.1-13.9 13.4-20.7 18.9h-10.1V83.7zm165.9 124c0 1.7-.4 2.1-2.1 2.1h-20.3c-1.7 0-2.1-.4-2.1-2.1v-26.9h22.3c1.7 0 2.1.4 2.1 2.1v24.8z"/><path class="st0" d="M955.5 210.4h-39.7c-7.3 0-12.5 4.2-12.5 11.4s5.3 11.4 12.5 11.4h39.7c7.3 0 11.4-4.2 11.4-11.4s-4.1-11.4-11.4-11.4z"/><path class="st1" d="M904.1 140.1c-.5-4.1-2-7-4.5-8.6-2.6-1.7-6-1.9-10.1-.7-1.4.4-.6.3-3.3 1-1 .3-1.9.5-2.7.7v-28.8h10.1c6.3 0 11.6-5.1 11.6-11.4.1-7.5-4.2-11.9-11.6-11.9h-10.1V52.7c0-6.6-5.3-12-11.8-12.1-7.8-.1-12.3 4.3-12.3 12.1v27.7h-15.6c-6.3 0-11.6 5.1-11.6 11.4-.1 7.5 4.2 11.9 11.6 11.9h15.6v35.5c-1.4.4-3.1.8-5.1 1.3-6.8 1.8-11.6 3-14.7 3.8-4 1-6.6 2.7-7.8 5.2-1.1 2.3-1.2 5.3-.4 9.3v.1c1 3.9 2.9 6.7 5.5 8.2 2.6 1.5 5.9 1.7 9.7.6l12.7-3.7v42c0 2.4-1.9 4.3-4.3 4.3h-47.3c-2.4 0-4.3-1.9-4.3-4.3v-99.6c0-4.7-1.5-8.6-4.5-11.6s-6.9-4.5-11.6-4.5h-23.6V73.8h33.8c7.3 0 11.5-4.3 11.4-11.8 0-6.3-5.2-11.3-11.4-11.3H707c-6.3 0-11.4 5-11.4 11.3-.1 7.5 4.1 11.8 11.4 11.8h33.4v16.4h-21.7c-4.7 0-8.6 1.5-11.6 4.5s-4.5 6.9-4.5 11.6v115.2c0 7.3 4.3 11.5 11.8 11.4 6.3 0 11.3-5.2 11.3-11.4V115c0-1.1.9-2.1 2.1-2.1h12.7v109.3c0 6.3 5.1 11.6 11.4 11.6 7.5.1 11.9-4.2 11.9-11.6V112.9h14.6c1.1 0 2.1.9 2.1 2.1v108.2c0 5.6 4.5 10.1 10.1 10.1h77c5.8 0 11-3.4 13.2-8.7.3-.7.6-1.3.8-1.9 1.4-3.2 2.1-7.3 2.1-12.7v-52.9l11.8-3.6c6.5-1.9 9.7-6.7 8.6-13.4z"/><path class="st1" d="M1212.1 194.4c-13.4-8.1-20.4-23.1-29.7-37.8 8.9-5.1 18.6-11.4 28.8-18.8l.1-.1c3.5-2.7 5.3-5.7 5.4-8.8.1-3.1-1.6-6.2-4.9-9.1-5.6-4.7-11.4-4.8-16.6-.4-7.5 6.3-15.4 12.2-23.6 17.6-2.9-6.7-5.6-14.2-8.1-22.4h17.7c6.1 0 11-4.9 11-11 0-7.1-4-11.1-11-11.1h-94.4c-6.1 0-11 4.9-11 11 0 7.1 4 11.1 11 11.1h18c-12.5 6.3-27.4 11.9-44.5 16.5-5.1 1.3-8.1 3.4-9.3 6.4-1.1 2.8-.4 6.1 2.1 9.8 3.3 4.9 8.2 6.5 14.3 4.8 15.3-4.8 28.8-10.1 40.3-15.5 1.2 1 2.4 2.2 3.7 3.4-5.7 4-13 8.1-21.5 12.2-9.5 4.6-19.2 8.4-28.7 11.5-4.7 1.3-7.5 3.3-8.7 5.8-1.3 2.8-.6 6.1 2 10.1 1.9 2.9 4 4.7 6.3 5.5 2.4.8 5.2.5 8.6-.9 20-8.1 38.1-17.5 54-28.2 1.1 2.2 2.1 4.1 2.9 5.6-8.2 7.2-13.1 9.5-25.8 16.3-13 7.1-5.3 3.5-18.8 8-4.9 1.5-7.9 3.8-9.1 6.9-1.1 2.9-.4 6.3 2 10 3.4 5.3 8.7 7 14.9 4.8 12.6-4.8 4.5-1.3 17.7-8.6 11.6-6.5 16.4-8.3 25.6-15.1.4 4.9.2 9.4-.8 13.6-1.1 4.9-2.9 8.3-5.5 10.2l-.3.3c-2.2 2.2-6 5.4-11.3 5.4l-108-.4c-3.1 0-5.8-2-6.8-4.9-1.9-5.9-4.5-16.2-7.2-26.6-3.2-12-5.8-28.6-7.6-49.4h22.9c6.3 0 11.6-5.1 11.6-11.4.1-7.5-4.2-11.9-11.6-11.9h-24.7c-.7-14.4-1.1-26.3-1.3-35.6 6.5-1.4 12.3-2.7 17.2-3.8h.1c5-1.4 7.8-3.5 8.7-6.7.9-3.2-.4-6.7-4-10.6-2.1-2.4-4-3.9-5.8-4.7-2.3-.9-4.8-1-7.6-.1-18.6 5.2-41.1 9.6-66.9 12.9l-6.1.7c-5.9.7-10.5 5.6-10.6 11.5v108.1c-.8.1-.5.3-1.4.5-1.9.3-3.3.5-4 .6-3.8.5-6.6 2-8.3 4.4-1.7 2.5-3.2 5.7-2.4 9.7.8 3.7 3.3 6.3 5.4 7.9 2.2 1.7 5.1 2.2 8.8 1.5 7.5-1.3 18.9-3.6 37-7l8.9-1.7c7-1 10.5-5.5 10-12.4-.3-3.8-1.5-6.6-3.8-8.4-2.3-1.8-5.4-2.3-9.2-1.6-2.3.4-.7.2-5.6.9-4.6.8-8.3 1.4-11.2 1.9V132h30.2c2.5 29.8 6.6 52.7 12.2 67.9 6.7 18.9 7.5 33.1 19.8 33.4l8.8.4v.2h4.6s108.2.8 111.9.8c5.2 0 9.6-.6 13.3-1.8 3.6-1.2 7.4-3.3 11.2-6.4 7.3-5.4 11.9-14.2 13.8-26.4 1.8-12.4.3-25.4-4.6-38.7-5-13.7-13.1-25.9-24-36.2 4.6-2.9 8.8-5.8 12.6-8.8 12.4 46.4 29.1 82.6 58.2 100.8l.1.1c7 3.8 13.2 2.7 18.1-3.2 3.4-4.2 4.4-8.1 3.1-11.5-1.1-3-3.9-5.7-8.6-8.2zm-280.7-85.7V80.9c10.4-1.2 19.5-2.5 27.2-3.7.4 13.4.9 23.9 1.3 31.5h-28.5z"/><path class="st0" d="M801.9 74.4h-99.4c-5.6 0-10.1-4.5-10.1-10.1V61c0-5.6 4.5-10.1 10.1-10.1h99.4c5.6 0 10.1 4.5 10.1 10.1v3.2c0 5.6-4.5 10.2-10.1 10.2zm94.2 29.5h-56.6c-5.3 0-9.5-4.3-9.5-9.5v-4.8c0-5.3 4.3-9.5 9.5-9.5h56.6c5.3 0 9.5 4.3 9.5 9.5v4.8c.1 5.2-4.2 9.5-9.5 9.5zM469 191c.7 0 1.4-.1 2.1-.2 21.3-3.9 102.7-32.4 106.2-33.7 5.9-2.2 9-8.7 6.8-14.7-2.2-5.9-8.7-9-14.7-6.8-23.1 8.4-84.3 29.3-100.4 32.2V191z"/><path class="st2" d="M301.4 149.3c-3.4 0-6.2 2.8-6.2 6.2v138H60.3v-138c0-3.4-2.8-6.2-6.2-6.2s-6.2 2.8-6.2 6.2v144.2c0 3.4 2.8 6.2 6.2 6.2h247.3c3.4 0 6.2-2.8 6.2-6.2V155.6c0-3.5-2.8-6.3-6.2-6.3z"/><path d="M177.7 203.8c-24.9 0-45.1-20.3-45.1-45.1s20.3-45.1 45.1-45.1c24.9 0 45.1 20.2 45.1 45.1s-20.2 45.1-45.1 45.1zm0-77.8c-18 0-32.7 14.6-32.7 32.7s14.6 32.7 32.7 32.7 32.7-14.6 32.7-32.7-14.7-32.7-32.7-32.7z" fill="#eba62b"/><path class="st0" d="M281.6 244.4H183c8.8-9 26.9-14.9 46.7-14.9 15.2 0 29.6 3.5 39.6 9.4 1.7 1 3.8.6 5-1 1.2-1.7.8-4.2-1.1-5.3-11.1-6.7-26.7-10.5-43.5-10.5-7.1 0-14.1.7-21.1 2.1 5.4-2.2 11-4 16.7-5.2 14.8-3.2 29.7-2.8 40.6.9 1.8.6 3.9-.2 4.6-2 .9-2-.1-4.3-2.1-5-12.3-4.2-28.3-4.7-44.7-1.2-20.5 4.4-37.7 14.1-46.1 25.7-8.4-11.6-25.6-21.4-46.1-25.7-16.4-3.5-32.4-3-44.7 1.2-2 .7-3 3-2.1 5 .8 1.8 2.8 2.6 4.6 2 10.9-3.7 25.8-4.1 40.7-.9 5.7 1.2 11.3 2.9 16.7 5.2-6.9-1.4-14-2.1-21.1-2.1-16.8 0-32.3 3.8-43.5 10.5-1.8 1.1-2.3 3.6-1.1 5.3 1.1 1.6 3.3 2 5 1 9.9-5.9 24.4-9.4 39.6-9.4 19.8 0 37.9 5.9 46.7 14.9H73.7c-2.1 0-3.7 1.7-3.7 3.7V263c0 2.1 1.7 3.7 3.7 3.7h207.9c2.1 0 3.7-1.7 3.7-3.7v-14.9c0-2.1-1.6-3.7-3.7-3.7zm-204.2 7.4H174v7.4H77.4v-7.4zm200.5 7.4h-96.5v-7.4h96.5v7.4z"/><path class="st0" d="M281.6 268.2H73.7c-2.9 0-5.3-2.4-5.3-5.3V248c0-2.9 2.4-5.3 5.3-5.3h94.6c-9.3-7.2-25.4-11.7-42.6-11.7-14.9 0-29 3.3-38.8 9.1-2.4 1.4-5.4.8-7-1.4-.9-1.2-1.2-2.7-.9-4.2.3-1.4 1.2-2.7 2.4-3.4 11.5-6.9 27.2-10.7 44.3-10.7 1.4 0 2.8 0 4.2.1-.1 0-.2 0-.2-.1-14.5-3.1-29-2.8-39.8.9-2.6.9-5.5-.3-6.6-2.9-.6-1.4-.6-2.9 0-4.3.6-1.3 1.7-2.4 3.1-2.8 12.7-4.3 28.8-4.8 45.5-1.2 19.8 4.2 36.7 13.4 45.8 24.7 9.1-11.3 26-20.5 45.8-24.7 16.7-3.6 32.8-3.1 45.5 1.2 1.4.5 2.5 1.5 3.1 2.8.6 1.4.6 2.9 0 4.3-1.1 2.5-3.9 3.8-6.6 2.9-10.8-3.6-25.3-4-39.8-.9h-.2c1.4-.1 2.8-.1 4.2-.1 17.1 0 32.8 3.8 44.3 10.7 1.2.7 2.1 2 2.4 3.4.3 1.4 0 3-.9 4.2-1.6 2.2-4.6 2.9-7 1.4-9.8-5.8-23.9-9.1-38.8-9.1-17.2 0-33.3 4.5-42.6 11.7h94.6c2.9 0 5.3 2.4 5.3 5.3v14.9c-.1 3-2.5 5.4-5.4 5.4zM73.7 245.9c-1.2 0-2.2 1-2.2 2.2V263c0 1.2 1 2.2 2.2 2.2h207.9c1.2 0 2.2-1 2.2-2.2v-14.9c0-1.2-1-2.2-2.2-2.2H179.3l2.6-2.7c9.1-9.3 27.8-15.3 47.8-15.3 15.4 0 30.1 3.5 40.4 9.6 1 .6 2.2.3 2.9-.6.4-.5.5-1.1.4-1.7-.1-.6-.5-1.1-1-1.4-11-6.6-26.2-10.2-42.7-10.2-6.9 0-13.9.7-20.7 2.1l-.9-3c5.5-2.3 11.2-4 17-5.3 15.1-3.2 30.2-2.8 41.5 1 1.1.4 2.3-.1 2.7-1.2.2-.6.2-1.2 0-1.8-.2-.5-.7-.9-1.2-1.1-12.2-4.2-27.7-4.6-43.9-1.1-20 4.2-36.9 13.6-45.2 25.1l-1.3 1.7-1.3-1.7c-8.3-11.5-25.2-20.9-45.2-25.1-16.1-3.4-31.7-3-43.9 1.1-.5.2-1 .6-1.2 1.1-.2.6-.2 1.2 0 1.8.4 1 1.6 1.5 2.7 1.2 11.3-3.8 26.4-4.2 41.5-1 5.8 1.2 11.5 3 17 5.3l-.9 3c-6.7-1.4-13.6-2.1-20.5-2.1h-.3c-16.5 0-31.7 3.6-42.7 10.2-.5.3-.8.8-1 1.4-.1.6 0 1.2.4 1.7.7.9 1.9 1.2 2.9.6 10.2-6.1 25-9.6 40.4-9.6 20 0 38.7 6 47.8 15.3l2.6 2.7H73.7zm205.8 14.9h-99.6v-10.5h99.6v10.5zm-96.5-3.2h93.4v-4.3H183v4.3zm-7.5 3.2H75.9v-10.5h99.6v10.5zM79 257.6h93.4v-4.3H79v4.3z"/><path class="st2" d="M181 22.9c-2.8-2.1-6.5-2.1-9.3 0L5.2 146c-1.7 1.2-2.8 3.1-3.1 5.1-.3 2.1.2 4.1 1.4 5.8 2.6 3.5 7.5 4.2 10.9 1.6L176.3 38.9l32 23.8c4.8-3.3 10-5.9 15.4-8L181 22.9zm173.3 131.8c-.3-2.1-1.4-3.9-3.1-5.1L290 104l-.1.1c-2.3 2.3-5.4 3.6-8.6 3.6-1 0-1.9-.1-2.8-.3.6 2.4.4 4.8-.5 7.1l64 47.6c1.4 1 3 1.5 4.7 1.5 2.5 0 4.8-1.2 6.3-3.1 1.1-1.7 1.6-3.7 1.3-5.8z"/><path class="st0" d="M281.2 101c-1.4 0-2.8-.5-3.8-1.6-14.6-14.6-38.4-14.6-53.1 0-2.1 2.1-5.6 2.1-7.7 0s-2.1-5.6 0-7.7c18.9-18.9 49.6-18.9 68.4 0 2.1 2.1 2.1 5.6 0 7.7-1 1-2.4 1.6-3.8 1.6z"/><path class="st0" d="M266.6 115.6c-1.4 0-2.8-.5-3.8-1.6-3.2-3.2-7.4-4.9-11.9-4.9s-8.7 1.7-11.9 4.9c-2.1 2.1-5.6 2.1-7.7 0-2.1-2.1-2.1-5.6 0-7.7 5.2-5.2 12.1-8.1 19.5-8.1s14.3 2.9 19.5 8.1c2.1 2.1 2.1 5.6 0 7.7-1 1.1-2.3 1.6-3.7 1.6z"/><circle class="st0" cx="250.9" cy="125.9" r="7.2"/><path class="st0" d="M296.2 86.1c-1.4 0-2.8-.5-3.8-1.6-22.9-22.9-60-22.9-82.9 0-2.1 2.1-5.6 2.1-7.7 0-2.1-2.1-2.1-5.6 0-7.7 13.1-13.1 30.6-20.4 49.1-20.4s36 7.2 49.1 20.4c2.1 2.1 2.1 5.6 0 7.7-1.1 1-2.5 1.6-3.8 1.6z"/></svg>