<?xml version="1.0" encoding="utf-8"?>
<!-- Generator: Adobe Illustrator 24.2.3, SVG Export Plug-In . SVG Version: 6.00 Build 0)  -->
<svg version="1.1" id="圖層_1" xmlns="http://www.w3.org/2000/svg" xmlns:xlink="http://www.w3.org/1999/xlink" x="0px" y="0px"
	 viewBox="0 0 1222.5 326.7" style="enable-background:new 0 0 1222.5 326.7;" xml:space="preserve">
<style type="text/css">
	.st0{fill:#6A6664;stroke:#6A6664;stroke-width:3;stroke-miterlimit:10;}
	.st1{fill:#EBA62B;}
	.st2{fill:#D15745;}
	.st3{fill:#6A6664;}
</style>
<g>
	<path class="st0" d="M301.4,149.3c-3.4,0-6.2,2.8-6.2,6.2v138H60.3v-138c0-3.4-2.8-6.2-6.2-6.2s-6.2,2.8-6.2,6.2v144.2
		c0,3.4,2.8,6.2,6.2,6.2h247.3c3.4,0,6.2-2.8,6.2-6.2V155.6C307.6,152.1,304.8,149.3,301.4,149.3z"/>
	<g>
		<path class="st1" d="M177.7,203.8c-24.9,0-45.1-20.3-45.1-45.1s20.3-45.1,45.1-45.1c24.9,0,45.1,20.2,45.1,45.1
			S202.6,203.8,177.7,203.8z M177.7,126c-18,0-32.7,14.6-32.7,32.7s14.6,32.7,32.7,32.7s32.7-14.6,32.7-32.7S195.7,126,177.7,126z"
			/>
	</g>
	<g>
		<path class="st2" d="M281.6,244.4H183c8.8-9,26.9-14.9,46.7-14.9c15.2,0,29.6,3.5,39.6,9.4c1.7,1,3.8,0.6,5-1l0,0
			c1.2-1.7,0.8-4.2-1.1-5.3c-11.1-6.7-26.7-10.5-43.5-10.5c-7.1,0-14.1,0.7-21.1,2.1c5.4-2.2,11-4,16.7-5.2
			c14.8-3.2,29.7-2.8,40.6,0.9c1.8,0.6,3.9-0.2,4.6-2l0,0c0.9-2-0.1-4.3-2.1-5c-12.3-4.2-28.3-4.7-44.7-1.2
			c-20.5,4.4-37.7,14.1-46.1,25.7c-8.4-11.6-25.6-21.4-46.1-25.7c-16.4-3.5-32.4-3-44.7,1.2c-2,0.7-3,3-2.1,5l0,0
			c0.8,1.8,2.8,2.6,4.6,2c10.9-3.7,25.8-4.1,40.7-0.9c5.7,1.2,11.3,2.9,16.7,5.2c-6.9-1.4-14-2.1-21.1-2.1
			c-16.8,0-32.3,3.8-43.5,10.5c-1.8,1.1-2.3,3.6-1.1,5.3l0,0c1.1,1.6,3.3,2,5,1c9.9-5.9,24.4-9.4,39.6-9.4
			c19.8,0,37.9,5.9,46.7,14.9H73.7c-2.1,0-3.7,1.7-3.7,3.7V263c0,2.1,1.7,3.7,3.7,3.7h207.9c2.1,0,3.7-1.7,3.7-3.7v-14.9
			C285.3,246,283.7,244.4,281.6,244.4z M77.4,251.8H174v7.4H77.4V251.8z M277.9,259.2h-96.5v-7.4h96.5V259.2z"/>
		<path class="st2" d="M281.6,268.2H73.7c-2.9,0-5.3-2.4-5.3-5.3V248c0-2.9,2.4-5.3,5.3-5.3h94.6c-9.3-7.2-25.4-11.7-42.6-11.7
			c-14.9,0-29,3.3-38.8,9.1c-2.4,1.4-5.4,0.8-7-1.4c-0.9-1.2-1.2-2.7-0.9-4.2c0.3-1.4,1.2-2.7,2.4-3.4c11.5-6.9,27.2-10.7,44.3-10.7
			c1.4,0,2.8,0,4.2,0.1c-0.1,0-0.2,0-0.2-0.1c-14.5-3.1-29-2.8-39.8,0.9c-2.6,0.9-5.5-0.3-6.6-2.9c-0.6-1.4-0.6-2.9,0-4.3
			c0.6-1.3,1.7-2.4,3.1-2.8c12.7-4.3,28.8-4.8,45.5-1.2c19.8,4.2,36.7,13.4,45.8,24.7c9.1-11.3,26-20.5,45.8-24.7
			c16.7-3.6,32.8-3.1,45.5,1.2c1.4,0.5,2.5,1.5,3.1,2.8c0.6,1.4,0.6,2.9,0,4.3c-1.1,2.5-3.9,3.8-6.6,2.9c-10.8-3.6-25.3-4-39.8-0.9
			c-0.1,0-0.1,0-0.2,0c1.4-0.1,2.8-0.1,4.2-0.1c17.1,0,32.8,3.8,44.3,10.7c1.2,0.7,2.1,2,2.4,3.4s0,3-0.9,4.2
			c-1.6,2.2-4.6,2.9-7,1.4c-9.8-5.8-23.9-9.1-38.8-9.1c-17.2,0-33.3,4.5-42.6,11.7h94.6c2.9,0,5.3,2.4,5.3,5.3v14.9
			C286.9,265.8,284.5,268.2,281.6,268.2z M73.7,245.9c-1.2,0-2.2,1-2.2,2.2V263c0,1.2,1,2.2,2.2,2.2h207.9c1.2,0,2.2-1,2.2-2.2
			v-14.9c0-1.2-1-2.2-2.2-2.2H179.3l2.6-2.7c9.1-9.3,27.8-15.3,47.8-15.3c15.4,0,30.1,3.5,40.4,9.6c1,0.6,2.2,0.3,2.9-0.6
			c0.4-0.5,0.5-1.1,0.4-1.7c-0.1-0.6-0.5-1.1-1-1.4c-11-6.6-26.2-10.2-42.7-10.2c-6.9,0-13.9,0.7-20.7,2.1l-0.9-3
			c5.5-2.3,11.2-4,17-5.3c15.1-3.2,30.2-2.8,41.5,1c1.1,0.4,2.3-0.1,2.7-1.2c0.2-0.6,0.2-1.2,0-1.8c-0.2-0.5-0.7-0.9-1.2-1.1
			c-12.2-4.2-27.7-4.6-43.9-1.1c-20,4.2-36.9,13.6-45.2,25.1l-1.3,1.7l-1.3-1.7c-8.3-11.5-25.2-20.9-45.2-25.1
			c-16.1-3.4-31.7-3-43.9,1.1c-0.5,0.2-1,0.6-1.2,1.1c-0.2,0.6-0.2,1.2,0,1.8c0.4,1,1.6,1.5,2.7,1.2c11.3-3.8,26.4-4.2,41.5-1
			c5.8,1.2,11.5,3,17,5.3l-0.9,3c-6.7-1.4-13.6-2.1-20.5-2.1c-0.1,0-0.2,0-0.3,0c-16.5,0-31.7,3.6-42.7,10.2c-0.5,0.3-0.8,0.8-1,1.4
			c-0.1,0.6,0,1.2,0.4,1.7c0.7,0.9,1.9,1.2,2.9,0.6c10.2-6.1,25-9.6,40.4-9.6c20,0,38.7,6,47.8,15.3l2.6,2.7L73.7,245.9L73.7,245.9z
			 M279.5,260.8h-99.6v-10.5h99.6V260.8z M183,257.6h93.4v-4.3H183V257.6z M175.5,260.8H75.9v-10.5h99.6V260.8z M79,257.6h93.4v-4.3
			H79V257.6z"/>
	</g>
	<g>
		<path class="st0" d="M181,22.9c-2.8-2.1-6.5-2.1-9.3,0L5.2,146c-1.7,1.2-2.8,3.1-3.1,5.1c-0.3,2.1,0.2,4.1,1.4,5.8
			c2.6,3.5,7.5,4.2,10.9,1.6L176.3,38.9l32,23.8c4.8-3.3,10-5.9,15.4-8L181,22.9z"/>
		<path class="st0" d="M354.3,154.7c-0.3-2.1-1.4-3.9-3.1-5.1L290,104l-0.1,0.1c-2.3,2.3-5.4,3.6-8.6,3.6c-1,0-1.9-0.1-2.8-0.3
			c0.6,2.4,0.4,4.8-0.5,7.1l64,47.6c1.4,1,3,1.5,4.7,1.5c2.5,0,4.8-1.2,6.3-3.1C354.1,158.8,354.6,156.8,354.3,154.7z"/>
	</g>
	<g>
		<g>
			<g>
				<path class="st2" d="M281.2,101c-1.4,0-2.8-0.5-3.8-1.6c-14.6-14.6-38.4-14.6-53.1,0c-2.1,2.1-5.6,2.1-7.7,0s-2.1-5.6,0-7.7
					c18.9-18.9,49.6-18.9,68.4,0c2.1,2.1,2.1,5.6,0,7.7C284,100.4,282.6,101,281.2,101z"/>
			</g>
			<g>
				<path class="st2" d="M266.6,115.6c-1.4,0-2.8-0.5-3.8-1.6c-3.2-3.2-7.4-4.9-11.9-4.9s-8.7,1.7-11.9,4.9c-2.1,2.1-5.6,2.1-7.7,0
					c-2.1-2.1-2.1-5.6,0-7.7c5.2-5.2,12.1-8.1,19.5-8.1c7.4,0,14.3,2.9,19.5,8.1c2.1,2.1,2.1,5.6,0,7.7
					C269.3,115.1,268,115.6,266.6,115.6z"/>
			</g>
			<g>
				<circle class="st2" cx="250.9" cy="125.9" r="7.2"/>
			</g>
			<g>
				<path class="st2" d="M296.2,86.1c-1.4,0-2.8-0.5-3.8-1.6c-22.9-22.9-60-22.9-82.9,0c-2.1,2.1-5.6,2.1-7.7,0
					c-2.1-2.1-2.1-5.6,0-7.7c13.1-13.1,30.6-20.4,49.1-20.4s36,7.2,49.1,20.4c2.1,2.1,2.1,5.6,0,7.7
					C298.9,85.5,297.5,86.1,296.2,86.1z"/>
			</g>
		</g>
	</g>
</g>
<g>
	<g>
		<path class="st2" d="M581.4,268.1h-9.8v32.3c0,1.9-0.4,3.2-1.2,4.1c-0.8,0.9-1.9,1.3-3.2,1.3c-1.3,0-2.4-0.5-3.3-1.4
			c-0.8-0.9-1.3-2.3-1.3-4.1v-32.3h-9.8c-1.5,0-2.7-0.3-3.4-1c-0.7-0.7-1.1-1.6-1.1-2.7c0-1.2,0.4-2.1,1.2-2.7c0.8-0.7,1.9-1,3.4-1
			h28.6c1.6,0,2.7,0.3,3.5,1c0.8,0.7,1.1,1.6,1.1,2.7c0,1.1-0.4,2-1.2,2.7C584.1,267.8,583,268.1,581.4,268.1z"/>
		<path class="st2" d="M610,291.1h-16.2c0,1.9,0.4,3.5,1.1,5c0.7,1.4,1.7,2.5,2.9,3.2c1.2,0.7,2.6,1.1,4,1.1c1,0,1.9-0.1,2.7-0.3
			c0.8-0.2,1.6-0.6,2.4-1.1c0.8-0.5,1.5-1,2.1-1.6c0.6-0.6,1.5-1.3,2.5-2.3c0.4-0.4,1-0.5,1.8-0.5c0.8,0,1.5,0.2,2.1,0.7
			c0.5,0.5,0.8,1.1,0.8,2c0,0.7-0.3,1.6-0.9,2.6c-0.6,1-1.5,2-2.7,2.9c-1.2,0.9-2.7,1.7-4.5,2.3c-1.8,0.6-3.8,0.9-6.2,0.9
			c-5.3,0-9.4-1.5-12.4-4.5c-3-3-4.4-7.1-4.4-12.3c0-2.4,0.4-4.7,1.1-6.8c0.7-2.1,1.8-3.9,3.2-5.4c1.4-1.5,3.1-2.6,5.2-3.4
			c2-0.8,4.3-1.2,6.8-1.2c3.2,0,6,0.7,8.3,2c2.3,1.4,4,3.1,5.2,5.3c1.2,2.2,1.7,4.4,1.7,6.6c0,2.1-0.6,3.4-1.8,4
			C613.8,290.8,612.2,291.1,610,291.1z M593.8,286.4h15c-0.2-2.8-1-4.9-2.3-6.4c-1.3-1.4-3.1-2.1-5.2-2.1c-2.1,0-3.8,0.7-5.1,2.1
			C594.9,281.5,594.1,283.6,593.8,286.4z"/>
		<path class="st2" d="M644.7,301.2c-2,1.6-3.9,2.7-5.8,3.5c-1.9,0.8-4,1.2-6.3,1.2c-2.1,0-4-0.4-5.6-1.3c-1.6-0.8-2.8-2-3.7-3.4
			c-0.9-1.4-1.3-3-1.3-4.7c0-2.3,0.7-4.2,2.2-5.8c1.4-1.6,3.4-2.7,5.9-3.2c0.5-0.1,1.8-0.4,3.9-0.8c2.1-0.4,3.9-0.8,5.4-1.2
			c1.5-0.4,3.1-0.8,4.8-1.3c-0.1-2.2-0.5-3.8-1.3-4.8c-0.8-1-2.4-1.5-4.8-1.5c-2.1,0-3.7,0.3-4.7,0.9c-1.1,0.6-2,1.5-2.7,2.6
			c-0.8,1.2-1.3,1.9-1.6,2.3c-0.3,0.4-1,0.6-2,0.6c-0.9,0-1.7-0.3-2.4-0.9c-0.7-0.6-1-1.4-1-2.3c0-1.5,0.5-2.9,1.5-4.2
			c1-1.4,2.6-2.5,4.8-3.4c2.2-0.9,4.9-1.3,8.2-1.3c3.6,0,6.5,0.4,8.6,1.3c2.1,0.9,3.6,2.2,4.4,4.1c0.9,1.9,1.3,4.3,1.3,7.4
			c0,1.9,0,3.6,0,4.9c0,1.4,0,2.9,0,4.5c0,1.6,0.3,3.2,0.8,4.9c0.5,1.7,0.8,2.8,0.8,3.3c0,0.8-0.4,1.6-1.2,2.3c-0.8,0.7-1.7,1-2.7,1
			c-0.8,0-1.7-0.4-2.5-1.2C646.5,303.9,645.6,302.7,644.7,301.2z M644.2,289.3c-1.2,0.4-3,0.9-5.3,1.4c-2.3,0.5-3.9,0.9-4.8,1.1
			c-0.9,0.2-1.7,0.7-2.5,1.4c-0.8,0.7-1.2,1.6-1.2,2.8c0,1.3,0.5,2.3,1.4,3.2c0.9,0.9,2.2,1.3,3.7,1.3c1.6,0,3.1-0.4,4.5-1.1
			c1.4-0.7,2.4-1.6,3-2.8c0.7-1.3,1.1-3.3,1.1-6.2V289.3z"/>
		<path class="st2" d="M690.4,295.7c0,1-0.3,2.1-0.9,3.3c-0.6,1.2-1.6,2.3-2.8,3.4c-1.3,1.1-2.9,1.9-4.8,2.6c-1.9,0.6-4.1,1-6.5,1
			c-5.1,0-9.1-1.5-12-4.5c-2.9-3-4.3-7-4.3-12c0-3.4,0.7-6.4,2-9c1.3-2.6,3.2-4.6,5.7-6c2.5-1.4,5.5-2.1,8.9-2.1
			c2.1,0,4.1,0.3,5.9,0.9c1.8,0.6,3.3,1.4,4.5,2.4c1.2,1,2.2,2,2.8,3.2c0.7,1.1,1,2.2,1,3.1c0,1-0.4,1.8-1.1,2.5
			c-0.7,0.7-1.6,1-2.7,1c-0.7,0-1.3-0.2-1.7-0.5c-0.5-0.4-1-0.9-1.5-1.7c-1-1.5-2.1-2.7-3.2-3.5c-1.1-0.8-2.5-1.2-4.2-1.2
			c-2.4,0-4.4,1-5.9,2.9c-1.5,1.9-2.2,4.5-2.2,7.8c0,1.6,0.2,3,0.6,4.3c0.4,1.3,0.9,2.4,1.7,3.3c0.7,0.9,1.6,1.6,2.6,2.1
			c1,0.5,2.2,0.7,3.4,0.7c1.7,0,3.1-0.4,4.3-1.2c1.2-0.8,2.2-1.9,3.1-3.5c0.5-0.9,1.1-1.7,1.6-2.2c0.6-0.5,1.3-0.8,2.2-0.8
			c1,0,1.8,0.4,2.5,1.2S690.4,294.8,690.4,295.7z"/>
		<path class="st2" d="M704.1,265v12.3c1.1-1.2,2.1-2.2,3.1-2.9c1-0.7,2.1-1.2,3.3-1.6c1.2-0.4,2.5-0.5,3.9-0.5c2.1,0,4,0.4,5.6,1.3
			c1.6,0.9,2.9,2.2,3.8,3.9c0.6,1,1,2.1,1.2,3.3c0.2,1.2,0.3,2.6,0.3,4.2v15.9c0,1.7-0.4,2.9-1.1,3.8c-0.8,0.8-1.8,1.3-3,1.3
			c-2.7,0-4.1-1.7-4.1-5v-14c0-2.6-0.4-4.7-1.2-6.1c-0.8-1.4-2.3-2.1-4.5-2.1c-1.5,0-2.8,0.4-4,1.3c-1.2,0.8-2.1,2-2.7,3.4
			c-0.4,1.2-0.7,3.4-0.7,6.6v10.9c0,1.6-0.4,2.9-1.1,3.7c-0.7,0.9-1.8,1.3-3.1,1.3c-2.7,0-4.1-1.7-4.1-5V265c0-1.7,0.4-2.9,1.1-3.8
			c0.7-0.8,1.7-1.3,3-1.3c1.3,0,2.3,0.4,3.1,1.3C703.8,262.1,704.1,263.3,704.1,265z"/>
		<path class="st2" d="M756.6,291.1h-16.2c0,1.9,0.4,3.5,1.1,5c0.7,1.4,1.7,2.5,2.9,3.2c1.2,0.7,2.6,1.1,4,1.1c1,0,1.9-0.1,2.7-0.3
			c0.8-0.2,1.6-0.6,2.4-1.1c0.8-0.5,1.5-1,2.1-1.6c0.6-0.6,1.5-1.3,2.5-2.3c0.4-0.4,1-0.5,1.8-0.5c0.8,0,1.5,0.2,2.1,0.7
			c0.5,0.5,0.8,1.1,0.8,2c0,0.7-0.3,1.6-0.9,2.6c-0.6,1-1.5,2-2.7,2.9c-1.2,0.9-2.7,1.7-4.5,2.3c-1.8,0.6-3.8,0.9-6.2,0.9
			c-5.3,0-9.4-1.5-12.4-4.5c-3-3-4.4-7.1-4.4-12.3c0-2.4,0.4-4.7,1.1-6.8c0.7-2.1,1.8-3.9,3.2-5.4c1.4-1.5,3.1-2.6,5.2-3.4
			c2-0.8,4.3-1.2,6.8-1.2c3.2,0,6,0.7,8.3,2c2.3,1.4,4,3.1,5.2,5.3c1.2,2.2,1.7,4.4,1.7,6.6c0,2.1-0.6,3.4-1.8,4
			C760.5,290.8,758.8,291.1,756.6,291.1z M740.4,286.4h15c-0.2-2.8-1-4.9-2.3-6.4c-1.3-1.4-3.1-2.1-5.2-2.1c-2.1,0-3.8,0.7-5.1,2.1
			C741.5,281.5,740.7,283.6,740.4,286.4z"/>
		<path class="st2" d="M778.6,294v6.9c0,1.7-0.4,2.9-1.2,3.8c-0.8,0.8-1.8,1.3-3,1.3c-1.2,0-2.2-0.4-2.9-1.3
			c-0.8-0.8-1.2-2.1-1.2-3.8v-23c0-3.7,1.3-5.6,4-5.6c1.4,0,2.4,0.4,3,1.3c0.6,0.9,0.9,2.2,1,3.9c1-1.7,2-3,3-3.9
			c1-0.9,2.4-1.3,4.2-1.3c1.7,0,3.4,0.4,5.1,1.3c1.6,0.9,2.5,2,2.5,3.5c0,1-0.3,1.8-1,2.5c-0.7,0.7-1.5,1-2.3,1
			c-0.3,0-1-0.2-2.2-0.6c-1.2-0.4-2.2-0.6-3.1-0.6c-1.2,0-2.2,0.3-3,1c-0.8,0.6-1.4,1.6-1.8,2.8c-0.4,1.3-0.7,2.7-0.9,4.5
			C778.7,289.4,778.6,291.5,778.6,294z"/>
		<path class="st2" d="M822.7,295.1c0,2.3-0.6,4.2-1.7,5.9c-1.1,1.6-2.8,2.9-4.9,3.7c-2.2,0.8-4.8,1.3-7.9,1.3c-3,0-5.5-0.5-7.6-1.4
			c-2.1-0.9-3.7-2-4.7-3.4c-1-1.4-1.5-2.7-1.5-4.1c0-0.9,0.3-1.7,1-2.3c0.6-0.6,1.5-1,2.5-1c0.9,0,1.5,0.2,2,0.6
			c0.5,0.4,0.9,1,1.3,1.8c0.8,1.5,1.9,2.6,3,3.3c1.2,0.7,2.8,1.1,4.8,1.1c1.7,0,3-0.4,4.1-1.1c1.1-0.7,1.6-1.6,1.6-2.5
			c0-1.5-0.6-2.5-1.7-3.2c-1.1-0.7-2.9-1.3-5.4-1.9c-2.8-0.7-5.2-1.4-7-2.2c-1.8-0.8-3.2-1.8-4.3-3.1c-1.1-1.3-1.6-2.8-1.6-4.7
			c0-1.7,0.5-3.2,1.5-4.7c1-1.5,2.5-2.7,4.4-3.5c1.9-0.9,4.3-1.3,7-1.3c2.1,0,4.1,0.2,5.8,0.7c1.7,0.4,3.1,1,4.3,1.8
			c1.1,0.7,2,1.6,2.6,2.5c0.6,0.9,0.9,1.8,0.9,2.7c0,1-0.3,1.7-1,2.3c-0.6,0.6-1.5,0.9-2.7,0.9c-0.8,0-1.6-0.2-2.2-0.7
			c-0.6-0.5-1.3-1.2-2-2.2c-0.6-0.8-1.4-1.5-2.2-1.9c-0.8-0.5-2-0.7-3.5-0.7c-1.5,0-2.7,0.3-3.7,1c-1,0.6-1.5,1.4-1.5,2.4
			c0,0.9,0.4,1.6,1.1,2.1s1.7,1,2.9,1.4s2.9,0.8,5.1,1.3c2.6,0.6,4.7,1.4,6.3,2.2c1.6,0.9,2.9,1.9,3.7,3.1
			C822.3,292.2,822.7,293.6,822.7,295.1z"/>
		<path class="st2" d="M866.2,301.2c-2,1.6-3.9,2.7-5.8,3.5c-1.9,0.8-4,1.2-6.3,1.2c-2.1,0-4-0.4-5.6-1.3c-1.6-0.8-2.8-2-3.7-3.4
			c-0.9-1.4-1.3-3-1.3-4.7c0-2.3,0.7-4.2,2.2-5.8c1.4-1.6,3.4-2.7,5.9-3.2c0.5-0.1,1.8-0.4,3.9-0.8c2.1-0.4,3.9-0.8,5.4-1.2
			c1.5-0.4,3.1-0.8,4.8-1.3c-0.1-2.2-0.5-3.8-1.3-4.8c-0.8-1-2.4-1.5-4.8-1.5c-2.1,0-3.7,0.3-4.7,0.9c-1.1,0.6-2,1.5-2.7,2.6
			c-0.8,1.2-1.3,1.9-1.6,2.3c-0.3,0.4-1,0.6-2,0.6c-0.9,0-1.7-0.3-2.4-0.9c-0.7-0.6-1-1.4-1-2.3c0-1.5,0.5-2.9,1.5-4.2
			c1-1.4,2.6-2.5,4.8-3.4c2.2-0.9,4.9-1.3,8.2-1.3c3.6,0,6.5,0.4,8.6,1.3c2.1,0.9,3.6,2.2,4.4,4.1c0.9,1.9,1.3,4.3,1.3,7.4
			c0,1.9,0,3.6,0,4.9c0,1.4,0,2.9,0,4.5c0,1.6,0.3,3.2,0.8,4.9c0.5,1.7,0.8,2.8,0.8,3.3c0,0.8-0.4,1.6-1.2,2.3c-0.8,0.7-1.7,1-2.7,1
			c-0.8,0-1.7-0.4-2.5-1.2C868,303.9,867.1,302.7,866.2,301.2z M865.6,289.3c-1.2,0.4-3,0.9-5.3,1.4c-2.3,0.5-3.9,0.9-4.8,1.1
			c-0.9,0.2-1.7,0.7-2.5,1.4c-0.8,0.7-1.2,1.6-1.2,2.8c0,1.3,0.5,2.3,1.4,3.2c0.9,0.9,2.2,1.3,3.7,1.3c1.6,0,3.1-0.4,4.5-1.1
			c1.4-0.7,2.4-1.6,3-2.8c0.7-1.3,1.1-3.3,1.1-6.2V289.3z"/>
		<path class="st2" d="M890.4,294v6.9c0,1.7-0.4,2.9-1.2,3.8c-0.8,0.8-1.8,1.3-3,1.3c-1.2,0-2.2-0.4-2.9-1.3
			c-0.8-0.8-1.2-2.1-1.2-3.8v-23c0-3.7,1.3-5.6,4-5.6c1.4,0,2.4,0.4,3,1.3c0.6,0.9,0.9,2.2,1,3.9c1-1.7,2-3,3-3.9
			c1-0.9,2.4-1.3,4.2-1.3c1.7,0,3.4,0.4,5.1,1.3c1.6,0.9,2.5,2,2.5,3.5c0,1-0.3,1.8-1,2.5c-0.7,0.7-1.5,1-2.3,1
			c-0.3,0-1-0.2-2.2-0.6c-1.2-0.4-2.2-0.6-3.1-0.6c-1.2,0-2.2,0.3-3,1c-0.8,0.6-1.4,1.6-1.8,2.8c-0.4,1.3-0.7,2.7-0.9,4.5
			C890.4,289.4,890.4,291.5,890.4,294z"/>
		<path class="st2" d="M930.9,291.1h-16.2c0,1.9,0.4,3.5,1.1,5c0.7,1.4,1.7,2.5,2.9,3.2c1.2,0.7,2.6,1.1,4,1.1c1,0,1.9-0.1,2.7-0.3
			c0.8-0.2,1.6-0.6,2.4-1.1c0.8-0.5,1.5-1,2.1-1.6c0.6-0.6,1.5-1.3,2.5-2.3c0.4-0.4,1-0.5,1.8-0.5c0.8,0,1.5,0.2,2.1,0.7
			c0.5,0.5,0.8,1.1,0.8,2c0,0.7-0.3,1.6-0.9,2.6c-0.6,1-1.5,2-2.7,2.9s-2.7,1.7-4.5,2.3c-1.8,0.6-3.8,0.9-6.2,0.9
			c-5.3,0-9.4-1.5-12.4-4.5c-3-3-4.4-7.1-4.4-12.3c0-2.4,0.4-4.7,1.1-6.8c0.7-2.1,1.8-3.9,3.2-5.4c1.4-1.5,3.1-2.6,5.2-3.4
			c2-0.8,4.3-1.2,6.8-1.2c3.2,0,6,0.7,8.3,2c2.3,1.4,4,3.1,5.2,5.3c1.2,2.2,1.7,4.4,1.7,6.6c0,2.1-0.6,3.4-1.8,4
			C934.7,290.8,933,291.1,930.9,291.1z M914.7,286.4h15c-0.2-2.8-1-4.9-2.3-6.4c-1.3-1.4-3.1-2.1-5.2-2.1c-2.1,0-3.8,0.7-5.1,2.1
			C915.8,281.5,915,283.6,914.7,286.4z"/>
		<path class="st2" d="M968.3,265v12.3c1.1-1.2,2.1-2.2,3.1-2.9c1-0.7,2.1-1.2,3.3-1.6c1.2-0.4,2.5-0.5,3.9-0.5c2.1,0,4,0.4,5.6,1.3
			c1.6,0.9,2.9,2.2,3.8,3.9c0.6,1,1,2.1,1.2,3.3c0.2,1.2,0.3,2.6,0.3,4.2v15.9c0,1.7-0.4,2.9-1.1,3.8c-0.8,0.8-1.8,1.3-3,1.3
			c-2.7,0-4.1-1.7-4.1-5v-14c0-2.6-0.4-4.7-1.2-6.1c-0.8-1.4-2.3-2.1-4.5-2.1c-1.5,0-2.8,0.4-4,1.3c-1.2,0.8-2.1,2-2.7,3.4
			c-0.4,1.2-0.7,3.4-0.7,6.6v10.9c0,1.6-0.4,2.9-1.1,3.7c-0.7,0.9-1.8,1.3-3.1,1.3c-2.7,0-4.1-1.7-4.1-5V265c0-1.7,0.4-2.9,1.1-3.8
			c0.7-0.8,1.7-1.3,3-1.3c1.3,0,2.3,0.4,3.1,1.3C967.9,262.1,968.3,263.3,968.3,265z"/>
		<path class="st2" d="M1020.8,291.1h-16.2c0,1.9,0.4,3.5,1.1,5c0.7,1.4,1.7,2.5,2.9,3.2c1.2,0.7,2.6,1.1,4,1.1c1,0,1.9-0.1,2.7-0.3
			c0.8-0.2,1.6-0.6,2.4-1.1c0.8-0.5,1.5-1,2.1-1.6c0.6-0.6,1.5-1.3,2.5-2.3c0.4-0.4,1-0.5,1.8-0.5c0.8,0,1.5,0.2,2.1,0.7
			c0.5,0.5,0.8,1.1,0.8,2c0,0.7-0.3,1.6-0.9,2.6c-0.6,1-1.5,2-2.7,2.9c-1.2,0.9-2.7,1.7-4.5,2.3c-1.8,0.6-3.8,0.9-6.2,0.9
			c-5.3,0-9.4-1.5-12.4-4.5c-3-3-4.4-7.1-4.4-12.3c0-2.4,0.4-4.7,1.1-6.8c0.7-2.1,1.8-3.9,3.2-5.4c1.4-1.5,3.1-2.6,5.2-3.4
			c2-0.8,4.3-1.2,6.8-1.2c3.2,0,6,0.7,8.3,2c2.3,1.4,4,3.1,5.2,5.3c1.2,2.2,1.7,4.4,1.7,6.6c0,2.1-0.6,3.4-1.8,4
			C1024.6,290.8,1023,291.1,1020.8,291.1z M1004.6,286.4h15c-0.2-2.8-1-4.9-2.3-6.4c-1.3-1.4-3.1-2.1-5.2-2.1
			c-2.1,0-3.8,0.7-5.1,2.1C1005.7,281.5,1004.9,283.6,1004.6,286.4z"/>
		<path class="st2" d="M1042.8,294v6.9c0,1.7-0.4,2.9-1.2,3.8c-0.8,0.8-1.8,1.3-3,1.3c-1.2,0-2.2-0.4-2.9-1.3
			c-0.8-0.8-1.2-2.1-1.2-3.8v-23c0-3.7,1.3-5.6,4-5.6c1.4,0,2.4,0.4,3,1.3c0.6,0.9,0.9,2.2,1,3.9c1-1.7,2-3,3-3.9
			c1-0.9,2.4-1.3,4.2-1.3c1.7,0,3.4,0.4,5.1,1.3c1.6,0.9,2.5,2,2.5,3.5c0,1-0.3,1.8-1,2.5c-0.7,0.7-1.5,1-2.3,1
			c-0.3,0-1-0.2-2.2-0.6c-1.2-0.4-2.2-0.6-3.1-0.6c-1.2,0-2.2,0.3-3,1c-0.8,0.6-1.4,1.6-1.8,2.8c-0.4,1.3-0.7,2.7-0.9,4.5
			C1042.9,289.4,1042.8,291.5,1042.8,294z"/>
		<path class="st2" d="M1083.3,291.1h-16.2c0,1.9,0.4,3.5,1.1,5c0.7,1.4,1.7,2.5,2.9,3.2c1.2,0.7,2.6,1.1,4,1.1c1,0,1.9-0.1,2.7-0.3
			c0.8-0.2,1.6-0.6,2.4-1.1c0.8-0.5,1.5-1,2.1-1.6c0.6-0.6,1.5-1.3,2.5-2.3c0.4-0.4,1-0.5,1.8-0.5c0.8,0,1.5,0.2,2.1,0.7
			c0.5,0.5,0.8,1.1,0.8,2c0,0.7-0.3,1.6-0.9,2.6c-0.6,1-1.5,2-2.7,2.9c-1.2,0.9-2.7,1.7-4.5,2.3c-1.8,0.6-3.8,0.9-6.2,0.9
			c-5.3,0-9.4-1.5-12.4-4.5c-3-3-4.4-7.1-4.4-12.3c0-2.4,0.4-4.7,1.1-6.8c0.7-2.1,1.8-3.9,3.2-5.4c1.4-1.5,3.1-2.6,5.2-3.4
			c2-0.8,4.3-1.2,6.8-1.2c3.2,0,6,0.7,8.3,2c2.3,1.4,4,3.1,5.2,5.3c1.2,2.2,1.7,4.4,1.7,6.6c0,2.1-0.6,3.4-1.8,4
			C1087.2,290.8,1085.5,291.1,1083.3,291.1z M1067.2,286.4h15c-0.2-2.8-1-4.9-2.3-6.4c-1.3-1.4-3.1-2.1-5.2-2.1
			c-2.1,0-3.8,0.7-5.1,2.1C1068.2,281.5,1067.4,283.6,1067.2,286.4z"/>
	</g>
	<g>
		<path class="st2" d="M1217,61.9c-3-3-6.9-4.5-11.7-4.5h-58.9v-4.5c0-8.2-4.5-12.7-12.7-12.7c-8.2,0-12.7,4.5-12.7,12.7v4.5h-57.6
			c-4.7,0-8.6,1.5-11.7,4.5c-3,3-4.5,6.9-4.5,11.7v20.1c0,7.7,4.5,12.1,12.3,12.1c7.7,0,12.1-4.4,12.1-12.1V82.5
			c0-1.7,0.4-2.1,2.1-2.1h121c1.7,0,2.1,0.4,2.1,2.1v10.9c0,7.9,4.4,12.3,12.5,12.3c7.8,0,12.3-4.5,12.3-12.3V73.5
			C1221.5,68.8,1220,64.9,1217,61.9z"/>
		<path class="st3" d="M678.5,158.4h-30.8v-14h28.9c4.7,0,8.6-1.5,11.7-4.5c3-3,4.5-6.9,4.5-11.7V86.6c0-4.7-1.5-8.6-4.5-11.7
			c-3-3-6.9-4.5-11.7-4.5h-10.4c1.7-4.1,3.4-8.3,5.1-12.8c1.8-4.8,1.8-8.7,0-11.7c-1.7-2.8-4.8-4.5-9.3-5.1
			c-7.8-1-12.9,2.9-14.4,10.9c-1.1,5.6-2.7,11.9-4.8,18.6h-1.4c-4.7,0-8.6,1.5-11.7,4.5c-3,3-4.5,6.9-4.5,17.1v116.2h-118
			c-9.5,0-12.4-1-13.2-1.4c-1.2-0.6-1.8-2.3-1.8-5v-19.5c28.3-6.8,61.2-17.2,80.9-24.8c1.2-0.5,4-1.7,5.9-3.8c2-2,3.3-4.7,3.3-7.7
			c0-5.9-4.8-10.7-10.7-10.7c-2.5,0-4.8,0.9-6.6,2.3c0,0,0,0,0,0c-16.5,7.6-49.8,16.6-72.8,22.6v-11c12.7-8.5,23.8-16.5,33.2-23.9
			h64c7.4,0,11.7-4.3,11.7-11.7s-4.3-11.7-11.7-11.7h-37.4c13.3-12.9,20-20.6,29.4-33.5c1.1-1.6,1.9-3.2,2.4-4.7
			c0.6-1.3,0.9-2.8,0.9-4.3c0-5.9-4.8-10.7-10.7-10.7c-1.3,0-2.5,0.2-3.6,0.6c-2.8,0.3-5.2,2.2-7.7,5.7c-3.4,4.8-5.3,5.7-9.1,9.7
			c-1.9-3.2-5.3-5.4-9.3-5.4c-1,0-2,0.2-2.9,0.4c-0.4,0-0.8,0-1.2,0H506V46.5c0-8.2-4.5-12.7-12.7-12.7s-12.7,4.5-12.7,12.7V60
			h-36.9c-7.3,0-11.5,4.2-11.5,11.5c0,7.4,4.2,11.7,11.5,11.7h36.9v18.9h-46.9c-7.4,0-11.7,4.3-11.7,11.7s4.3,11.7,11.7,11.7h50.2
			c-19,12.1-31.3,22.6-52.3,31.2c-2.4,1-4.4,2.1-5.8,3.4c-5,0.9-8.9,5.3-8.9,10.5c0,5.9,4.8,10.7,10.7,10.7c1.1,0,2.1-0.2,3.1-0.4
			c0.8,0.1,2.1-0.4,4.5-1.3c11.1-4.8,21.8-10.1,32.1-15.6v38.2c0,11.2,2.9,18.9,8.6,23c5.5,3.9,15.4,5.9,30.4,5.9l172.3,0.4
			c4.7,0,8.6-1.5,11.7-4.5c3-3,4.5-6.9,4.5-11.7v-40.7c0-4.7-1.5-8.6-4.5-11.7C687.2,159.9,683.3,158.4,678.5,158.4z M647.8,94.4
			c0-1.7,0.4-2.1,2.1-2.1h18.5c1.7,0,2.1,0.4,2.1,2.1v26c0,1.7-0.4,2.1-2.1,2.1h-20.5V94.4z M506,83.2h30.8
			c-7,7.1-14,13.4-20.7,18.9H506V83.2z M672.2,207.4c0,1.7-0.4,2.1-2.1,2.1h-20.3c-1.7,0-2.1-0.4-2.1-2.1v-26.9h22.4
			c1.7,0,2.1,0.4,2.1,2.1V207.4z"/>
		<path class="st2" d="M954.6,210.1h-39.7c-7.3,0-12.5,4.2-12.5,11.5c0,7.3,5.3,11.5,12.5,11.5h39.7c7.3,0,11.5-4.2,11.5-11.5
			C966,214.2,961.9,210.1,954.6,210.1z"/>
		<path class="st3" d="M903.1,139.7c-0.5-4.1-2-7-4.6-8.6c-2.6-1.7-6-1.9-10.2-0.7c-1.4,0.4-0.6,0.3-3.3,1c-1,0.3-1.9,0.5-2.7,0.7
			v-28.9h10.1c6.4,0,11.6-5.1,11.7-11.5c0.1-7.5-4.2-11.9-11.7-11.9h-10.1V52.2c0-6.6-5.3-12-11.9-12.1c-7.8-0.1-12.3,4.3-12.3,12.1
			v27.7h-15.6c-6.4,0-11.6,5.1-11.7,11.5c-0.1,7.5,4.2,11.9,11.7,11.9h15.6v35.5c-1.4,0.4-3.1,0.8-5.1,1.3c-6.8,1.8-11.6,3-14.7,3.8
			c-4,1-6.6,2.7-7.9,5.2c-1.1,2.3-1.2,5.4-0.4,9.3l0,0.1c1,3.9,2.9,6.7,5.5,8.2c2.6,1.5,5.9,1.7,9.7,0.6l12.8-3.7c0,0,0,30.6,0,42.1
			c0,2.4-1.9,4.3-4.4,4.3h-47.4c-2.4,0-4.4-1.9-4.4-4.4l0-99.8c0-4.7-1.5-8.6-4.5-11.7c-3-3-6.9-4.5-11.7-4.5h-23.6V73.3h33.9
			c7.3,0,11.5-4.3,11.5-11.8c0-6.3-5.2-11.3-11.5-11.3h-90.6c-6.3,0-11.4,5-11.5,11.3c-0.1,7.5,4.1,11.8,11.5,11.8H739v16.5h-21.8
			c-4.7,0-8.6,1.5-11.7,4.5c-3,3-4.5,6.9-4.5,11.7v115.4c0,7.3,4.3,11.5,11.8,11.5c6.3,0,11.3-5.2,11.3-11.5V114.5
			c0-1.1,0.9-2.1,2.1-2.1H739l0,109.5c0,6.4,5.1,11.6,11.5,11.7c7.5,0.1,11.9-4.2,11.9-11.7V112.5H777c1.1,0,2.1,0.9,2.1,2.1v96.5
			l0,0.1V222v0.8c0,5.6,4.5,10.1,10.1,10.1h77.1c5.8,0,11-3.4,13.3-8.7c0.3-0.7,0.6-1.3,0.8-1.9c1.4-3.2,2.1-7.4,2.1-12.7v-53
			l11.8-3.6C901,151.1,904.1,146.4,903.1,139.7z"/>
		<path class="st3" d="M1211.5,194c-13.4-8.1-20.4-23.1-29.7-37.9c8.9-5.1,18.6-11.4,28.9-18.8l0.1-0.1c3.5-2.7,5.3-5.7,5.4-8.8
			c0.1-3.1-1.6-6.2-4.9-9.1c-5.6-4.7-11.5-4.9-16.6-0.4c-7.5,6.3-15.4,12.2-23.6,17.7c-2.9-6.7-5.6-14.3-8.1-22.5h17.7
			c6.1,0,11-4.9,11.1-11c0-7.1-4-11.1-11-11.1l-94.5,0c-6.1,0-11,4.9-11.1,11c0,7.1,4,11.1,11,11.1h18.1
			c-12.5,6.3-27.5,11.9-44.6,16.5c-5.1,1.3-8.2,3.4-9.3,6.4c-1.1,2.8-0.4,6.1,2.1,9.8c3.3,4.9,8.2,6.5,14.3,4.8
			c15.3-4.8,28.9-10.1,40.4-15.6c1.2,1,2.4,2.2,3.7,3.4c-5.7,4-13,8.1-21.5,12.2c-9.5,4.6-19.2,8.4-28.7,11.5
			c-4.7,1.3-7.5,3.3-8.7,5.8c-1.3,2.8-0.6,6.1,2,10.1c1.9,2.9,4,4.7,6.3,5.5c2.4,0.8,5.2,0.5,8.6-0.9c20-8.1,38.2-17.5,54.1-28.2
			c1.1,2.2,2.1,4.1,2.9,5.6c-8.2,7.2-13.1,9.5-25.8,16.3c-13.1,7.1-5.3,3.5-18.8,8c-4.9,1.5-7.9,3.8-9.1,7c-1.1,2.9-0.4,6.3,2,10
			c3.4,5.3,8.7,7,14.9,4.8c12.7-4.8,4.5-1.3,17.7-8.6c11.6-6.5,16.4-8.3,25.6-15.1c0.4,4.9,0.2,9.4-0.8,13.6
			c-1.1,4.9-2.9,8.3-5.5,10.2l-0.3,0.3c-2.2,2.2-6,5.4-11.3,5.4l-108.2-0.4c-3.1,0-5.8-2-6.8-4.9c-1.9-5.9-4.5-16.2-7.2-26.6
			c-3.2-12-5.8-28.7-7.6-49.5h22.9c6.4,0,11.6-5.1,11.7-11.5c0.1-7.5-4.2-11.9-11.7-11.9h-24.8c-0.7-14.4-1.1-26.4-1.3-35.7
			c6.5-1.4,12.3-2.7,17.2-3.8l0.1,0c5-1.4,7.8-3.5,8.7-6.7c0.9-3.2-0.4-6.7-4-10.7c-2.1-2.4-4-3.9-5.8-4.7c-2.3-0.9-4.9-1-7.6-0.1
			c-18.6,5.2-41.2,9.6-67,13l-6.1,0.7c-5.9,0.7-10.6,5.6-10.6,11.5c0,0.1,0,0.1,0,0.2v108c-0.8,0.1-0.5,0.3-1.4,0.5
			c-1.9,0.3-3.3,0.5-4,0.6c-3.8,0.5-6.6,2-8.3,4.4c-1.7,2.5-3.2,5.7-2.4,9.7c0.8,3.7,3.3,6.3,5.4,7.9c2.2,1.7,5.1,2.2,8.8,1.5
			c7.5-1.3,18.9-3.6,37-7l8.9-1.7c7-1,10.5-5.5,10-12.4c-0.3-3.8-1.5-6.6-3.8-8.4c-2.3-1.8-5.4-2.3-9.2-1.6
			c-2.3,0.4-0.7,0.2-5.6,0.9c-4.6,0.8-8.3,1.4-11.2,1.9v-44.6h30.2c2.5,29.9,6.6,52.7,12.2,68c6.7,18.9,7.5,33.1,19.9,33.4l8.8,0.4
			v0.2h4.6c0,0,108.3,0.8,112,0.8c5.2,0,9.7-0.6,13.3-1.8c3.6-1.2,7.4-3.3,11.2-6.4c7.3-5.4,11.9-14.3,13.8-26.4
			c1.8-12.5,0.3-25.5-4.7-38.7c-5-13.7-13.1-25.9-24-36.3c4.6-2.9,8.8-5.8,12.7-8.8c12.4,46.5,29.1,82.7,58.3,101l0.1,0.1
			c7,3.8,13.2,2.7,18.1-3.2c3.4-4.2,4.4-8.2,3.1-11.5C1219.1,199.3,1216.3,196.6,1211.5,194z M930.4,108.2V80.4
			c10.4-1.2,19.5-2.5,27.2-3.7c0.4,13.4,0.9,24,1.3,31.5H930.4z"/>
		<path class="st2" d="M800.7,73.8h-99.6c-5.6,0-10.1-4.5-10.1-10.1v-3.3c0-5.6,4.5-10.1,10.1-10.1h99.6c5.6,0,10.1,4.5,10.1,10.1
			v3.3C810.9,69.3,806.3,73.8,800.7,73.8z"/>
		<path class="st2" d="M895.1,103.4h-56.7c-5.3,0-9.5-4.3-9.5-9.5V89c0-5.3,4.3-9.5,9.5-9.5h56.7c5.3,0,9.5,4.3,9.5,9.5v4.8
			C904.6,99.1,900.4,103.4,895.1,103.4z"/>
		<g>
			<path class="st2" d="M467.3,190.6c0.7,0,1.4-0.1,2.1-0.2c21.3-3.9,102.9-32.4,106.4-33.7c5.9-2.2,9-8.8,6.8-14.7
				c-2.2-5.9-8.8-9-14.7-6.8c-23.1,8.4-84.5,29.3-100.6,32.3L467.3,190.6z"/>
		</g>
	</g>
</g>
</svg>
