<svg xmlns="http://www.w3.org/2000/svg" viewBox="0 0 150 3400"><g style="isolation:isolate"><path d="M106.71 11.16c-2.28-2.94-5.83-3.12-8.06-2.88-2.24-.24-5.78-.06-8.06 2.88-6.15 7.92-36 62.25 8.06 61.82 44.06.43 14.2-53.9 8.06-61.82z" fill="#8cb347"/><path d="M89 65.13a55.32 55.32 0 01-4.3-30.68c.77-5.06 1.45-10.25 3.62-15.06a47 47 0 016.4-10.88 7.33 7.33 0 00-4.13 2.65c-5.94 7.66-34.06 58.71 3.94 61.69A19.91 19.91 0 0189 65.13z" style="mix-blend-mode:multiply" fill="#8cb347"/><path fill="#603e2a" d="M107.27 52.38l-.5-.49-4.35 2.97-1.86-25.01h-1.69l-1.11 14.9-3.77-2.58-.5.5 3.99 5.82-1.07 14.34-2.42-1.65-.5.5 2.71 3.95-1.55 20.83h10.13l-2.05-27.45 4.54-6.63z"/><path d="M29.41 361.07c-2-2.52-5.22-2.67-7.22-2.46-2-.21-5.18-.06-7.23 2.46-5.5 6.79-32.25 53.35 7.23 53 39.47.35 12.72-46.21 7.22-53z" fill="#8cb347"/><path d="M13.58 407.33A45.56 45.56 0 019.72 381c.7-4.34 1.31-8.78 3.24-12.9a40.06 40.06 0 015.71-9.33 6.61 6.61 0 00-3.67 2.3c-5.32 6.57-30.5 50.32 3.53 52.87a17.19 17.19 0 01-4.95-6.61z" style="mix-blend-mode:multiply" fill="#8cb347"/><path fill="#603e2a" d="M29.91 396.4l-.45-.42-3.89 2.54-1.67-21.43h-1.52l-.99 12.77-3.38-2.21-.44.42 3.57 5-.96 12.29-2.17-1.42-.44.43 2.42 3.38-1.39 17.85h9.08l-1.83-23.52 4.06-5.68z"/><path d="M48 389.22a5.34 5.34 0 00-4.85-1.66 5.35 5.35 0 00-4.85 1.66c-3.7 4.56-21.66 35.83 4.85 35.59 26.51.24 8.54-31.03 4.85-35.59z" fill="#8cb347"/><path d="M37.36 420.29a30.61 30.61 0 01-2.59-17.67A31.75 31.75 0 0137 394a26.72 26.72 0 013.83-6.27 4.42 4.42 0 00-2.49 1.53c-3.57 4.41-20.49 33.8 2.37 35.51a11.45 11.45 0 01-3.35-4.48z" style="mix-blend-mode:multiply" fill="#8cb347"/><path fill="#603e2a" d="M48.33 412.95l-.3-.29-2.62 1.72-1.12-14.4h-1.02l-.66 8.57-2.27-1.48-.3.29 2.4 3.35-.65 8.25-1.45-.95-.3.29 1.63 2.28-.94 11.98h6.1l-1.23-15.79 2.73-3.82z"/><path d="M125.71 706.6a5.37 5.37 0 00-4.85-1.66 5.37 5.37 0 00-4.86 1.66c-3.7 4.56-21.67 35.84 4.85 35.59 26.53.25 8.56-31.03 4.86-35.59z" fill="#8cb347"/><path d="M115.08 737.67a30.59 30.59 0 01-2.59-17.67 31.81 31.81 0 012.18-8.67 26.72 26.72 0 013.83-6.27 4.49 4.49 0 00-2.5 1.54c-3.58 4.41-20.49 33.8 2.37 35.51a11.45 11.45 0 01-3.29-4.44z" style="mix-blend-mode:multiply" fill="#8cb347"/><path fill="#603e2a" d="M126.05 730.33l-.3-.28-2.62 1.71-1.12-14.4h-1.02l-.67 8.58-2.26-1.49-.3.29 2.4 3.35-.65 8.26-1.45-.95-.3.28 1.63 2.28-.94 11.99h6.1l-1.23-15.8 2.73-3.82z"/><path d="M48.1 900.86c-2.28-2.94-5.83-3.12-8.06-2.87-2.23-.25-5.78-.07-8.06 2.87-6.14 7.93-36 62.26 8.06 61.83 44.06.43 14.2-53.9 8.06-61.83z" fill="#8cb347"/><path d="M30.43 954.84a55.34 55.34 0 01-4.3-30.69c.78-5.06 1.46-10.25 3.62-15a47 47 0 016.36-10.89 7.33 7.33 0 00-4.11 2.6c-5.94 7.66-34 58.72 3.94 61.69a19.88 19.88 0 01-5.51-7.71z" style="mix-blend-mode:multiply" fill="#8cb347"/><path fill="#603e2a" d="M48.66 942.09l-.5-.5-4.34 2.98-1.87-25.01h-1.69l-1.11 14.9-3.77-2.58-.49.5 3.98 5.82-1.07 14.34-2.42-1.66-.49.5 2.7 3.96-1.55 20.82h10.14l-2.05-27.44 4.53-6.63z"/><path d="M118.72 1392.28c-2-2.52-5.23-2.67-7.23-2.46-2-.21-5.18-.06-7.22 2.46-5.5 6.8-32.25 53.36 7.22 53 39.51.36 12.73-46.2 7.23-53z" fill="#8cb347"/><path d="M102.88 1438.54a45.61 45.61 0 01-3.88-26.29c.7-4.34 1.31-8.79 3.24-12.91A40.43 40.43 0 01108 1390a6.68 6.68 0 00-3.7 2.27c-5.32 6.57-30.5 50.32 3.53 52.88a17.25 17.25 0 01-4.95-6.61z" style="mix-blend-mode:multiply" fill="#8cb347"/><path fill="#603e2a" d="M119.22 1427.62l-.45-.43-3.89 2.55-1.67-21.43h-1.52l-.99 12.76-3.38-2.2-.44.42 3.57 4.99-.96 12.29-2.17-1.42-.44.43 2.42 3.39-1.39 17.85h9.08l-1.83-23.52 4.06-5.68z"/><path d="M137.3 1420.43a5.36 5.36 0 00-4.85-1.65 5.36 5.36 0 00-4.85 1.65c-3.7 4.56-21.67 35.84 4.85 35.59 26.55.25 8.55-31.02 4.85-35.59z" fill="#8cb347"/><path d="M126.67 1451.5a30.59 30.59 0 01-2.59-17.66 31.91 31.91 0 012.18-8.67 26.93 26.93 0 013.83-6.27 4.53 4.53 0 00-2.49 1.53c-3.58 4.41-20.49 33.8 2.37 35.52a11.41 11.41 0 01-3.3-4.45z" style="mix-blend-mode:multiply" fill="#8cb347"/><path fill="#603e2a" d="M137.64 1444.17l-.3-.29-2.62 1.71-1.12-14.4h-1.02l-.67 8.58-2.26-1.48-.3.28 2.4 3.35-.65 8.26-1.45-.95-.3.29 1.63 2.27-.94 11.99h6.1l-1.23-15.8 2.73-3.81z"/><path d="M38 2317.61a6.08 6.08 0 00-5.5-1.88 6.09 6.09 0 00-5.51 1.88c-4.19 5.17-24.58 40.66 5.51 40.38 30.04.28 9.66-35.21 5.5-40.38z" fill="#8cb347"/><path d="M25.89 2352.86a34.75 34.75 0 01-2.93-20c.53-3.3 1-6.69 2.47-9.83a30.55 30.55 0 014.34-7.11 5 5 0 00-2.82 1.73c-4.05 5-23.25 38.35 2.69 40.3a13.25 13.25 0 01-3.75-5.09z" style="mix-blend-mode:multiply" fill="#8cb347"/><path fill="#603e2a" d="M38.34 2344.54l-.33-.33-2.97 1.95-1.28-16.34h-1.15l-.76 9.73-2.57-1.68-.34.32 2.72 3.81-.73 9.36-1.65-1.08-.34.33 1.85 2.58-1.07 13.61h6.93l-1.4-17.93 3.09-4.33z"/><path d="M20 2339.06a4.09 4.09 0 00-3.7-1.26 4.08 4.08 0 00-3.7 1.26c-2.82 3.48-16.51 27.32 3.7 27.13 20.22.19 6.52-23.65 3.7-27.13z" fill="#8cb347"/><path d="M11.9 2362.74a23.29 23.29 0 01-2-13.46 24.39 24.39 0 011.66-6.61 20.46 20.46 0 012.92-4.77 3.36 3.36 0 00-1.9 1.16c-2.72 3.36-15.62 25.77 1.81 27.07a8.77 8.77 0 01-2.49-3.39z" style="mix-blend-mode:multiply" fill="#8cb347"/><path fill="#603e2a" d="M20.26 2357.15l-.22-.22-2 1.31-.85-10.97h-.78l-.51 6.53-1.73-1.13-.22.22 1.82 2.55-.49 6.3-1.11-.73-.22.22 1.24 1.74-.72 9.13h4.65l-.94-12.04 2.08-2.91z"/><path d="M34.76 1511.65a5.36 5.36 0 00-4.85-1.65 5.36 5.36 0 00-4.85 1.65c-3.7 4.56-21.67 35.84 4.85 35.6 26.52.24 8.55-31.04 4.85-35.6z" fill="#8cb347"/><path d="M24.13 1542.72a30.57 30.57 0 01-2.59-17.66 31.91 31.91 0 012.18-8.67 26.66 26.66 0 013.83-6.26 4.45 4.45 0 00-2.49 1.52c-3.58 4.41-20.49 33.8 2.37 35.52a11.41 11.41 0 01-3.3-4.45z" style="mix-blend-mode:multiply" fill="#8cb347"/><path fill="#603e2a" d="M35.1 1535.39l-.3-.29-2.62 1.71-1.12-14.39h-1.02l-.66 8.57-2.27-1.48-.3.28 2.4 3.36-.65 8.25-1.45-.95-.3.29 1.63 2.27-.94 11.99h6.1l-1.23-15.8 2.73-3.81z"/><path d="M118.32 1862.72c-2.28-2.94-5.83-3.12-8.07-2.88-2.23-.24-5.78-.06-8.06 2.88-6.14 7.92-36 62.25 8.06 61.82 44.07.46 14.21-53.9 8.07-61.82z" fill="#8cb347"/><path d="M100.64 1916.69a55.41 55.41 0 01-4.3-30.68c.78-5.06 1.46-10.25 3.62-15.06a47 47 0 016.37-10.88 7.36 7.36 0 00-4.14 2.65c-5.94 7.66-34 58.71 3.94 61.69a20 20 0 01-5.49-7.72z" style="mix-blend-mode:multiply" fill="#8cb347"/><path fill="#603e2a" d="M118.88 1903.94l-.5-.49-4.35 2.97-1.86-25.01h-1.69l-1.12 14.9-3.76-2.58-.5.5 3.98 5.82-1.06 14.34-2.42-1.65-.5.5 2.71 3.95-1.56 20.83h10.14l-2.05-27.45 4.54-6.63z"/><path d="M105.14 2704.73c-2-2.52-5.23-2.68-7.23-2.47-2-.21-5.18-.05-7.22 2.47-5.5 6.79-32.25 53.35 7.22 53 39.48.35 12.73-46.21 7.23-53z" fill="#8cb347"/><path d="M89.3 2751a45.61 45.61 0 01-3.85-26.29c.7-4.34 1.31-8.79 3.24-12.91a40.43 40.43 0 015.7-9.33 6.64 6.64 0 00-3.7 2.28c-5.32 6.56-30.5 50.32 3.53 52.87a17.25 17.25 0 01-4.92-6.62z" style="mix-blend-mode:multiply" fill="#8cb347"/><path fill="#603e2a" d="M105.64 2740.06l-.45-.43-3.89 2.55-1.67-21.43h-1.52l-.99 12.77-3.38-2.21-.44.42 3.57 4.99-.96 12.29-2.17-1.41-.44.42 2.42 3.39-1.39 17.85h9.08l-1.83-23.52 4.06-5.68z"/><path d="M123.72 2732.87a5.36 5.36 0 00-4.85-1.65 5.36 5.36 0 00-4.85 1.65c-3.7 4.56-21.67 35.84 4.85 35.6 26.52.24 8.55-31.04 4.85-35.6z" fill="#8cb347"/><path d="M113.09 2764a30.61 30.61 0 01-2.59-17.67 31.91 31.91 0 012.18-8.67 26.66 26.66 0 013.83-6.26 4.45 4.45 0 00-2.49 1.52c-3.58 4.41-20.49 33.81 2.37 35.52a11.45 11.45 0 01-3.3-4.44z" style="mix-blend-mode:multiply" fill="#8cb347"/><path fill="#603e2a" d="M124.06 2756.61l-.3-.29-2.62 1.71-1.12-14.39H119l-.67 8.57-2.26-1.48-.3.28 2.4 3.36-.65 8.25-1.45-.95-.3.29 1.63 2.27-.94 11.99h6.1l-1.23-15.8 2.73-3.81z"/><path d="M41.7 3073.54c-2.28-2.94-5.83-3.12-8.06-2.87-2.23-.25-5.78-.07-8.06 2.87-6.14 7.93-36 62.26 8.06 61.83 44.06.43 14.21-53.9 8.06-61.83z" fill="#8cb347"/><path d="M24 3127.52a55.34 55.34 0 01-4.3-30.69c.78-5 1.46-10.25 3.62-15a47.39 47.39 0 016.36-10.89 7.39 7.39 0 00-4.13 2.65c-5.94 7.67-34 58.72 3.94 61.7a20 20 0 01-5.49-7.77z" style="mix-blend-mode:multiply" fill="#8cb347"/><path fill="#603e2a" d="M42.26 3114.77l-.49-.5-4.35 2.98-1.87-25.01h-1.69l-1.11 14.9-3.77-2.58-.49.5 3.98 5.82-1.07 14.34-2.42-1.65-.49.49 2.7 3.96-1.55 20.82h10.14l-2.05-27.44 4.53-6.63z"/></g></svg>