<svg version="1.1" id="Layer_1" xmlns="http://www.w3.org/2000/svg" x="0" y="0" viewBox="0 0 512 512" xml:space="preserve"><path d="M316 369H196c-29.2 0-53-23.8-53-53V196c0-29.2 23.8-53 53-53h120c29.2 0 53 23.8 53 53v120c0 29.2-23.8 53-53 53zM196 160.7c-19.5 0-35.3 15.8-35.3 35.3v120c0 19.5 15.8 35.3 35.3 35.3h120c19.5 0 35.3-15.8 35.3-35.3V196c0-19.5-15.8-35.3-35.3-35.3H196zm122.2 22c-6.1 0-11 4.9-11 11s4.9 11 11 11 11-4.9 11-11-4.9-11-11-11zM256 313.4c-31.6 0-57.4-25.7-57.4-57.4 3.2-76.1 111.6-76.1 114.8 0 0 31.6-25.8 57.4-57.4 57.4zm0-97.1c-21.9 0-39.7 17.8-39.7 39.7 2.2 52.7 77.3 52.7 79.5 0-.1-21.9-17.9-39.7-39.8-39.7z" fill="#fff"/></svg>