<svg xmlns="http://www.w3.org/2000/svg" width="62" height="62" viewBox="0 0 62 62"><path fill="none" d="M0 0h62v62H0z"/><path d="M31.172 14.192c-4.582 0-5.154.021-6.953.1a12.437 12.437 0 00-4.095.786 8.26 8.26 0 00-2.988 1.945 8.23 8.23 0 00-1.945 2.988 12.4 12.4 0 00-.786 4.094c-.084 1.8-.1 2.371-.1 6.953s.021 5.154.1 6.953a12.445 12.445 0 00.784 4.094 8.272 8.272 0 001.947 2.987 8.248 8.248 0 002.988 1.945 12.453 12.453 0 004.094.784c1.8.084 2.371.1 6.953.1s5.154-.021 6.953-.1a12.482 12.482 0 004.094-.784 8.62 8.62 0 004.934-4.934 12.445 12.445 0 00.784-4.094c.084-1.8.1-2.371.1-6.953s-.021-5.154-.1-6.953a12.474 12.474 0 00-.784-4.094 8.278 8.278 0 00-1.947-2.986 8.218 8.218 0 00-2.986-1.945 12.409 12.409 0 00-4.094-.786c-1.799-.083-2.371-.1-6.953-.1zm0 3.036c4.5 0 5.039.022 6.817.1a9.293 9.293 0 013.13.583 5.551 5.551 0 013.2 3.2 9.313 9.313 0 01.58 3.13c.08 1.779.1 2.314.1 6.817s-.021 5.039-.1 6.817a9.492 9.492 0 01-.594 3.131 5.356 5.356 0 01-1.264 1.942 5.262 5.262 0 01-1.94 1.259 9.381 9.381 0 01-3.141.58c-1.791.08-2.318.1-6.83.1s-5.04-.021-6.83-.1a9.564 9.564 0 01-3.143-.595 5.223 5.223 0 01-1.938-1.264 5.121 5.121 0 01-1.265-1.936 9.572 9.572 0 01-.59-3.141c-.063-1.771-.086-2.318-.086-6.809s.022-5.04.086-6.832a9.561 9.561 0 01.59-3.14 5 5 0 011.265-1.946 4.989 4.989 0 011.938-1.262 9.335 9.335 0 013.122-.592c1.792-.063 2.319-.084 6.83-.084l.063.042zm0 5.17a8.661 8.661 0 108.661 8.661 8.661 8.661 0 00-8.661-8.661zm0 14.283a5.622 5.622 0 115.622-5.622 5.621 5.621 0 01-5.622 5.622zM42.2 22.056a2.024 2.024 0 11-2.024-2.023 2.025 2.025 0 012.024 2.023z"/></svg>