<svg xmlns="http://www.w3.org/2000/svg" width="27" height="27" viewBox="0 0 27 27"><path d="M0 19.89v-.39a3.58 3.58 0 01.29-.39c.43-.51.92-1 1.31-1.55A15.72 15.72 0 004.37 9.7c0-.34.06-.69.08-1h20.66a.85.85 0 010 .16 18.87 18.87 0 01-1.32 6.42A14.41 14.41 0 0120.71 20a1.23 1.23 0 01-1 .4H.93a.92.92 0 01-.93-.51z" fill="#3f3d3d"/><path d="M5 24.85a.92.92 0 01-.55-1v-2h15.31a2.58 2.58 0 001.86-.74A15.47 15.47 0 0025 16.33l.14-.32.06-.06v7.91a.94.94 0 01-.55 1zM25.15 7.16H4.47V5.05a.74.74 0 01.82-.82h3.6v-.7a.73.73 0 01.72-.77.72.72 0 01.75.76v.7h3.68v-.68a.74.74 0 111.47 0v.68h3.74v-.67a.73.73 0 01.75-.79.74.74 0 01.74.78v.69h3.59a.74.74 0 01.83.83z" fill="#3f3d3d"/></svg>