<svg version="1.1" id="圖層_1" xmlns="http://www.w3.org/2000/svg" x="0" y="0" width="27" height="27" viewBox="0 0 27 27" xml:space="preserve"><path d="M22.3 5.3c-1.6-2.9-4-4.6-7.2-5.1-.4-.1-.7-.2-1.1-.2h-1c-.5.1-.9.1-1.4.2-1.6.3-3 1-4.3 2-1.7 1.3-2.9 3-3.5 5.1-.6 2-.6 3.9.2 5.8.5 1.4 1.3 2.7 2.2 4 2.4 3.3 4.8 6.5 7.2 9.8.1.1.2.1.2 0 2.4-3.3 4.9-6.6 7.3-10 .9-1.2 1.7-2.5 2.1-3.9 1-2.6.7-5.2-.7-7.7zm-8.8 10c-2.9 0-5.2-2.4-5.2-5.3s2.4-5.3 5.3-5.3 5.3 2.4 5.2 5.3c-.1 3-2.5 5.4-5.3 5.3z" fill="#3e3e3e"/></svg>