<svg xmlns="http://www.w3.org/2000/svg" viewBox="0 0 550.57 503.74"><path d="M550.57 424V79.75A79.75 79.75 0 00470.82 0H174.58a79.76 79.76 0 00-79.75 79.75v94.14l-89.7 67.69a12.9 12.9 0 000 20.59l89.7 67.69V424a79.76 79.76 0 0079.75 79.75h296.24A79.75 79.75 0 00550.57 424" fill="#eba72a"/><path d="M243.3 236.38a6.5 6.5 0 00-6.49-6.5h-25.29a6.5 6.5 0 00-6.49 6.5v99.52a6.5 6.5 0 006.49 6.5h25.29a6.5 6.5 0 006.49-6.5zm163.76 96.36c-5.3 15.79-24.3 16.75-38.11 16.75-29.78 0-59.67-7.32-89.39-9.73-22.28-1.81-29.28-7.11-29.28-28.32 0-19.24.24-48.63.24-68.85 0-11.16 7.8-19.11 17.56-27.94 24.18-21.87 46.54-38.8 59.55-69.76 5.27-12.53 2.07-32.24 20.47-30.07 12.6 1.48 18.36 17.64 19.4 29.74 1.16 13.41-3.4 30.06-10.2 42-6.66 11.65-23.48 27.18-1.79 28.68 18.94 1.32 71.24-14.13 76.48 15.12 1.2 6.71-1.84 11.85-5 17.3-5.27 8.94.53 6.82-.18 17.58-.57 8.7-6.09 10.2-8.83 16.34-2.38 5.34 2.14 10.55 1.33 16.88-1.18 9.25-7.62 9.83-11.41 16.08-3.21 5.31 1.41 11.65-.8 18.23" fill="#fdfffd"/></svg>