<svg xmlns="http://www.w3.org/2000/svg" viewBox="0 0 550.57 503.74"><defs><style>.a{fill:#eba72a;}.b{fill:#fff;}</style></defs><path class="a" d="M550.57,424V79.75A79.75,79.75,0,0,0,470.82,0H174.58A79.76,79.76,0,0,0,94.83,79.75v94.14L5.13,241.58a12.9,12.9,0,0,0,0,20.59l89.7,67.69V424a79.76,79.76,0,0,0,79.75,79.75H470.82A79.75,79.75,0,0,0,550.57,424"/><path class="b" d="M364.86,190.32a49.58,49.58,0,1,1-49.57-49.58,49.57,49.57,0,0,1,49.57,49.58m72.29,131.52h0a66.71,66.71,0,0,0-66.71-66.71H260.13a66.71,66.71,0,0,0-66.71,66.71,19.65,19.65,0,0,0,19.65,19.65H417.5a19.65,19.65,0,0,0,19.65-19.65"/></svg>