<svg xmlns="http://www.w3.org/2000/svg" viewBox="0 0 550.57 503.74"><path d="M550.57 424V79.75A79.75 79.75 0 00470.82 0H174.58a79.76 79.76 0 00-79.75 79.75v94.14l-89.7 67.69a12.9 12.9 0 000 20.59l89.7 67.69V424a79.76 79.76 0 0079.75 79.75h296.24A79.75 79.75 0 00550.57 424" fill="#eba72a"/><path d="M364.86 190.32a49.58 49.58 0 11-49.57-49.58 49.57 49.57 0 0149.57 49.58m72.29 131.52a66.71 66.71 0 00-66.71-66.71H260.13a66.71 66.71 0 00-66.71 66.71 19.65 19.65 0 0019.65 19.65H417.5a19.65 19.65 0 0019.65-19.65" fill="#fff"/></svg>