<svg id="圖層_1" data-name="圖層 1" xmlns="http://www.w3.org/2000/svg" xmlns:xlink="http://www.w3.org/1999/xlink" viewBox="0 0 185.89 75.14"><defs><clipPath id="clip-path"><path class="cls-1" d="M0 0h185.89v75.14H0z"/></clipPath><clipPath id="clip-path-2"><path class="cls-1" d="M3 0a3 3 0 103 3 3 3 0 00-3-3z"/></clipPath><clipPath id="clip-path-4"><path class="cls-1" d="M19 0a3 3 0 00-3 3v55.7a3 3 0 003 3h24v7.55H5.93V14.69a2.84 2.84 0 00-2.84-2.84h-.26A2.84 2.84 0 000 14.69V72.3a2.84 2.84 0 002.83 2.84H46a3 3 0 003-3V58.7a3 3 0 00-3-3H21.91V5.93h9.82V45a3 3 0 003 3h25.05v12.71a2.64 2.64 0 002.64 2.64h.65a2.64 2.64 0 002.64-2.64V44.7a2.64 2.64 0 00-2.64-2.64H37.66V3a3 3 0 00-3-3z"/></clipPath><linearGradient id="未命名漸層" y1="75.14" x2="1" y2="75.14" gradientTransform="matrix(0 -83.9 -83.9 0 6306.75 110.54)" gradientUnits="userSpaceOnUse"><stop offset="0" stop-color="#f8d074"/><stop offset=".53" stop-color="#56b770"/><stop offset="1" stop-color="#1a8fad"/></linearGradient><linearGradient id="未命名漸層_2" y1="75.02" y2="75.02" gradientTransform="matrix(0 -83.9 -83.9 0 6326.53 99.49)" xlink:href="#未命名漸層"/><style>.cls-1{fill:none}</style></defs><g clip-path="url(#clip-path)"><path d="M83.72 55.46a.86.86 0 01-.63-.27.85.85 0 01-.27-.63v-9.92a.64.64 0 01.19-.47.66.66 0 01.93 0 .67.67 0 01.18.47v9.61c0 .07 0 .11.12.11h4.4a.53.53 0 01.39.16.56.56 0 010 .78.53.53 0 01-.39.16zm10.94.2a3.82 3.82 0 01-2.86-1.19 4.44 4.44 0 01-1.15-3.22 5.34 5.34 0 01.35-1.86 4.19 4.19 0 01.82-1.39 3.93 3.93 0 011.18-.9 3.3 3.3 0 011.41-.32 3.06 3.06 0 012.44 1 4.19 4.19 0 01.9 2.82.8.8 0 01-.28.62 1 1 0 01-.69.26H92c-.08 0-.11 0-.1.11a3.35 3.35 0 00.86 2.2 2.65 2.65 0 002 .83 3.68 3.68 0 001.73-.44.5.5 0 01.36-.05.39.39 0 01.28.22.51.51 0 01.06.38.45.45 0 01-.23.29 4.87 4.87 0 01-2.37.61m-2.67-5.13c0 .06 0 .09.11.09h4.5c.07 0 .11 0 .11-.12a3.05 3.05 0 00-.59-2 2 2 0 00-1.6-.68 2.28 2.28 0 00-1.67.72 2.75 2.75 0 00-.86 2m11.74 5.15a3.84 3.84 0 01-2.87-1.19 4.48 4.48 0 01-1.14-3.22 5.12 5.12 0 01.32-1.86 3.91 3.91 0 012-2.29 3.3 3.3 0 011.41-.32 3 3 0 012.43 1 4.19 4.19 0 01.9 2.82.83.83 0 01-.27.62 1 1 0 01-.69.26H101c-.08 0-.12 0-.11.11a3.3 3.3 0 00.87 2.2 2.64 2.64 0 002 .83 3.71 3.71 0 001.73-.44.48.48 0 01.35-.05.41.41 0 01.29.22.46.46 0 010 .38.44.44 0 01-.22.29 4.92 4.92 0 01-2.37.61m-2.74-5.16c0 .06 0 .09.1.09h4.5c.08 0 .11 0 .11-.12a3.05 3.05 0 00-.59-2 2 2 0 00-1.6-.68 2.3 2.3 0 00-1.67.72 2.74 2.74 0 00-.85 2m10.95 5.18c-1.72 0-2.57-1.1-2.57-3.29v-4.73a.63.63 0 01.18-.46.65.65 0 01.9 0 .6.6 0 01.19.46v4.58a3.17 3.17 0 00.39 1.78 1.47 1.47 0 001.29.56 2.17 2.17 0 001.16-.33 5 5 0 001.14-1.08.31.31 0 00.07-.2v-5.31a.65.65 0 01.65-.64.6.6 0 01.44.18.63.63 0 01.18.46v7.3a.51.51 0 01-.52.52.55.55 0 01-.56-.52l-.06-.81h-.08a5.19 5.19 0 01-1.31 1.14 2.88 2.88 0 01-1.49.39m10.04-.4a1 1 0 01-.59.2.94.94 0 01-.6-.2.92.92 0 01-.36-.52l-2-7.11a.76.76 0 010-.14.52.52 0 01.09-.29.46.46 0 01.4-.2.87.87 0 01.52.17.85.85 0 01.3.46L120.7 52c0 .18.21.94.5 2.3s.13-.5.26-1 .24-1 .32-1.26l1.21-4.4a.78.78 0 01.29-.46.87.87 0 01.51-.17.9.9 0 01.52.17.85.85 0 01.3.46L125.9 52c0 .18.1.42.19.73s.15.6.21.85.12.5.18.72c0-.15.12-.5.25-1s.22-1 .29-1.26l1.14-4.44a.84.84 0 01.3-.42.7.7 0 01.54-.18.45.45 0 01.38.18.47.47 0 01.09.28.62.62 0 010 .13l-2 7.12a1 1 0 01-.36.55 1 1 0 01-.61.2 1 1 0 01-.62-.2 1 1 0 01-.37-.55l-1.09-4c-.07-.25-.26-1-.58-2.41-.24 1.1-.45 1.9-.61 2.42l-1 4a.94.94 0 01-.35.53m13.31.41a3.82 3.82 0 01-2.86-1.19 4.44 4.44 0 01-1.15-3.22 5.34 5.34 0 01.32-1.86 4 4 0 01.85-1.42 3.93 3.93 0 011.2-.87 3.3 3.3 0 011.41-.32 3 3 0 012.43 1 4.14 4.14 0 01.91 2.82.84.84 0 01-.28.62 1 1 0 01-.69.26h-4.76c-.08 0-.12 0-.11.11a3.3 3.3 0 00.87 2.2 2.64 2.64 0 002 .83 3.68 3.68 0 001.73-.44.5.5 0 01.36-.05.41.41 0 01.28.22.46.46 0 01.05.38.44.44 0 01-.22.29 4.87 4.87 0 01-2.37.61m-2.74-5.16c0 .06 0 .09.11.09h4.5c.07 0 .1 0 .1-.12a3 3 0 00-.59-2 2 2 0 00-1.6-.68 2.28 2.28 0 00-1.66.72 2.71 2.71 0 00-.86 2m9.5 4.8a.61.61 0 01-.45.18.64.64 0 01-.45-.18.61.61 0 01-.19-.44v-7.32a.51.51 0 01.15-.37.53.53 0 01.37-.15.59.59 0 01.38.14.52.52 0 01.19.38l.08.69a6.5 6.5 0 011.37-1.06 3 3 0 011.46-.38c1.72 0 2.59 1.11 2.59 3.31v4.73a.65.65 0 01-.19.45.58.58 0 01-.45.19.62.62 0 01-.46-.19.61.61 0 01-.19-.45v-4.57a3.14 3.14 0 00-.4-1.79 1.43 1.43 0 00-1.27-.56 2.18 2.18 0 00-1.15.31 6.93 6.93 0 00-1.19 1 .26.26 0 00-.08.2v5.45a.6.6 0 01-.18.44m9.93-.01a.65.65 0 01-.9 0 .58.58 0 01-.19-.44V43.61a.58.58 0 01.19-.44.65.65 0 01.9 0 .6.6 0 01.18.44v2.84l-.05 1.65h.08a6 6 0 011.33-1 2.82 2.82 0 011.41-.36c1.72 0 2.58 1.11 2.58 3.31v4.73a.64.64 0 01-.18.45.58.58 0 01-.45.19.62.62 0 01-.46-.19.61.61 0 01-.19-.45v-4.54a3.22 3.22 0 00-.4-1.79 1.44 1.44 0 00-1.27-.56 2.18 2.18 0 00-1.15.31 6.24 6.24 0 00-1.19 1 .23.23 0 00-.08.2v5.45a.6.6 0 01-.18.44m14.74-.83a3.76 3.76 0 01-5.51 0 4.47 4.47 0 01-1.14-3.21A4.58 4.58 0 01161 48a3.75 3.75 0 015.52 0 4.57 4.57 0 011.13 3.26 4.47 4.47 0 01-1.14 3.21m-4.61-.78a2.32 2.32 0 003.72 0 3.85 3.85 0 00.72-2.42 3.9 3.9 0 00-.72-2.45 2.3 2.3 0 00-3.72 0 3.9 3.9 0 00-.72 2.45 3.86 3.86 0 00.72 2.43m11.79 1.96a3.83 3.83 0 01-2.86-1.19 4.48 4.48 0 01-1.15-3.22 5.12 5.12 0 01.33-1.86 3.91 3.91 0 012.05-2.29 3.3 3.3 0 011.41-.32 3 3 0 012.43 1 4.19 4.19 0 01.9 2.82.83.83 0 01-.27.62 1 1 0 01-.69.26h-4.76c-.08 0-.12 0-.11.11a3.35 3.35 0 00.86 2.2 2.67 2.67 0 002 .83 3.65 3.65 0 001.73-.44.5.5 0 01.36-.05.43.43 0 01.29.22.49.49 0 01-.17.67 4.93 4.93 0 01-2.38.61M171 50.5c0 .06 0 .09.11.09h4.5c.07 0 .11 0 .11-.12a3.05 3.05 0 00-.59-2 2 2 0 00-1.6-.68 2.3 2.3 0 00-1.67.72 2.75 2.75 0 00-.86 2m9.39 4.77a.58.58 0 01-.43.18.6.6 0 01-.44-.18.6.6 0 01-.18-.43V43.6a.6.6 0 01.18-.43.6.6 0 01.48-.17.58.58 0 01.43.18.57.57 0 01.19.43v8h.06l3.3-4.06a1.41 1.41 0 011.15-.55.29.29 0 01.3.19.3.3 0 010 .34l-2.29 2.76a.17.17 0 000 .2l2.77 4.38a.37.37 0 01.08.21.32.32 0 01-.06.18.35.35 0 01-.34.2 1.19 1.19 0 01-1.06-.59l-2.12-3.49c0-.07-.09-.07-.14 0l-1.52 1.78a.29.29 0 00-.07.2v1.51a.57.57 0 01-.19.43M83.72 74.27a.89.89 0 01-.63-.26.87.87 0 01-.27-.64v-9.92A.64.64 0 0183 63a.66.66 0 01.93 0 .67.67 0 01.18.47v9.61c0 .08 0 .11.12.11h4.4a.53.53 0 01.39.16.57.57 0 01.16.39.53.53 0 01-.16.39.53.53 0 01-.39.16zm9.69.2a2.52 2.52 0 01-1.77-.63 2.2 2.2 0 01-.7-1.74 2.34 2.34 0 011.23-2.1 10.1 10.1 0 013.92-1c.08 0 .11-.06.1-.14 0-1.44-.6-2.16-1.79-2.16a4.15 4.15 0 00-2.14.66.51.51 0 01-.38.06.44.44 0 01-.31-.22.51.51 0 010-.4.46.46 0 01.23-.31 5.6 5.6 0 012.85-.85 2.56 2.56 0 012.17.91 4.1 4.1 0 01.64 2.45v4.73a.51.51 0 01-.52.52.55.55 0 01-.38-.15.59.59 0 01-.2-.37v-.49h-.05a4.5 4.5 0 01-2.83 1.22m.35-1a2.59 2.59 0 001.15-.27 5.32 5.32 0 001.21-.84.25.25 0 00.07-.19v-2.25c0-.07 0-.11-.07-.11a8.46 8.46 0 00-3 .79 1.6 1.6 0 00-.9 1.43 1.29 1.29 0 00.44 1.07 1.73 1.73 0 001.14.36m10.4 1.02a3.19 3.19 0 01-1.27-.27 4 4 0 01-1.19-.8l-.06.36a.57.57 0 01-.2.36.58.58 0 01-.38.13.5.5 0 01-.51-.5V62.42a.58.58 0 01.19-.44.64.64 0 01.45-.18.61.61 0 01.45.18.6.6 0 01.18.44v2.84l-.06 1.44a.06.06 0 00.06 0 4.29 4.29 0 012.64-1.15 3 3 0 012.51 1.16 5.12 5.12 0 01.92 3.19 6 6 0 01-.3 1.93 4.12 4.12 0 01-.81 1.45 3.72 3.72 0 01-1.18.88 3.22 3.22 0 01-1.4.31m-.18-1.07a2.18 2.18 0 001.82-1 4.1 4.1 0 00.72-2.54 4.3 4.3 0 00-.57-2.38 2 2 0 00-1.78-.86 3.56 3.56 0 00-2.32 1.19.25.25 0 00-.09.2v4.35a.23.23 0 00.09.18 3.19 3.19 0 002.09.86m12.55-.13a3.77 3.77 0 01-5.52 0 4.46 4.46 0 01-1.12-3.21 4.57 4.57 0 011.13-3.26 3.76 3.76 0 015.53 0 4.62 4.62 0 011.13 3.26 4.47 4.47 0 01-1.14 3.21m-4.65-.78a2.32 2.32 0 003.72 0 3.85 3.85 0 00.72-2.42 3.9 3.9 0 00-.72-2.45 2.3 2.3 0 00-3.72 0 3.9 3.9 0 00-.71 2.45 3.86 3.86 0 00.71 2.43m9.56 1.59a.65.65 0 01-.9 0 .58.58 0 01-.19-.44v-7.32a.51.51 0 01.15-.37.5.5 0 01.37-.15.55.55 0 01.37.14.67.67 0 01.2.38l.07 1h.06a3.91 3.91 0 011.07-1.28 2.15 2.15 0 011.32-.47h.35a.44.44 0 01.35.24.64.64 0 01.08.33.76.76 0 010 .15.56.56 0 01-.25.34.64.64 0 01-.43.09h-.24a1.85 1.85 0 00-1.17.47 3.79 3.79 0 00-1 1.45.46.46 0 000 .21v4.78a.6.6 0 01-.18.44m6.73.39a2.52 2.52 0 01-1.77-.63 2.2 2.2 0 01-.7-1.74 2.34 2.34 0 011.23-2.1 10.09 10.09 0 013.92-1 .11.11 0 00.11-.14c0-1.44-.61-2.16-1.79-2.16a4.15 4.15 0 00-2.14.66.54.54 0 01-.39.06.45.45 0 01-.3-.22.56.56 0 01-.06-.4.5.5 0 01.24-.31 5.6 5.6 0 012.85-.85 2.56 2.56 0 012.17.91 4.1 4.1 0 01.69 2.52v4.73a.5.5 0 01-.15.37.51.51 0 01-.37.15.55.55 0 01-.38-.15.59.59 0 01-.2-.37l-.05-.49a4.5 4.5 0 01-2.83 1.22m.35-1a2.59 2.59 0 001.15-.27 5.07 5.07 0 001.2-.84.22.22 0 00.08-.19v-2.32c0-.07 0-.11-.08-.11a8.45 8.45 0 00-3 .79 1.6 1.6 0 00-.9 1.43 1.29 1.29 0 00.44 1.07 1.73 1.73 0 001.14.36m9.34 1.02a2.08 2.08 0 01-1.79-.71 3.31 3.31 0 01-.54-2V67c0-.07 0-.11-.12-.11H135a.42.42 0 01-.33-.14.46.46 0 01-.14-.35.47.47 0 01.14-.35.49.49 0 01.33-.17h.74c.08 0 .12 0 .12-.11L136 64a.59.59 0 01.17-.39.54.54 0 01.39-.17.58.58 0 01.56.56v1.7c0 .07 0 .11.1.11h1.7a.51.51 0 01.37.15.52.52 0 01.15.38.51.51 0 01-.52.52h-1.7c-.07 0-.1 0-.1.11v4.79a2.16 2.16 0 00.29 1.25 1.2 1.2 0 001 .42 2 2 0 00.5-.07.5.5 0 01.38 0 .44.44 0 01.22.29.32.32 0 010 .14.46.46 0 01-.08.24.4.4 0 01-.29.23 3.72 3.72 0 01-1 .17m9.41-1.16a3.77 3.77 0 01-5.52 0 4.51 4.51 0 01-1.13-3.21 4.62 4.62 0 011.1-3.26 3.76 3.76 0 015.53 0 4.57 4.57 0 011.13 3.26 4.47 4.47 0 01-1.14 3.21m-4.61-.78a2.32 2.32 0 003.72 0 3.85 3.85 0 00.72-2.42 3.9 3.9 0 00-.72-2.45 2.3 2.3 0 00-3.72 0 3.9 3.9 0 00-.72 2.45 3.86 3.86 0 00.72 2.43m9.56 1.59a.61.61 0 01-.45.18.64.64 0 01-.45-.18.61.61 0 01-.19-.44v-7.32a.51.51 0 01.15-.37.53.53 0 01.37-.15.59.59 0 01.38.14.66.66 0 01.19.38l.08 1h.06a3.89 3.89 0 011.06-1.28 2.15 2.15 0 011.32-.47h.36a.46.46 0 01.35.24.89.89 0 01.06.48.52.52 0 01-.25.34.62.62 0 01-.42.09h-.25a1.82 1.82 0 00-1.16.47 3.58 3.58 0 00-1 1.45.46.46 0 000 .21v4.78a.6.6 0 01-.18.44M158.36 64a.93.93 0 01-.66-.25.78.78 0 01-.26-.61.8.8 0 01.26-.64 1 1 0 01.66-.23 1 1 0 01.66.23.81.81 0 01.27.64.77.77 0 01-.28.61 1 1 0 01-.65.25m.44 10.1a.6.6 0 01-.44.18.65.65 0 01-.46-.18.61.61 0 01-.19-.44v-7.2a.64.64 0 01.19-.46.65.65 0 01.46-.18.6.6 0 01.44.18.63.63 0 01.18.46v7.2a.6.6 0 01-.18.44m6.87.37a3.84 3.84 0 01-2.87-1.19 4.48 4.48 0 01-1.14-3.22 5.12 5.12 0 01.34-1.86 3.91 3.91 0 012-2.29 3.3 3.3 0 011.41-.32 3.06 3.06 0 012.43 1 4.19 4.19 0 01.9 2.82.83.83 0 01-.27.62 1 1 0 01-.69.26h-4.76c-.08 0-.12 0-.11.11a3.35 3.35 0 00.87 2.21 2.67 2.67 0 002 .82 3.71 3.71 0 001.73-.44.48.48 0 01.35 0 .41.41 0 01.29.22.46.46 0 010 .38.44.44 0 01-.22.29 4.92 4.92 0 01-2.37.61m-2.74-5.16a.09.09 0 00.1.1h4.5c.08 0 .11 0 .11-.13a3.07 3.07 0 00-.59-2 2 2 0 00-1.6-.68 2.3 2.3 0 00-1.67.72 2.74 2.74 0 00-.85 2m10.66 5.13a4.89 4.89 0 01-2.72-.84.47.47 0 01-.22-.34v-.09a.56.56 0 01.11-.32.5.5 0 01.35-.2.54.54 0 01.4.11 3.61 3.61 0 002.13.69 1.91 1.91 0 001.29-.4 1.29 1.29 0 00.45-1 1.06 1.06 0 00-.12-.5 1.59 1.59 0 00-.29-.38 1.75 1.75 0 00-.46-.32 4 4 0 00-.52-.25c-.15-.07-.35-.14-.58-.22s-.54-.2-.73-.28-.42-.21-.68-.35a2.54 2.54 0 01-.6-.46 2 2 0 01-.39-.59 2 2 0 01-.16-.77 2.13 2.13 0 01.78-1.68 3.07 3.07 0 012.1-.68 3.94 3.94 0 012.14.65.41.41 0 01.22.32.51.51 0 01-.09.38.55.55 0 01-.34.21.61.61 0 01-.4-.07 2.86 2.86 0 00-1.53-.48 1.84 1.84 0 00-1.23.37 1.18 1.18 0 00-.42.92.93.93 0 00.12.46 1.19 1.19 0 00.27.34 2.06 2.06 0 00.45.29c.2.1.37.17.5.22l.57.22h.12l.75.29a5.28 5.28 0 01.64.34 2.58 2.58 0 01.59.47 2.38 2.38 0 01.36.6 2.06 2.06 0 01.16.84 2.26 2.26 0 01-.8 1.76 3.27 3.27 0 01-2.22.7" fill="#3d3a39"/></g><g clip-path="url(#clip-path-2)"><path transform="rotate(-44.01 2.96 2.967)" fill="url(#未命名漸層)" d="M-1.23-1.23h8.38v8.38h-8.38z"/></g><path d="M65.71 72.17a3 3 0 11-3-3 3 3 0 013 3" fill="#1a8fad"/><g clip-path="url(#clip-path-4)"><path transform="rotate(-44.01 32.846 37.57)" fill="url(#未命名漸層_2)" d="M-16.88-12.28h99.46v99.7h-99.46z"/></g></svg>