<svg xmlns="http://www.w3.org/2000/svg" width="33" height="33" viewBox="0 0 33 33"><path d="M29.87 30.29c0 .07-.06.15-.08.23a2.66 2.66 0 01-2.52 2.06H5.89a2.64 2.64 0 01-2.56-1.66 2.68 2.68 0 012.5-3.69h10.63l-.31-.34-9.46-9.38a2.66 2.66 0 01-.78-2.75 2.6 2.6 0 012-1.94 2.69 2.69 0 012.71.76c.93.9 1.84 1.81 2.76 2.72l.34.32v-.49q.06-6.34.1-12.71a3 3 0 01.8-2.21 2.53 2.53 0 012.72-.64 2.53 2.53 0 011.78 2.16 4.25 4.25 0 01.05.8v13.08l.33-.29c1-1 2-1.94 3-2.87A2.78 2.78 0 0127.13 15a2.7 2.7 0 01-.83 2.57l-4.6 4.56L16.78 27l-.23.25h10c2 0 2.67.48 3.32 2.33z" fill="#752e0b"/></svg>