<svg height="146" viewBox="0 0 411 146" width="411" xmlns="http://www.w3.org/2000/svg"><path d="M217.305 0l-12.851 9.973v18.779h25.701V9.973zm-65.994 142.493h25.701V2.584h-25.701zm53.143 0h25.701v-95.77h-25.701zm57.97-105.897v10.126h-15.846V68.75h15.846v73.742h25.896V68.75h21.45V46.722h-21.45v-9.74c0-10.63 7.537-13.086 13.333-13.14 3.12-.03 6.187.075 8.117.351V2.268c-4.126-.807-7.344-1.036-12.755-1.036-21.063 0-34.59 13.913-34.59 35.364m80.585 47.537c.58-8.695 7.922-18.745 21.256-18.745 14.686 0 20.87 9.276 21.257 18.745zm67.83 9.663c0-30.533-17.588-49.279-46.96-49.279-24.35 0-46.765 19.713-46.765 50.053 0 32.078 22.997 50.822 49.084 50.822 23.382 0 38.456-13.72 43.288-30.147l-21.452-6.378c-3.09 8.505-9.663 14.496-21.643 14.496-12.754 0-23.383-9.083-23.962-21.643h68.021c0-.388.388-4.252.388-7.924zM67.442 35.05l17.544 47.977H49.899zm16.04-29.566H52.563L0 142.493h28.214l12.813-35.119h52.842l12.802 35.118h28.987z" fill="#fff" fill-rule="evenodd"/></svg>