<svg xmlns="http://www.w3.org/2000/svg" width="50" height="50" viewBox="0 0 50 50"><circle cx="25" cy="25" r="25" fill="#4b4b4b"/><path d="M11.64 10.81h26.72c.34.14.36.42.36.73v27.24a.45.45 0 01-.4.4 1.51 1.51 0 01-.3 0H12a1.22 1.22 0 01-.27 0 .44.44 0 01-.43-.43V11.52c-.02-.31.02-.58.34-.71zm.62 1v26.42h8.48V31.4c0-.59.14-.73.72-.73h7.09c.57 0 .71.14.71.73v6.83h8.49V11.77zm16 19.87h-6.55v6.59h6.59z" fill="#fff"/><path d="M25 12.7h11.1c.59 0 .72.13.72.73v7.07c0 .58-.13.72-.71.72H13.89c-.58 0-.71-.14-.71-.72v-7.07c0-.6.13-.73.72-.73zm10.85 1h-21.7v6.59h21.71zM25 23.11h1.31c.4 0 .57.17.58.57v1.72a.48.48 0 01-.55.54h-2.69a.48.48 0 01-.54-.52v-1.78a.48.48 0 01.54-.53zm-.92.95V25h1.84v-.92zm-8.53-.95h1.3c.4 0 .57.16.58.54v1.75a.48.48 0 01-.55.54h-2.69a.48.48 0 01-.54-.53v-1.77a.48.48 0 01.54-.53zm.92 1.89v-.92h-1.86V25zm3.81-1.89h1.33c.36 0 .55.18.55.54v1.75a.48.48 0 01-.55.54h-2.69a.48.48 0 01-.54-.53v-1.77c0-.37.19-.52.57-.53zM19.34 25h1.86v-.9h-1.86zm10.37.94h-1.3c-.38 0-.57-.18-.57-.55v-1.72c0-.38.18-.56.57-.56h2.66a.48.48 0 01.55.54v1.75c0 .38-.19.54-.58.54zm.95-1.87H28.8V25h1.86zm3.8-.96h1.3c.41 0 .59.17.59.57v1.71a.49.49 0 01-.55.55h-2.69a.48.48 0 01-.54-.52v-1.8c0-.34.18-.5.52-.51zM33.53 25h1.86v-.9h-1.86zm-18 4.73h-1.3c-.4 0-.58-.17-.58-.56v-1.7c0-.39.18-.57.58-.57h2.63c.39 0 .56.18.57.56v1.72c0 .39-.17.55-.57.55zm.94-1.88h-1.86v.91h1.86zm3.78 1.88H19c-.43 0-.59-.15-.6-.57s0-1.11 0-1.67.18-.59.59-.59h2.61c.4 0 .58.18.58.57v1.69c0 .4-.18.57-.59.57zm-.9-1.88v.91h1.85v-.91zM25 29.73h-1.3c-.41 0-.57-.16-.58-.56v-1.7c0-.4.18-.58.58-.58h2.63c.39 0 .56.18.57.56v1.72c0 .38-.17.55-.57.55zm.94-1.88h-1.87v.91h1.86zm3.77 1.88h-1.28c-.42 0-.59-.17-.6-.58v-1.67c0-.41.19-.59.6-.59h2.61c.4 0 .57.17.58.57v1.7c0 .4-.17.56-.58.56zm-.91-1h1.85v-.91H28.8zm5.66 1h-1.34c-.37 0-.54-.16-.55-.54v-1.74c0-.37.18-.55.55-.55h2.69a.48.48 0 01.54.53v1.78c0 .35-.18.52-.54.52zm.94-1.88h-1.86v.9h1.86z" fill="#fff"/><path d="M23.11 17v1.7c0 .45-.17.62-.61.63h-2.08c-.45 0-.62-.18-.63-.62v-3.49c0-.45.18-.63.62-.63h2.08c.44 0 .62.18.62.62zm-2.35-1.4v2.81h1.39v-2.86zm-2.85 1.85H16v1.19a1.55 1.55 0 010 .36.43.43 0 01-.48.36.44.44 0 01-.43-.43v-3.79c0-.23.07-.44.31-.5a.64.64 0 01.47.1.67.67 0 01.16.45v1.27h1.89v-1.12a2.14 2.14 0 010-.36.47.47 0 01.92 0 1.55 1.55 0 010 .22v3.63a.46.46 0 01-.46.46.45.45 0 01-.48-.46v-1zm11.37-1.92v1h.88a.46.46 0 01.5.52.45.45 0 01-.48.41h-.9v.95h1.45a.46.46 0 010 .91h-2.05c-.27 0-.39-.21-.39-.54V15.2a.48.48 0 01.53-.56h1.77a.48.48 0 01.52.5.47.47 0 01-.53.44zm-3.34 0v3.24c0 .35-.18.56-.46.57s-.48-.24-.48-.59v-3.22h-.84c-.36 0-.56-.17-.57-.45s.2-.49.55-.49h2.66c.44 0 .7.37.49.69a.67.67 0 01-.45.24 6.66 6.66 0 01-.9.01zM33 18.38h1.4a.47.47 0 110 .93h-1.81c-.33 0-.49-.2-.49-.55v-3.63a.48.48 0 01.46-.54c.28 0 .48.21.48.56v3.22z" fill="#fff"/></svg>